STARTFONT 2.3
FONT -FontForge-Rajdhani-Book-R-Normal--36-360-72-72-P-220-ISO10646-1
SIZE 36 72 72  2
FONTBOUNDINGBOX 88 44 -15 -12
COMMENT "Generated by fontforge, http://fontforge.sourceforge.net"
COMMENT "Copyright (c) 2014 Indian Type Foundry (info@indiantypefoundry.com)"
STARTPROPERTIES 41
FOUNDRY "FontForge"
FAMILY_NAME "Rajdhani"
WEIGHT_NAME "Book"
SLANT "R"
SETWIDTH_NAME "Normal"
ADD_STYLE_NAME ""
PIXEL_SIZE 36
POINT_SIZE 360
RESOLUTION_X 72
RESOLUTION_Y 72
SPACING "P"
AVERAGE_WIDTH 220
CHARSET_REGISTRY "ISO10646"
CHARSET_ENCODING "1"
FONTNAME_REGISTRY ""
CHARSET_COLLECTIONS "ISO8859-2 ISO8859-9 ISO8859-4 ISO10646-1"
BITS_PER_PIXEL 2
FONT_NAME "Rajdhani-Regular"
FACE_NAME "Rajdhani Regular"
COPYRIGHT "Copyright (c) 2014 Indian Type Foundry (info@indiantypefoundry.com)"
FONT_VERSION "1.201;PS 1.0;hotconv 1.0.78;makeotf.lib2.5.61930; ttfautohint (v1.1) -l 7 -r 28 -G 50 -x 13 -D latn -f deva -w G"
FONT_ASCENT 29
FONT_DESCENT 7
UNDERLINE_POSITION -4
UNDERLINE_THICKNESS 2
X_HEIGHT 17
CAP_HEIGHT 22
DEFAULT_CHAR 3
RAW_ASCENT 800
RAW_DESCENT 200
NORM_SPACE 10
RELATIVE_WEIGHT 40
RELATIVE_SETWIDTH 50
SUPERSCRIPT_X 0
SUPERSCRIPT_Y 12
SUPERSCRIPT_SIZE 21
SUBSCRIPT_X 0
SUBSCRIPT_Y 2
SUBSCRIPT_SIZE 21
AVG_LOWERCASE_WIDTH 163
AVG_UPPERCASE_WIDTH 187
ENDPROPERTIES
CHARS 1043
STARTCHAR NULL.dup1
ENCODING 0
SWIDTH 0 0
DWIDTH 0 0
BBX 1 1 0 0
BITMAP
00
ENDCHAR
STARTCHAR CR
ENCODING 13
SWIDTH 0 0
DWIDTH 0 0
BBX 1 1 0 0
BITMAP
00
ENDCHAR
STARTCHAR space
ENCODING 32
SWIDTH 267 0
DWIDTH 10 0
BBX 1 1 0 0
BITMAP
00
ENDCHAR
STARTCHAR exclam
ENCODING 33
SWIDTH 237 0
DWIDTH 9 0
BBX 3 23 3 0
BITMAP
B4
B4
B4
B4
B4
B4
B4
B4
B4
B0
B0
B0
B0
70
70
00
00
00
B4
B4
B4
B4
B4
ENDCHAR
STARTCHAR quotedbl
ENCODING 34
SWIDTH 330 0
DWIDTH 12 0
BBX 8 7 2 16
BITMAP
B01E
B00E
B00D
B00D
700D
600D
6009
ENDCHAR
STARTCHAR numbersign
ENCODING 35
SWIDTH 677 0
DWIDTH 24 0
BBX 21 23 2 0
BITMAP
0000A0007400
0000E000B000
0001D000E000
0002C000D000
00038001D000
00038002C000
0BFFFFFFFF40
06AFAAABAA40
000E000B0000
001D000A0000
002C000E0000
0028001D0000
0038002C0000
007400380000
00B000740000
AAFAAABAA000
FFFFFFFFF000
01C000E00000
028001D00000
038002C00000
074003800000
0B0007400000
0A0007000000
ENDCHAR
STARTCHAR dollar
ENCODING 36
SWIDTH 504 0
DWIDTH 18 0
BBX 14 30 2 -4
BITMAP
00074000
00074000
00074000
02FFF900
1FAAAF40
3D0007C0
780002D0
740001E0
B40001E0
B4000090
B4000000
74000000
78000000
3E400000
1FFFF900
016AAF80
000003D0
000001E0
000001E0
100000E0
B40000E0
740001E0
780001D0
3D0007C0
1FAAAF40
06FFF900
00074000
00074000
00074000
00010000
ENDCHAR
STARTCHAR percent
ENCODING 37
SWIDTH 717 0
DWIDTH 26 0
BBX 23 23 1 0
BITMAP
06FE4000D000
1FABD001C000
3800E0038000
3400B0070000
7400B00A0000
7400B01D0000
7400B02C0000
3800A0340000
2D01E0B00000
1FFF80E00000
01A901C00000
000003800000
000007400000
00000A01FFD0
00001D0B95B4
00002C0E002C
0000340D002C
0000700D001C
0000E00D001C
0001D00D002C
0002800E0038
00074007EAF4
000A0001BF90
ENDCHAR
STARTCHAR ampersand
ENCODING 38
SWIDTH 597 0
DWIDTH 21 0
BBX 18 23 2 0
BITMAP
002FF90000
00FEAF8000
02D003D000
038001E000
078000E000
078000E000
078000E000
0380000000
02C0000000
01E0000000
01F8000000
1FFE000000
3E1FAAAA90
7807FFFFD0
7401F40000
74007C0000
74002E0000
74000B8000
740002E000
780001F400
3D0003ED00
1FAAAF4F40
02FFF903C0
ENDCHAR
STARTCHAR quotesingle
ENCODING 39
SWIDTH 186 0
DWIDTH 7 0
BBX 3 7 2 16
BITMAP
B4
B4
70
70
70
70
30
ENDCHAR
STARTCHAR parenleft
ENCODING 40
SWIDTH 283 0
DWIDTH 10 0
BBX 6 27 2 -4
BITMAP
06E0
2F90
7800
B000
E000
E000
E000
E000
E000
E000
E000
E000
E000
E000
E000
E000
E000
E000
E000
E000
E000
E000
F000
B400
3D00
1FE0
0190
ENDCHAR
STARTCHAR parenright
ENCODING 41
SWIDTH 283 0
DWIDTH 10 0
BBX 6 27 2 -4
BITMAP
F900
AF40
03C0
01D0
00E0
00E0
00E0
00E0
00E0
00E0
00E0
00E0
00E0
00E0
00E0
00E0
00E0
00E0
00E0
00E0
00E0
00E0
00E0
01D0
0B80
FE00
A400
ENDCHAR
STARTCHAR asterisk
ENCODING 42
SWIDTH 406 0
DWIDTH 15 0
BBX 10 9 2 14
BITMAP
007000
007000
007000
7921F0
2BAB90
005400
029D00
074B00
0E0380
ENDCHAR
STARTCHAR plus
ENCODING 43
SWIDTH 523 0
DWIDTH 19 0
BBX 15 14 2 4
BITMAP
00074000
00074000
00074000
00074000
00074000
00074000
6AABAAA0
7FFFFFF4
00074000
00074000
00074000
00074000
00074000
00074000
ENDCHAR
STARTCHAR comma
ENCODING 44
SWIDTH 191 0
DWIDTH 7 0
BBX 3 9 2 -4
BITMAP
B4
B4
B4
B4
B4
B0
A0
90
40
ENDCHAR
STARTCHAR hyphen
ENCODING 45
SWIDTH 312 0
DWIDTH 11 0
BBX 9 2 1 11
BITMAP
6AAA40
BFFF80
ENDCHAR
STARTCHAR period
ENCODING 46
SWIDTH 191 0
DWIDTH 7 0
BBX 3 5 2 0
BITMAP
B4
B4
B4
B4
B4
ENDCHAR
STARTCHAR slash
ENCODING 47
SWIDTH 396 0
DWIDTH 14 0
BBX 10 23 2 0
BITMAP
0000B0
0001E0
0002D0
0003C0
000780
000B40
000F00
001E00
002D00
003800
007400
00B000
00E000
02D000
03C000
078000
0B4000
0F0000
1E0000
2D0000
3C0000
780000
B00000
ENDCHAR
STARTCHAR zero
ENCODING 48
SWIDTH 514 0
DWIDTH 19 0
BBX 14 23 2 0
BITMAP
06FFF900
1FAAAF80
3D0002E0
780000F0
B40000B0
B40000B0
B40000B0
B40000B0
B40000B0
B40000B0
B40000B0
B40000B0
B40000B0
B40000B0
B40000B0
B40000B0
B40000B0
B40000B0
B40000B0
780000F0
3D0002E0
1FAAAF80
06FFF900
ENDCHAR
STARTCHAR one
ENCODING 49
SWIDTH 317 0
DWIDTH 11 0
BBX 8 23 1 0
BITMAP
006D
02FD
1FAD
BD1D
901D
001D
001D
001D
001D
001D
001D
001D
001D
001D
001D
001D
001D
001D
001D
001D
001D
001D
001D
ENDCHAR
STARTCHAR two
ENCODING 50
SWIDTH 478 0
DWIDTH 17 0
BBX 13 23 2 0
BITMAP
06FFE400
2FAABE00
78000B80
B00003C0
F00002C0
F00002C0
F00002C0
000003C0
00000780
00001F40
00007D00
0002F400
000B8000
007E0000
02F40000
0B800000
2E000000
78000000
B4000000
B0000000
F0000000
FAAAAA80
BFFFFFC0
ENDCHAR
STARTCHAR three
ENCODING 51
SWIDTH 496 0
DWIDTH 18 0
BBX 14 23 2 0
BITMAP
06FFF800
1FAAAF40
3C0007C0
B40002D0
B00001D0
B00001D0
B00001D0
000001D0
000001D0
000002C0
00001B40
001FFD00
000AAE00
000007C0
000002D0
000001D0
A00001D0
B00001D0
B00001D0
B40002D0
7C0007C0
2FAAAF40
06FFF900
ENDCHAR
STARTCHAR four
ENCODING 52
SWIDTH 520 0
DWIDTH 19 0
BBX 17 23 1 0
BITMAP
00000BD000
00001FD000
00002DD000
000075D000
0000F1D000
0002D1D000
000781D000
000B01D000
001E01D000
003C01D000
00B401D000
00E001D000
02D001D000
078001D000
0F0001D000
1D0001D000
3C0001D000
7FFFFFFF40
2AAAAAEA40
000001D000
000001D000
000001D000
000001D000
ENDCHAR
STARTCHAR five
ENCODING 53
SWIDTH 482 0
DWIDTH 17 0
BBX 14 23 2 0
BITMAP
BFFFFFC0
BAAAAA40
B4000000
B4000000
B4000000
B4000000
B4000000
B4000000
B5AA9400
BBFFFE00
BD001B80
740003C0
000002D0
000001D0
000001D0
000001D0
600001D0
B00001D0
B40002D0
740002C0
3D000780
1FAABF00
06FFF800
ENDCHAR
STARTCHAR six
ENCODING 54
SWIDTH 497 0
DWIDTH 18 0
BBX 14 23 2 0
BITMAP
06FFFF40
2FAAAA40
78000000
B4000000
F0000000
F0000000
F0000000
F0000000
F0000000
FAAAA400
FFFFFE00
F0001B80
F00002D0
F00001E0
F00001E0
F00001E0
F00001E0
F00001E0
F00001E0
B40002D0
780007C0
2FAAAF40
06FFF900
ENDCHAR
STARTCHAR seven
ENCODING 55
SWIDTH 380 0
DWIDTH 14 0
BBX 13 23 0 0
BITMAP
7FFFFFC0
6AAAABC0
00000780
00000B40
00000F00
00001E00
00003C00
00007800
0000B400
0000F000
0001E000
0002D000
0003C000
00074000
000F0000
001E0000
002D0000
003C0000
00780000
00B40000
00F00000
02D00000
02C00000
ENDCHAR
STARTCHAR eight
ENCODING 56
SWIDTH 519 0
DWIDTH 19 0
BBX 15 23 2 0
BITMAP
06FFFE00
1FAAAFC0
3D0001E0
780000B0
B40000B4
B4000074
B4000074
B40000B4
B40000B0
780000F0
2E0006D0
0BFFFF40
1FAAAB80
3D0001E0
740000B0
B40000B4
B4000074
B4000074
B40000B4
740000B0
3D0001E0
1FAAABD0
06FFFE00
ENDCHAR
STARTCHAR nine
ENCODING 57
SWIDTH 497 0
DWIDTH 18 0
BBX 14 23 2 0
BITMAP
06FFF800
2FAAAF40
780007C0
B40002D0
F00001D0
F00001E0
F00001E0
F00001E0
F00001E0
F00001E0
B40001E0
780001E0
2FAAAAE0
06FFFFE0
000001E0
000001E0
000001E0
000001E0
000001D0
000002D0
000007C0
1AAAAF40
3FFFF900
ENDCHAR
STARTCHAR colon
ENCODING 58
SWIDTH 191 0
DWIDTH 7 0
BBX 3 18 2 0
BITMAP
B4
B4
B4
B4
B4
00
00
00
00
00
00
00
00
B4
B4
B4
B4
B4
ENDCHAR
STARTCHAR semicolon
ENCODING 59
SWIDTH 191 0
DWIDTH 7 0
BBX 3 22 2 -4
BITMAP
B4
B4
B4
B4
B4
00
00
00
00
00
00
00
00
B4
B4
B4
B4
B4
B0
A0
90
40
ENDCHAR
STARTCHAR less
ENCODING 60
SWIDTH 513 0
DWIDTH 18 0
BBX 14 13 2 5
BITMAP
00000010
000006F0
0001BF90
001FE400
06F90000
7F400000
B8000000
6F900000
02FE4000
001BF400
00006F90
000006F0
00000010
ENDCHAR
STARTCHAR equal
ENCODING 61
SWIDTH 531 0
DWIDTH 19 0
BBX 15 8 2 7
BITMAP
7FFFFFF4
2AAAAAA4
00000000
00000000
00000000
00000000
2AAAAAA4
7FFFFFF4
ENDCHAR
STARTCHAR greater
ENCODING 62
SWIDTH 531 0
DWIDTH 19 0
BBX 15 13 2 5
BITMAP
50000000
7E400000
1BF80000
006F9000
0001BE40
00001BF4
000000B4
00001BE0
0006F900
01BF9000
1FE40000
7E000000
10000000
ENDCHAR
STARTCHAR question
ENCODING 63
SWIDTH 473 0
DWIDTH 17 0
BBX 13 23 2 0
BITMAP
02FFE000
1FAABD00
3D001F00
78000B40
74000740
74000740
74000740
00000B40
00002E00
0000B800
0002E000
000B4000
000E0000
000E0000
000E0000
00090000
00000000
00000000
001E0000
001E0000
001E0000
001E0000
001E0000
ENDCHAR
STARTCHAR at
ENCODING 64
SWIDTH 753 0
DWIDTH 27 0
BBX 22 24 3 -2
BITMAP
0005AAAA9000
007FFFFFFD00
02E400001B40
0F4000000380
2D00000001C0
74006AA901D0
B007FFFE01D0
E00F400E01D0
D02D000E01D0
D02C000E01D0
D02C000E01D0
D02C000E01D0
D02C000E01D0
D02C000E01D0
D02C000E01C0
D02D001E02C0
E01E007E0780
A00BEADFAF00
7401BE4BF800
380000000000
1E0000000000
07D000000000
01FEAAAA0000
001BFFFF0000
ENDCHAR
STARTCHAR A
ENCODING 65
SWIDTH 533 0
DWIDTH 19 0
BBX 17 23 1 0
BITMAP
0002F00000
0003F40000
0007B80000
000B3C0000
000E2D0000
001D1E0000
002C0F0000
00380B4000
0078078000
00B403C000
00F002D000
01E001E000
02D000F000
03C000B400
0780007400
0BAAAAB800
0FFFFFFC00
1E00002D00
2D00001E00
3C00000F00
7800000740
B400000380
F0000002C0
ENDCHAR
STARTCHAR B
ENCODING 66
SWIDTH 546 0
DWIDTH 20 0
BBX 14 23 3 0
BITMAP
FFFFF900
FAAAAF80
F00002D0
F00001E0
F00000F0
F00000F0
F00000F0
F00000F0
F00001E0
F00002D0
FAAAAF40
FFFFFE40
F00007D0
F00001E0
F00000B0
F00000B0
F00000B0
F00000B0
F00000B0
F00000F0
F00002E0
FAAAAF80
FFFFF900
ENDCHAR
STARTCHAR C
ENCODING 67
SWIDTH 542 0
DWIDTH 20 0
BBX 16 23 2 0
BITMAP
02FFFF80
0FEAABF0
2E0000B8
3800002C
7800002D
7800001D
7800001D
78000004
78000000
78000000
78000000
78000000
78000000
78000000
78000000
78000004
7800001D
7800001D
7800002D
3800002C
2D000078
0FEAABF0
02FFFF80
ENDCHAR
STARTCHAR D
ENCODING 68
SWIDTH 557 0
DWIDTH 20 0
BBX 15 23 3 0
BITMAP
FFFFFE00
FAAAAFC0
F00001E0
F00000B0
F00000B4
F0000074
F0000074
F0000074
F0000074
F0000074
F0000074
F0000074
F0000074
F0000074
F0000074
F0000074
F0000074
F0000074
F00000B4
F00000B0
F00001E0
FAAAAFC0
FFFFFE00
ENDCHAR
STARTCHAR E
ENCODING 69
SWIDTH 481 0
DWIDTH 17 0
BBX 12 23 3 0
BITMAP
FFFFFF
FAAAAA
F00000
F00000
F00000
F00000
F00000
F00000
F00000
F00000
FAAAA8
FFFFFC
F00000
F00000
F00000
F00000
F00000
F00000
F00000
F00000
F00000
FAAAAA
FFFFFF
ENDCHAR
STARTCHAR F
ENCODING 70
SWIDTH 459 0
DWIDTH 17 0
BBX 12 23 3 0
BITMAP
FFFFFF
FAAAAA
F00000
F00000
F00000
F00000
F00000
F00000
F00000
F00000
F00000
FFFFFC
FAAAA8
F00000
F00000
F00000
F00000
F00000
F00000
F00000
F00000
F00000
E00000
ENDCHAR
STARTCHAR G
ENCODING 71
SWIDTH 539 0
DWIDTH 19 0
BBX 15 23 2 0
BITMAP
02FFFE40
0FEAABD0
2E0001F0
38000078
78000078
78000038
78000038
78000010
78000000
78000000
78000000
7800AAA4
7800FFF8
78000038
78000038
78000038
78000038
78000038
78000078
38000078
2D0001F4
0FEAABD0
02FFFE40
ENDCHAR
STARTCHAR H
ENCODING 72
SWIDTH 570 0
DWIDTH 21 0
BBX 15 23 3 0
BITMAP
E0000074
F0000074
F0000074
F0000074
F0000074
F0000074
F0000074
F0000074
F0000074
F0000074
FAAAAAB4
FFFFFFF4
F0000074
F0000074
F0000074
F0000074
F0000074
F0000074
F0000074
F0000074
F0000074
F0000074
E0000074
ENDCHAR
STARTCHAR I
ENCODING 73
SWIDTH 230 0
DWIDTH 8 0
BBX 2 23 3 0
BITMAP
B0
B0
B0
B0
B0
B0
B0
B0
B0
B0
B0
B0
B0
B0
B0
B0
B0
B0
B0
B0
B0
B0
B0
ENDCHAR
STARTCHAR J
ENCODING 74
SWIDTH 499 0
DWIDTH 18 0
BBX 14 23 1 0
BITMAP
000000B0
000000B0
000000B0
000000B0
000000B0
000000B0
000000B0
000000B0
000000B0
000000B0
000000B0
000000B0
000000B0
000000B0
500000B0
B40000B0
B40000B0
B40000B0
B40000B0
780000F0
3D0002E0
1FAAAF80
06FFF900
ENDCHAR
STARTCHAR K
ENCODING 75
SWIDTH 530 0
DWIDTH 19 0
BBX 15 23 3 0
BITMAP
E00001F0
F00003D0
F0000B40
F0002E00
F0007C00
F000F400
F002D000
F00B8000
F01F0000
F03D0000
F0BC0000
F2FE0000
F78B4000
FF03C000
FC01E000
F400B400
F0003C00
F0001E00
F0000B40
F00003C0
F00001E0
F00000B4
E000003C
ENDCHAR
STARTCHAR L
ENCODING 76
SWIDTH 451 0
DWIDTH 16 0
BBX 13 23 3 0
BITMAP
E0000000
F0000000
F0000000
F0000000
F0000000
F0000000
F0000000
F0000000
F0000000
F0000000
F0000000
F0000000
F0000000
F0000000
F0000000
F0000000
F0000000
F0000000
F0000000
F0000000
F0000000
FAAAAA00
FFFFFF40
ENDCHAR
STARTCHAR M
ENCODING 77
SWIDTH 696 0
DWIDTH 25 0
BBX 19 23 3 0
BITMAP
F8000000BC
FD000001FC
FE000002FC
EB000003AC
E78000076C
E3C0000F2C
E1D0001E2C
E0E0002C2C
E0B400782C
E03800B42C
E02C00E02C
E01E01D02C
E00B03C02C
E00747402C
E0038B002C
E001DE002C
E000FC002C
E000B8002C
E00000002C
E00000002C
E00000002C
E00000002C
E00000002C
ENDCHAR
STARTCHAR N
ENCODING 78
SWIDTH 579 0
DWIDTH 21 0
BBX 15 23 3 0
BITMAP
F0000038
F8000038
FD000038
FE000038
FB400038
F7C00038
F2D00038
F0F00038
F0780038
F02D0038
F01E0038
F00B4038
F003C038
F001E038
F000B438
F0007838
F0002D38
F0000F38
F0000778
F00002F8
F00001F8
F00000B8
E0000038
ENDCHAR
STARTCHAR O
ENCODING 79
SWIDTH 553 0
DWIDTH 20 0
BBX 16 23 2 0
BITMAP
02FFFF80
0FEAABF0
2E0000B8
3800003C
7800002C
7800002D
7800002D
7800002D
7800002D
7800002D
7800002D
7800002D
7800002D
7800002D
7800002D
7800002D
7800002D
7800002D
7800002C
3800003C
2D0000B8
0FEAABF0
02FFFF80
ENDCHAR
STARTCHAR P
ENCODING 80
SWIDTH 524 0
DWIDTH 19 0
BBX 14 23 3 0
BITMAP
FFFFF900
FAAAAF40
F00007D0
F00001E0
F00000E0
F00000E0
F00000E0
F00000E0
F00000E0
F00000E0
F00001E0
F00002D0
F0000BC0
FFFFFF40
FAAAA400
F0000000
F0000000
F0000000
F0000000
F0000000
F0000000
F0000000
E0000000
ENDCHAR
STARTCHAR Q
ENCODING 81
SWIDTH 556 0
DWIDTH 20 0
BBX 16 28 2 -5
BITMAP
02FFFF80
0FEAABF0
2E0000B8
3C00003C
7800002D
7800002D
7800002D
7800002D
7800002D
7800002D
7800002D
7800002D
7800002D
7800002D
7800002D
7800002D
7800002D
7800002D
7800002D
3C00003C
2E0000B8
0FEAABF0
02FFFF80
00003800
00002D00
00000F00
00000780
000002C0
ENDCHAR
STARTCHAR R
ENCODING 82
SWIDTH 534 0
DWIDTH 19 0
BBX 14 23 3 0
BITMAP
FFFFF900
FAAAAF40
F00007C0
F00001D0
F00001E0
F00000E0
F00000E0
F00000E0
F00000E0
F00001E0
F00002D0
F0000BC0
FFFFFE00
FAAAF400
F000B400
F0007800
F0002D00
F0001E00
F0000B40
F0000780
F00002D0
F00001E0
E00000B0
ENDCHAR
STARTCHAR S
ENCODING 83
SWIDTH 562 0
DWIDTH 20 0
BBX 15 23 3 0
BITMAP
06FFFE00
2FAAAFC0
B80002E0
F00000F0
F00000B4
E00000B4
E0000050
E0000000
F4000000
7E000000
1FE90000
01BFF900
0005BF40
000007E0
000001F0
000000B4
A00000B4
E00000B4
F00000B4
F00000B0
B80002E0
2FAAAFC0
06FFFE00
ENDCHAR
STARTCHAR T
ENCODING 84
SWIDTH 420 0
DWIDTH 15 0
BBX 15 23 0 0
BITMAP
7FFFFFF4
6AABAAA4
00074000
00074000
00074000
00074000
00074000
00074000
00074000
00074000
00074000
00074000
00074000
00074000
00074000
00074000
00074000
00074000
00074000
00074000
00074000
00074000
00074000
ENDCHAR
STARTCHAR U
ENCODING 85
SWIDTH 552 0
DWIDTH 20 0
BBX 14 23 3 0
BITMAP
E00000B0
E00000B0
E00000B0
E00000B0
E00000B0
E00000B0
E00000B0
E00000B0
E00000B0
E00000B0
E00000B0
E00000B0
E00000B0
E00000B0
E00000B0
E00000B0
E00000B0
E00000B0
E00000F0
F00000E0
B80002D0
2FAAAF80
0BFFF900
ENDCHAR
STARTCHAR V
ENCODING 86
SWIDTH 500 0
DWIDTH 18 0
BBX 16 23 1 0
BITMAP
F000000F
B400001E
7800002D
3800002C
2C000038
1D000074
0E0000B0
0F0000F0
0B4001E0
078002D0
03C003C0
02D00780
01D00740
00E00B00
00B00E00
00741D00
00382C00
003C3800
002D7800
001EB400
000FF000
000BE000
0007D000
ENDCHAR
STARTCHAR W
ENCODING 87
SWIDTH 794 0
DWIDTH 29 0
BBX 27 23 1 0
BITMAP
B00000F40000B4
B40001F80000F4
780001FC0000F0
380002DD0001E0
3C00038E0001E0
2D00074E0002D0
1D000B4B0003C0
1E000B074003C0
0F000E03800780
0B001D02C00B40
0B402C02C00B40
07403C01D00F00
03803800E00E00
03C07400B01E00
02C0B000742D00
01D0E000742C00
01E1D000383C00
00E1D0002C3800
00B2C0001D7400
00B380000EB400
007B40000EB000
003F00000BE000
003F000007D000
ENDCHAR
STARTCHAR X
ENCODING 88
SWIDTH 504 0
DWIDTH 18 0
BBX 16 23 1 0
BITMAP
7800001D
2D00003C
1E0000B4
0B4001E0
03C002D0
01E00780
00B00F00
00782D00
002D3800
000FB400
0007E000
0007E000
000FB400
002D7800
00382D00
00B40F00
01E00B40
02C003C0
078001E0
0F0000F0
2D000078
3C00002D
B400001E
ENDCHAR
STARTCHAR Y
ENCODING 89
SWIDTH 493 0
DWIDTH 18 0
BBX 16 23 1 0
BITMAP
F000001E
B800002D
3C000078
2E0000B4
0F0001E0
0B4002D0
03C00780
02D00B40
00F01E00
00B42D00
003C7800
002DB400
000FE000
000BD000
00038000
00038000
00038000
00038000
00038000
00038000
00038000
00038000
00038000
ENDCHAR
STARTCHAR Z
ENCODING 90
SWIDTH 482 0
DWIDTH 17 0
BBX 15 23 1 0
BITMAP
3FFFFFF4
2AAAAAF4
000000F0
000002E0
000007C0
00000F40
00002E00
00007C00
0000B400
0001F000
0003D000
000B8000
001F0000
002D0000
00780000
00F40000
02E00000
07C00000
0B400000
1E000000
3D000000
7EAAAAA4
7FFFFFF8
ENDCHAR
STARTCHAR bracketleft
ENCODING 91
SWIDTH 287 0
DWIDTH 10 0
BBX 6 27 2 -4
BITMAP
BFE0
BA90
B000
B000
B000
B000
B000
B000
B000
B000
B000
B000
B000
B000
B000
B000
B000
B000
B000
B000
B000
B000
B000
B000
B000
BFE0
6A90
ENDCHAR
STARTCHAR backslash
ENCODING 92
SWIDTH 396 0
DWIDTH 14 0
BBX 10 23 2 0
BITMAP
B00000
740000
3C0000
2D0000
1E0000
0F0000
0B4000
078000
03C000
02D000
00E000
00B000
007400
003800
002D00
001E00
000F00
000B40
000780
0003C0
0002D0
0001E0
0000B0
ENDCHAR
STARTCHAR bracketright
ENCODING 93
SWIDTH 287 0
DWIDTH 10 0
BBX 6 27 2 -4
BITMAP
BFE0
6AE0
00E0
00E0
00E0
00E0
00E0
00E0
00E0
00E0
00E0
00E0
00E0
00E0
00E0
00E0
00E0
00E0
00E0
00E0
00E0
00E0
00E0
00E0
00E0
BFE0
6A90
ENDCHAR
STARTCHAR asciicircum
ENCODING 94
SWIDTH 465 0
DWIDTH 17 0
BBX 13 10 2 13
BITMAP
003E0000
00BB4000
01E3C000
02C1D000
0780F000
0B007800
1E002C00
2C001E00
74000B00
A0000780
ENDCHAR
STARTCHAR underscore
ENCODING 95
SWIDTH 372 0
DWIDTH 13 0
BBX 14 2 0 -3
BITMAP
AAAAAA90
FFFFFFD0
ENDCHAR
STARTCHAR grave
ENCODING 96
SWIDTH 269 0
DWIDTH 10 0
BBX 5 5 2 20
BITMAP
7C00
2E00
0B40
02C0
0040
ENDCHAR
STARTCHAR a
ENCODING 97
SWIDTH 502 0
DWIDTH 18 0
BBX 14 18 2 0
BITMAP
06FFFFD0
1FAAAAD0
3D0001D0
740001D0
B40001D0
B00001D0
B00001D0
B00001D0
B00001D0
B00001D0
B00001D0
B00001D0
B00001D0
B40002D0
740002D0
3D000BD0
1FAABED0
06FFE5D0
ENDCHAR
STARTCHAR b
ENCODING 98
SWIDTH 504 0
DWIDTH 18 0
BBX 14 25 2 0
BITMAP
74000000
78000000
78000000
78000000
78000000
78000000
78000000
78BFF900
7BEAAF80
7E0003D0
780001E0
780000E0
780000E0
780000E0
780000E0
780000E0
780000E0
780000E0
780000E0
780000E0
780000E0
780001E0
780003D0
7AAAAF80
7FFFF900
ENDCHAR
STARTCHAR c
ENCODING 99
SWIDTH 394 0
DWIDTH 14 0
BBX 11 18 2 0
BITMAP
06FFFC
1FAAA8
3D0000
740000
B40000
B00000
B00000
B00000
B00000
B00000
B00000
B00000
B00000
B40000
740000
3D0000
1FAAA8
06FFFC
ENDCHAR
STARTCHAR d
ENCODING 100
SWIDTH 504 0
DWIDTH 18 0
BBX 14 25 2 0
BITMAP
000001D0
000001D0
000001D0
000001D0
000001D0
000001D0
000001D0
06FFE5D0
1FAABED0
3D0007D0
740002D0
B40001D0
B00001D0
B00001D0
B00001D0
B00001D0
B00001D0
B00001D0
B00001D0
B00001D0
B40001D0
740002D0
3D0007D0
1FAABED0
06FFE5D0
ENDCHAR
STARTCHAR e
ENCODING 101
SWIDTH 492 0
DWIDTH 18 0
BBX 14 18 2 0
BITMAP
06FFF900
1FAAAF40
3D0007C0
740002D0
B40001E0
B00001E0
B00001E0
B00001E0
BAAAAAE0
BFFFFFE0
B0000000
B0000000
B0000000
B4000000
74000000
3D000000
1FAAAA80
06FFFFD0
ENDCHAR
STARTCHAR f
ENCODING 102
SWIDTH 303 0
DWIDTH 11 0
BBX 9 25 1 0
BITMAP
001FC0
00BE80
01E000
02D000
02D000
02C000
02D000
BFFFC0
6BEA80
02C000
02C000
02C000
02C000
02C000
02C000
02C000
02C000
02C000
02C000
02C000
02C000
02C000
02C000
02C000
02C000
ENDCHAR
STARTCHAR g
ENCODING 103
SWIDTH 506 0
DWIDTH 18 0
BBX 14 23 2 -5
BITMAP
06FFFFE0
1FAAAAE0
3D0001E0
780001E0
740001E0
B40001E0
B40001E0
B40001E0
B40001E0
B40001E0
B40001E0
B40001E0
740001E0
780002E0
3D0007E0
1FAABEE0
06FFE5E0
000001E0
000001E0
000002D0
000007C0
1AAAAF40
1FFFF900
ENDCHAR
STARTCHAR h
ENCODING 104
SWIDTH 507 0
DWIDTH 18 0
BBX 14 25 2 0
BITMAP
74000000
78000000
78000000
78000000
78000000
78000000
78000000
78BFF900
7BEAAF40
7E0007D0
7C0001E0
780000E0
780000E0
780000E0
780000E0
780000E0
780000E0
780000E0
780000E0
780000E0
780000E0
780000E0
780000E0
780000E0
740000E0
ENDCHAR
STARTCHAR i
ENCODING 105
SWIDTH 210 0
DWIDTH 8 0
BBX 2 25 3 0
BITMAP
E0
E0
E0
E0
00
00
00
E0
E0
E0
E0
E0
E0
E0
E0
E0
E0
E0
E0
E0
E0
E0
E0
E0
E0
ENDCHAR
STARTCHAR j
ENCODING 106
SWIDTH 210 0
DWIDTH 8 0
BBX 7 30 -2 -5
BITMAP
0038
0038
0038
0038
0000
0000
0000
0038
0038
0038
0038
0038
0038
0038
0038
0038
0038
0038
0038
0038
0038
0038
0038
0038
0038
0078
0074
01F0
6BD0
FE40
ENDCHAR
STARTCHAR k
ENCODING 107
SWIDTH 431 0
DWIDTH 16 0
BBX 13 25 2 0
BITMAP
74000000
78000000
78000000
78000000
78000000
78000000
78000000
78000B40
78001E00
78003C00
7800B400
7801E000
7803C000
780B4000
781E0000
783C0000
782D0000
780F0000
78078000
7802D000
7800F000
78007800
78002E00
78000F40
740007C0
ENDCHAR
STARTCHAR l
ENCODING 108
SWIDTH 210 0
DWIDTH 8 0
BBX 2 25 3 0
BITMAP
E0
E0
E0
E0
E0
E0
E0
E0
E0
E0
E0
E0
E0
E0
E0
E0
E0
E0
E0
E0
E0
E0
E0
E0
E0
ENDCHAR
STARTCHAR m
ENCODING 109
SWIDTH 769 0
DWIDTH 28 0
BBX 23 18 2 0
BITMAP
74BFE406FF80
7BEABE2EABF0
7E000FB400B8
7C0007D0003C
780003C0002C
780003C0002C
780003C0002C
780003C0002C
780003C0002C
780003C0002C
780003C0002C
780003C0002C
780003C0002C
780003C0002C
780003C0002C
780003C0002C
780003C0002C
740003C0002C
ENDCHAR
STARTCHAR n
ENCODING 110
SWIDTH 507 0
DWIDTH 18 0
BBX 14 18 2 0
BITMAP
74BFF900
7BEAAF40
7E0007D0
7C0001E0
780000E0
780000E0
780000E0
780000E0
780000E0
780000E0
780000E0
780000E0
780000E0
780000E0
780000E0
780000E0
780000E0
740000E0
ENDCHAR
STARTCHAR o
ENCODING 111
SWIDTH 496 0
DWIDTH 18 0
BBX 14 18 2 0
BITMAP
06FFF900
1FAAAF40
3D0007C0
740002D0
B40001E0
B00001E0
B00001E0
B00001E0
B00001E0
B00001E0
B00001E0
B00001E0
B00001E0
B40001E0
740002D0
3D0007C0
1FAAAF40
06FFF900
ENDCHAR
STARTCHAR p
ENCODING 112
SWIDTH 504 0
DWIDTH 18 0
BBX 14 23 2 -5
BITMAP
74BFF900
7BEAAF80
7E0003D0
7C0001E0
780000E0
780000E0
780000E0
780000E0
780000E0
780000E0
780000E0
780000E0
780000E0
780000E0
780001E0
7E0003D0
7BEAAF80
78BFF900
78000000
78000000
78000000
78000000
74000000
ENDCHAR
STARTCHAR q
ENCODING 113
SWIDTH 502 0
DWIDTH 18 0
BBX 14 23 2 -5
BITMAP
06FFFFD0
1FAAAAD0
3D0001D0
740001D0
B40001D0
B00001D0
B00001D0
B00001D0
B00001D0
B00001D0
B00001D0
B00001D0
B00001D0
B40002D0
740002D0
3D000BD0
1FAABED0
06FFE5D0
000001D0
000001D0
000001D0
000001D0
000001D0
ENDCHAR
STARTCHAR r
ENCODING 114
SWIDTH 313 0
DWIDTH 11 0
BBX 9 18 2 0
BITMAP
74BF40
7AEA00
7E0000
7C0000
780000
780000
780000
780000
780000
780000
780000
780000
780000
780000
780000
780000
780000
740000
ENDCHAR
STARTCHAR s
ENCODING 115
SWIDTH 431 0
DWIDTH 16 0
BBX 12 18 2 0
BITMAP
1BFFF8
7EAAA4
F40000
E00000
E00000
F00000
B90000
2F9000
02FE40
001BE0
0000BC
00002D
00001D
00001E
00001E
00003D
AAAAF8
FFFF90
ENDCHAR
STARTCHAR t
ENCODING 116
SWIDTH 347 0
DWIDTH 12 0
BBX 10 22 1 0
BITMAP
014000
078000
078000
078000
FFFFE0
ABEA90
078000
078000
078000
078000
078000
078000
078000
078000
078000
078000
078000
038000
03C000
02E000
00BEA0
001BF0
ENDCHAR
STARTCHAR u
ENCODING 117
SWIDTH 507 0
DWIDTH 18 0
BBX 14 18 2 0
BITMAP
740001E0
740001E0
740001E0
740001E0
740001E0
740001E0
740001E0
740001E0
740001E0
740001E0
740001E0
740001E0
740001E0
740001E0
780002E0
3D0007E0
1FAABEE0
06FFE5E0
ENDCHAR
STARTCHAR v
ENCODING 118
SWIDTH 416 0
DWIDTH 15 0
BBX 14 18 0 0
BITMAP
780000B0
3C0000F0
2D0001E0
1E0002D0
0F0003C0
0B000780
07400B40
03800B00
02C00E00
01D01D00
00E02C00
00B03800
00747400
0038B000
002CE000
002ED000
001FC000
000B8000
ENDCHAR
STARTCHAR w
ENCODING 119
SWIDTH 683 0
DWIDTH 25 0
BBX 24 18 0 0
BITMAP
780002D0000E
3C0003E0001D
2D0007F0002D
1E000BB0003C
0E000E740078
0B000D3800B4
07401D2C00B0
07802C1D00E0
03C0380D01D0
02C0740E02C0
01D0700B03C0
00E0B0074780
00B0E0038740
0075D0028B00
003AC001CE00
002F8001ED00
002F4000FC00
001F4000B800
ENDCHAR
STARTCHAR x
ENCODING 120
SWIDTH 413 0
DWIDTH 15 0
BBX 13 18 1 0
BITMAP
B4000B40
7C000F00
2D002D00
0F007800
0780B400
02C1E000
01E2C000
00BB4000
003F0000
003F0000
00B78000
01E2D000
03C0E000
0B40B400
1F003C00
2D001E00
78000B40
F00007C0
ENDCHAR
STARTCHAR y
ENCODING 121
SWIDTH 459 0
DWIDTH 17 0
BBX 15 23 1 -5
BITMAP
F0000074
B40000B0
780000E0
3C0001D0
1D0002C0
0E000380
0B000B40
07400F00
03801E00
02C02D00
01D03C00
00F07800
00B4B400
0078F000
003DE000
002FC000
000B8000
00074000
000B0000
001E0000
007C0000
2AF40000
3F900000
ENDCHAR
STARTCHAR z
ENCODING 122
SWIDTH 405 0
DWIDTH 15 0
BBX 13 18 1 0
BITMAP
7FFFFF00
6AAAAF00
00002D00
00007800
0000F400
0002E000
0007C000
000F4000
002E0000
007C0000
00B40000
01E00000
03C00000
0B400000
1E000000
3D000000
BEAAAA40
BFFFFF40
ENDCHAR
STARTCHAR braceleft
ENCODING 123
SWIDTH 298 0
DWIDTH 11 0
BBX 8 27 1 -4
BITMAP
006E
00F9
02D0
0380
0380
0380
0380
0380
0380
0380
0340
0740
6E00
BD00
0B00
0740
0380
0380
0380
0380
0380
0380
0380
02C0
01E0
00BE
0019
ENDCHAR
STARTCHAR bar
ENCODING 124
SWIDTH 207 0
DWIDTH 7 0
BBX 2 23 3 0
BITMAP
D0
D0
D0
D0
D0
D0
D0
D0
D0
D0
D0
D0
D0
D0
D0
D0
D0
D0
D0
D0
D0
D0
D0
ENDCHAR
STARTCHAR braceright
ENCODING 125
SWIDTH 298 0
DWIDTH 11 0
BBX 8 27 1 -4
BITMAP
B900
6F00
0780
0280
02C0
02C0
02C0
02C0
02C0
02C0
02C0
01D0
00B9
007E
01E0
02C0
02C0
02C0
02C0
02C0
02C0
02C0
02C0
0380
0B40
BE00
6400
ENDCHAR
STARTCHAR asciitilde
ENCODING 126
SWIDTH 523 0
DWIDTH 19 0
BBX 15 3 2 10
BITMAP
06940010
7FFFEAF4
6406BF90
ENDCHAR
STARTCHAR uni00A0
ENCODING 160
SWIDTH 267 0
DWIDTH 10 0
BBX 1 1 0 0
BITMAP
00
ENDCHAR
STARTCHAR exclamdown
ENCODING 161
SWIDTH 237 0
DWIDTH 9 0
BBX 3 23 3 0
BITMAP
B4
B4
B4
B4
B4
00
00
00
60
70
B0
B0
B0
B0
B4
B4
B4
B4
B4
B4
B4
B4
B4
ENDCHAR
STARTCHAR cent
ENCODING 162
SWIDTH 414 0
DWIDTH 15 0
BBX 12 25 2 -3
BITMAP
000500
000B00
000B00
000B00
06FFFE
1FAAA9
3D0000
740000
B40000
B00000
B00000
B00000
B00000
B00000
B00000
B00000
B00000
B40000
740000
3D0000
1FAAA9
06FFFE
000B00
000B00
000700
ENDCHAR
STARTCHAR sterling
ENCODING 163
SWIDTH 528 0
DWIDTH 19 0
BBX 16 23 1 0
BITMAP
001BFF80
00BEAAF4
02E00078
03C0002D
0380002D
0380001D
03800019
03800000
03800000
03800000
03800000
03800000
BFFFFC00
6BEAA800
03800000
03800000
03800000
03800000
03800000
03800000
0B400000
6FAAAAA9
BFFFFFFD
ENDCHAR
STARTCHAR yen
ENCODING 165
SWIDTH 499 0
DWIDTH 18 0
BBX 16 23 1 0
BITMAP
F000001E
7800002D
3C00007C
1E0000B4
0F0000F0
078002D0
03C003C0
02D00B40
00F00F00
00B41E00
007C3D00
BFFD7FFE
155FF554
0007D000
0003C000
6AABEAA9
BFFFFFFE
0003C000
0003C000
0003C000
0003C000
0003C000
00038000
ENDCHAR
STARTCHAR brokenbar
ENCODING 166
SWIDTH 201 0
DWIDTH 7 0
BBX 3 23 2 0
BITMAP
34
74
74
74
74
74
74
74
34
00
00
00
00
00
34
74
74
74
74
74
74
74
34
ENDCHAR
STARTCHAR section
ENCODING 167
SWIDTH 454 0
DWIDTH 16 0
BBX 13 23 2 0
BITMAP
0BFFFC00
3FAAA800
B8000000
B0000000
F0000000
F0000000
F8000000
FFA50000
F6FFE400
F016FD00
F0001F00
B0000B00
78000B40
2E500B40
06FF9B40
0016FF40
00001F40
00000B40
00000B00
00000F00
00001E00
6AAABD00
BFFFE000
ENDCHAR
STARTCHAR dieresis
ENCODING 168
SWIDTH 345 0
DWIDTH 12 0
BBX 8 5 2 20
BITMAP
B00B
B00B
B00B
B00B
B00B
ENDCHAR
STARTCHAR copyright
ENCODING 169
SWIDTH 723 0
DWIDTH 26 0
BBX 22 23 2 0
BITMAP
06FFFFFFF900
1FAAAAAAAF40
3D00000007C0
7400000001D0
7000000000D0
7001BFE400D0
7007EABC00D0
700B001E00D0
700E000A00D0
700E000A00D0
700E000000D0
700E000000D0
700E000000D0
700E000600D0
700E000A00D0
700A000E00D0
7007802D00D0
7001FFF400D0
7000050000D0
7400000001D0
3D00000007C0
1FAAAAAAAF40
06FFFFFFF900
ENDCHAR
STARTCHAR guillemotleft
ENCODING 171
SWIDTH 431 0
DWIDTH 16 0
BBX 12 12 2 3
BITMAP
00300D
00E038
0780E0
1E0380
780E00
A02C00
B41D00
2D0B40
0B42D0
02D0B4
00B02C
002008
ENDCHAR
STARTCHAR registered
ENCODING 174
SWIDTH 439 0
DWIDTH 16 0
BBX 12 12 2 13
BITMAP
0BFFE0
2EAAB8
70FE1C
A0EB0D
90C309
90C309
90FE09
A0C609
60820D
78002C
2FFFF4
06AA40
ENDCHAR
STARTCHAR macron
ENCODING 175
SWIDTH 358 0
DWIDTH 13 0
BBX 9 2 2 21
BITMAP
BFFF40
6AAA40
ENDCHAR
STARTCHAR degree
ENCODING 176
SWIDTH 298 0
DWIDTH 11 0
BBX 6 8 2 17
BITMAP
2FD0
3AE0
7070
7070
7070
7470
3FE0
1A80
ENDCHAR
STARTCHAR plusminus
ENCODING 177
SWIDTH 523 0
DWIDTH 19 0
BBX 15 14 2 4
BITMAP
00074000
00074000
00074000
00074000
7FFFFFF4
6AABAAA0
00074000
00074000
00074000
00074000
00000000
00000000
7FFFFFF4
6AAAAAA0
ENDCHAR
STARTCHAR acute
ENCODING 180
SWIDTH 269 0
DWIDTH 10 0
BBX 5 5 2 20
BITMAP
07C0
0F40
2D00
7800
5000
ENDCHAR
STARTCHAR paragraph
ENCODING 182
SWIDTH 513 0
DWIDTH 18 0
BBX 15 23 1 0
BITMAP
06FFFFF4
1FFEAAB4
3FF80074
3FF80074
7FF80074
7FF80074
7FF80074
7FF80074
3FF80074
2FF80074
0FF80074
01780074
00380074
00380074
00380074
00380074
00380074
00380074
00380074
00380074
00380074
00380074
00280074
ENDCHAR
STARTCHAR periodcentered
ENCODING 183
SWIDTH 207 0
DWIDTH 7 0
BBX 3 5 2 9
BITMAP
78
78
78
78
78
ENDCHAR
STARTCHAR cedilla
ENCODING 184
SWIDTH 257 0
DWIDTH 9 0
BBX 5 7 2 -6
BITMAP
0A00
2800
BE00
1680
0180
6B80
7E00
ENDCHAR
STARTCHAR guillemotright
ENCODING 187
SWIDTH 431 0
DWIDTH 16 0
BBX 11 12 2 3
BITMAP
902800
781E00
1E0780
0781E0
01E078
00701C
00B02C
02D0B4
0B42D0
2D0B40
B41D00
901400
ENDCHAR
STARTCHAR questiondown
ENCODING 191
SWIDTH 473 0
DWIDTH 17 0
BBX 13 23 2 0
BITMAP
002D0000
002D0000
002D0000
002D0000
002D0000
00000000
00000000
00180000
002C0000
002C0000
002C0000
00780000
02E00000
0B800000
2E000000
38000000
74000740
74000740
74000740
78000B40
3D001F00
1FAABD00
02FFE000
ENDCHAR
STARTCHAR Agrave
ENCODING 192
SWIDTH 532 0
DWIDTH 19 0
BBX 17 30 1 0
BITMAP
0064000000
007C000000
001E000000
000B400000
0002C00000
0000000000
0000000000
0002F00000
0003F40000
0007B80000
000B3C0000
000E2D0000
001D1E0000
002C0F0000
00380B4000
0078078000
00B403C000
00F002D000
01E001E000
02D000F000
03C000B400
0780007400
0BAAAAB800
0FFFFFFC00
1E00002D00
2D00001E00
3C00000F00
7800000740
B400000380
F0000002C0
ENDCHAR
STARTCHAR Aacute
ENCODING 193
SWIDTH 532 0
DWIDTH 19 0
BBX 17 30 1 0
BITMAP
0000054000
00000F4000
00002E0000
0000780000
0000A00000
0000000000
0000000000
0002F00000
0003F40000
0007B80000
000B3C0000
000E2D0000
001D1E0000
002C0F0000
00380B4000
0078078000
00B403C000
00F002D000
01E001E000
02D000F000
03C000B400
0780007400
0BAAAAB800
0FFFFFFC00
1E00002D00
2D00001E00
3C00000F00
7800000740
B400000380
F0000002C0
ENDCHAR
STARTCHAR Acircumflex
ENCODING 194
SWIDTH 532 0
DWIDTH 19 0
BBX 17 30 1 0
BITMAP
0001500000
0003B00000
000B280000
000D1D0000
00280B0000
0000000000
0000000000
0002F00000
0003F40000
0007B80000
000B3C0000
000E2D0000
001D1E0000
002C0F0000
00380B4000
0078078000
00B403C000
00F002D000
01E001E000
02D000F000
03C000B400
0780007400
0BAAAAB800
0FFFFFFC00
1E00002D00
2D00001E00
3C00000F00
7800000740
B400000380
F0000002C0
ENDCHAR
STARTCHAR Atilde
ENCODING 195
SWIDTH 532 0
DWIDTH 19 0
BBX 17 30 1 0
BITMAP
0010190000
00707F0000
0070D34000
0031C24000
002F424000
0000000000
0000000000
0002F00000
0003F40000
0007B80000
000B3C0000
000E2D0000
001D1E0000
002C0F0000
00380B4000
0078078000
00B403C000
00F002D000
01E001E000
02D000F000
03C000B400
0780007400
0BAAAAB800
0FFFFFFC00
1E00002D00
2D00001E00
3C00000F00
7800000740
B400000380
F0000002C0
ENDCHAR
STARTCHAR Adieresis
ENCODING 196
SWIDTH 532 0
DWIDTH 19 0
BBX 17 30 1 0
BITMAP
0074074000
0078074000
0078074000
0078074000
0074074000
0000000000
0000000000
0002F00000
0003F40000
0007B80000
000B3C0000
000E2D0000
001D1E0000
002C0F0000
00380B4000
0078078000
00B403C000
00F002D000
01E001E000
02D000F000
03C000B400
0780007400
0BAAAAB800
0FFFFFFC00
1E00002D00
2D00001E00
3C00000F00
7800000740
B400000380
F0000002C0
ENDCHAR
STARTCHAR Aring
ENCODING 197
SWIDTH 532 0
DWIDTH 19 0
BBX 17 31 1 0
BITMAP
0007F40000
000EAD0000
001C090000
00180A0000
00180A0000
001D1D0000
000FFC0000
0001900000
0002F00000
0003F40000
0007B80000
000B3C0000
000E2D0000
001D1E0000
002C0F0000
00380B4000
0078078000
00B403C000
00F002D000
01E001E000
02D000F000
03C000B400
0780007400
0BAAAAB800
0FFFFFFC00
1E00002D00
2D00001E00
3C00000F00
7800000740
B400000380
F0000002C0
ENDCHAR
STARTCHAR AE
ENCODING 198
SWIDTH 773 0
DWIDTH 28 0
BBX 26 23 0 0
BITMAP
000000BFFFFFD0
000001FEAAAA90
000003ED000000
0000079D000000
00000F1D000000
00002E1D000000
00003C1D000000
0000B41D000000
0001F01D000000
0002D01D000000
0007801EAAAA40
000B401FFFFF40
001E001D000000
003D001D000000
0078001D000000
00FAAAAD000000
02FFFFFD000000
03C0001D000000
0B40001D000000
1F00001D000000
2D00001D000000
7800001EAAAA90
B000001FFFFFD0
ENDCHAR
STARTCHAR Ccedilla
ENCODING 199
SWIDTH 542 0
DWIDTH 20 0
BBX 16 30 2 -7
BITMAP
02FFFF80
0FEAABF0
2E0000B8
3800002C
7800002D
7800001D
7800001D
78000004
78000000
78000000
78000000
78000000
78000000
78000000
78000000
78000004
7800001D
7800001D
7800002D
3800002C
2D000078
0FEAABF0
02FFFF80
0001C000
00074000
0006F400
00002800
00002800
0007F400
00069000
ENDCHAR
STARTCHAR Egrave
ENCODING 200
SWIDTH 481 0
DWIDTH 17 0
BBX 12 30 3 0
BITMAP
054000
07C000
01E000
00B400
002800
000000
000000
FFFFFF
FAAAAA
F00000
F00000
F00000
F00000
F00000
F00000
F00000
F00000
FAAAA8
FFFFFC
F00000
F00000
F00000
F00000
F00000
F00000
F00000
F00000
F00000
FAAAAA
FFFFFF
ENDCHAR
STARTCHAR Eacute
ENCODING 201
SWIDTH 481 0
DWIDTH 17 0
BBX 12 30 3 0
BITMAP
000150
0003D0
000B80
001E00
002800
000000
000000
FFFFFF
FAAAAA
F00000
F00000
F00000
F00000
F00000
F00000
F00000
F00000
FAAAA8
FFFFFC
F00000
F00000
F00000
F00000
F00000
F00000
F00000
F00000
F00000
FAAAAA
FFFFFF
ENDCHAR
STARTCHAR Ecircumflex
ENCODING 202
SWIDTH 481 0
DWIDTH 17 0
BBX 12 30 3 0
BITMAP
001400
00BD00
00D700
028280
0741D0
000000
000000
FFFFFF
FAAAAA
F00000
F00000
F00000
F00000
F00000
F00000
F00000
F00000
FAAAA8
FFFFFC
F00000
F00000
F00000
F00000
F00000
F00000
F00000
F00000
F00000
FAAAAA
FFFFFF
ENDCHAR
STARTCHAR Edieresis
ENCODING 203
SWIDTH 481 0
DWIDTH 17 0
BBX 12 30 3 0
BITMAP
0B00E0
0B00E0
0B00E0
0B00E0
0B00E0
000000
000000
FFFFFF
FAAAAA
F00000
F00000
F00000
F00000
F00000
F00000
F00000
F00000
FAAAA8
FFFFFC
F00000
F00000
F00000
F00000
F00000
F00000
F00000
F00000
F00000
FAAAAA
FFFFFF
ENDCHAR
STARTCHAR Igrave
ENCODING 204
SWIDTH 230 0
DWIDTH 8 0
BBX 5 30 0 0
BITMAP
5000
7800
2D00
0B00
0380
0000
0000
02C0
02C0
02C0
02C0
02C0
02C0
02C0
02C0
02C0
02C0
02C0
02C0
02C0
02C0
02C0
02C0
02C0
02C0
02C0
02C0
02C0
02C0
02C0
ENDCHAR
STARTCHAR Iacute
ENCODING 205
SWIDTH 231 0
DWIDTH 8 0
BBX 5 30 3 0
BITMAP
0180
0B80
0F00
2C00
7400
0000
0000
B000
B000
B000
B000
B000
B000
B000
B000
B000
B000
B000
B000
B000
B000
B000
B000
B000
B000
B000
B000
B000
B000
B000
ENDCHAR
STARTCHAR Icircumflex
ENCODING 206
SWIDTH 229 0
DWIDTH 8 0
BBX 7 30 1 0
BITMAP
0500
1F80
39D0
B0B0
D034
0000
0000
0B00
0B00
0B00
0B00
0B00
0B00
0B00
0B00
0B00
0B00
0B00
0B00
0B00
0B00
0B00
0B00
0B00
0B00
0B00
0B00
0B00
0B00
0B00
ENDCHAR
STARTCHAR Idieresis
ENCODING 207
SWIDTH 230 0
DWIDTH 8 0
BBX 8 30 0 0
BITMAP
B00B
B00B
B00B
B00B
B00B
0000
0000
02C0
02C0
02C0
02C0
02C0
02C0
02C0
02C0
02C0
02C0
02C0
02C0
02C0
02C0
02C0
02C0
02C0
02C0
02C0
02C0
02C0
02C0
02C0
ENDCHAR
STARTCHAR Eth
ENCODING 208
SWIDTH 514 0
DWIDTH 19 0
BBX 17 23 1 0
BITMAP
0BFFFFE000
0BAAAABD00
0B00001F00
0B00000B40
0B00000740
0B00000740
0B00000740
0B00000740
0B00000740
0B00000740
0F00000740
FFFFF00740
AFAAA00740
0B00000740
0B00000740
0B00000740
0B00000740
0B00000740
0B00000740
0B00000B40
0B00001F00
0BAAAABD00
0BFFFFE000
ENDCHAR
STARTCHAR Ntilde
ENCODING 209
SWIDTH 579 0
DWIDTH 21 0
BBX 15 30 3 0
BITMAP
01406400
0182FC00
01834D00
01CB0D00
00FD0900
00640400
00000000
F0000038
F8000038
FD000038
FE000038
FB400038
F7C00038
F2D00038
F0F00038
F0780038
F02D0038
F01E0038
F00B4038
F003C038
F001E038
F000B438
F0007838
F0002D38
F0000F38
F0000778
F00002F8
F00001F8
F00000B8
E0000038
ENDCHAR
STARTCHAR Ograve
ENCODING 210
SWIDTH 553 0
DWIDTH 20 0
BBX 16 30 2 0
BITMAP
00500000
00B80000
002D0000
000B0000
00038000
00000000
00000000
02FFFF80
0FEAABF0
2E0000B8
3800003C
7800002C
7800002D
7800002D
7800002D
7800002D
7800002D
7800002D
7800002D
7800002D
7800002D
7800002D
7800002D
7800002D
7800002D
7800002C
3800003C
2D0000B8
0FEAABF0
02FFFF80
ENDCHAR
STARTCHAR Oacute
ENCODING 211
SWIDTH 553 0
DWIDTH 20 0
BBX 16 30 2 0
BITMAP
00001500
00003D00
0000B400
0001E000
00028000
00000000
00000000
02FFFF80
0FEAABF0
2E0000B8
3800003C
7800002C
7800002D
7800002D
7800002D
7800002D
7800002D
7800002D
7800002D
7800002D
7800002D
7800002D
7800002D
7800002D
7800002D
7800002C
3800003C
2D0000B8
0FEAABF0
02FFFF80
ENDCHAR
STARTCHAR Ocircumflex
ENCODING 212
SWIDTH 553 0
DWIDTH 20 0
BBX 16 30 2 0
BITMAP
00014000
000BD000
001D7000
00283800
00741D00
00000000
00000000
02FFFF80
0FEAABF0
2E0000B8
3800003C
7800002C
7800002D
7800002D
7800002D
7800002D
7800002D
7800002D
7800002D
7800002D
7800002D
7800002D
7800002D
7800002D
7800002D
7800002C
3800003C
2D0000B8
0FEAABF0
02FFFF80
ENDCHAR
STARTCHAR Otilde
ENCODING 213
SWIDTH 553 0
DWIDTH 20 0
BBX 16 30 2 0
BITMAP
00806400
00D0FD00
00D2CA00
00D34600
00BF0600
00190100
00000000
02FFFF80
0FEAABF0
2E0000B8
3800003C
7800002C
7800002D
7800002D
7800002D
7800002D
7800002D
7800002D
7800002D
7800002D
7800002D
7800002D
7800002D
7800002D
7800002D
7800002C
3800003C
2D0000B8
0FEAABF0
02FFFF80
ENDCHAR
STARTCHAR Odieresis
ENCODING 214
SWIDTH 553 0
DWIDTH 20 0
BBX 16 30 2 0
BITMAP
00F00E00
00F00E00
00F00E00
00F00E00
00B00E00
00000000
00000000
02FFFF80
0FEAABF0
2E0000B8
3800003C
7800002C
7800002D
7800002D
7800002D
7800002D
7800002D
7800002D
7800002D
7800002D
7800002D
7800002D
7800002D
7800002D
7800002D
7800002C
3800003C
2D0000B8
0FEAABF0
02FFFF80
ENDCHAR
STARTCHAR multiply
ENCODING 215
SWIDTH 493 0
DWIDTH 18 0
BBX 11 11 3 6
BITMAP
740018
7D007C
1F41F0
07D7C0
01FF00
00BD00
01FF40
07C7D0
1F01F4
7C007C
200018
ENDCHAR
STARTCHAR Oslash
ENCODING 216
SWIDTH 559 0
DWIDTH 20 0
BBX 17 23 2 0
BITMAP
02FFFF8100
0FEAAAE740
2E00007E00
3C00003C00
780000BD00
780001ED00
7800079D00
78000F1D00
78002D1D00
7800741D00
7800E01D00
7802C01D00
7807401D00
781E001D00
7838001D00
78B0001D00
79D0001D00
7B80001D00
7E00002D00
3D00002C00
7E00007800
EFEAABF000
82FFFF8000
ENDCHAR
STARTCHAR Ugrave
ENCODING 217
SWIDTH 552 0
DWIDTH 20 0
BBX 14 30 3 0
BITMAP
01500000
01F00000
00B80000
002D0000
000A0000
00000000
00000000
E00000B0
E00000B0
E00000B0
E00000B0
E00000B0
E00000B0
E00000B0
E00000B0
E00000B0
E00000B0
E00000B0
E00000B0
E00000B0
E00000B0
E00000B0
E00000B0
E00000B0
E00000B0
E00000F0
F00000E0
B80002D0
2FAAAF80
0BFFF900
ENDCHAR
STARTCHAR Uacute
ENCODING 218
SWIDTH 552 0
DWIDTH 20 0
BBX 14 30 3 0
BITMAP
00005400
0000F400
0002E000
00078000
000A0000
00000000
00000000
E00000B0
E00000B0
E00000B0
E00000B0
E00000B0
E00000B0
E00000B0
E00000B0
E00000B0
E00000B0
E00000B0
E00000B0
E00000B0
E00000B0
E00000B0
E00000B0
E00000B0
E00000B0
E00000F0
F00000E0
B80002D0
2FAAAF80
0BFFF900
ENDCHAR
STARTCHAR Ucircumflex
ENCODING 219
SWIDTH 552 0
DWIDTH 20 0
BBX 14 30 3 0
BITMAP
00050000
002F4000
0075C000
00A0E000
01D07400
00000000
00000000
E00000B0
E00000B0
E00000B0
E00000B0
E00000B0
E00000B0
E00000B0
E00000B0
E00000B0
E00000B0
E00000B0
E00000B0
E00000B0
E00000B0
E00000B0
E00000B0
E00000B0
E00000B0
E00000F0
F00000E0
B80002D0
2FAAAF80
0BFFF900
ENDCHAR
STARTCHAR Udieresis
ENCODING 220
SWIDTH 552 0
DWIDTH 20 0
BBX 14 30 3 0
BITMAP
03C03800
03C03800
03C03800
03C03800
02C03800
00000000
00000000
E00000B0
E00000B0
E00000B0
E00000B0
E00000B0
E00000B0
E00000B0
E00000B0
E00000B0
E00000B0
E00000B0
E00000B0
E00000B0
E00000B0
E00000B0
E00000B0
E00000B0
E00000B0
E00000F0
F00000E0
B80002D0
2FAAAF80
0BFFF900
ENDCHAR
STARTCHAR Yacute
ENCODING 221
SWIDTH 493 0
DWIDTH 18 0
BBX 16 30 1 0
BITMAP
00001500
00003D00
0000B800
0001E000
00028000
00000000
00000000
F000001E
B800002D
3C000078
2E0000B4
0F0001E0
0B4002D0
03C00780
02D00B40
00F01E00
00B42D00
003C7800
002DB400
000FE000
000BD000
00038000
00038000
00038000
00038000
00038000
00038000
00038000
00038000
00038000
ENDCHAR
STARTCHAR Thorn
ENCODING 222
SWIDTH 501 0
DWIDTH 18 0
BBX 12 23 4 0
BITMAP
B00000
F00000
F00000
F00000
F00000
FFFF90
FAAAF4
F0007C
F0002D
F0001D
F0001E
F0001E
F0001E
F0001E
F0001D
F0002D
F001B8
FFFFE0
FAAA40
F00000
F00000
F00000
B00000
ENDCHAR
STARTCHAR germandbls
ENCODING 223
SWIDTH 540 0
DWIDTH 19 0
BBX 14 23 3 0
BITMAP
0BFFF900
2FAAAF40
B80007C0
F00002D0
E00001E0
E00001E0
E00001E0
E00001E0
E00001D0
E00003C0
E0001B80
E01FFD00
E00AAF40
E00007D0
E00001E0
E00000F0
E00000F0
E00000F0
E00000F0
E00000E0
E00002D0
E02AAF80
E03FF900
ENDCHAR
STARTCHAR agrave
ENCODING 224
SWIDTH 502 0
DWIDTH 18 0
BBX 14 25 2 0
BITMAP
00F40000
003C0000
001E0000
00074000
00024000
00000000
00000000
06FFFFD0
1FAAAAD0
3D0001D0
740001D0
B40001D0
B00001D0
B00001D0
B00001D0
B00001D0
B00001D0
B00001D0
B00001D0
B00001D0
B40002D0
740002D0
3D000BD0
1FAABED0
06FFE5D0
ENDCHAR
STARTCHAR aacute
ENCODING 225
SWIDTH 502 0
DWIDTH 18 0
BBX 14 25 2 0
BITMAP
00003D00
0000B400
0001E000
00038000
00060000
00000000
00000000
06FFFFD0
1FAAAAD0
3D0001D0
740001D0
B40001D0
B00001D0
B00001D0
B00001D0
B00001D0
B00001D0
B00001D0
B00001D0
B00001D0
B40002D0
740002D0
3D000BD0
1FAABED0
06FFE5D0
ENDCHAR
STARTCHAR acircumflex
ENCODING 226
SWIDTH 502 0
DWIDTH 18 0
BBX 14 25 2 0
BITMAP
000B8000
001DD000
0038A000
00707400
00901800
00000000
00000000
06FFFFD0
1FAAAAD0
3D0001D0
740001D0
B40001D0
B00001D0
B00001D0
B00001D0
B00001D0
B00001D0
B00001D0
B00001D0
B00001D0
B40002D0
740002D0
3D000BD0
1FAABED0
06FFE5D0
ENDCHAR
STARTCHAR atilde
ENCODING 227
SWIDTH 504 0
DWIDTH 18 0
BBX 14 25 2 0
BITMAP
00C0B800
00C2ED00
00D34A00
00BE0A00
00000000
00000000
00000000
06FFFFD0
1FAAAAD0
3D0001D0
740001D0
B40001D0
B00001D0
B00001D0
B00001D0
B00001D0
B00001D0
B00001D0
B00001D0
B00001D0
B40002D0
740002D0
3D000BD0
1FAABED0
06FFE5D0
ENDCHAR
STARTCHAR adieresis
ENCODING 228
SWIDTH 502 0
DWIDTH 18 0
BBX 14 25 2 0
BITMAP
01E01D00
01E01D00
01E01D00
01E01D00
00E01D00
00000000
00000000
06FFFFD0
1FAAAAD0
3D0001D0
740001D0
B40001D0
B00001D0
B00001D0
B00001D0
B00001D0
B00001D0
B00001D0
B00001D0
B00001D0
B40002D0
740002D0
3D000BD0
1FAABED0
06FFE5D0
ENDCHAR
STARTCHAR aring
ENCODING 229
SWIDTH 502 0
DWIDTH 18 0
BBX 14 26 2 0
BITMAP
002FD000
00BAB000
00903000
00903000
00BAB000
002FD000
00000000
00000000
06FFFFD0
1FAAAAD0
3D0001D0
740001D0
B40001D0
B00001D0
B00001D0
B00001D0
B00001D0
B00001D0
B00001D0
B00001D0
B00001D0
B40002D0
740002D0
3D000BD0
1FAABED0
06FFE5D0
ENDCHAR
STARTCHAR ae
ENCODING 230
SWIDTH 795 0
DWIDTH 29 0
BBX 25 18 2 0
BITMAP
0FFFE80BFFE000
06AABE3EAABC00
000007F4001E00
000002E0000B00
000002D0000740
000002D0000740
000002D0000740
06FFFFD0000740
1FAAAAD0000740
3C0002FFFFFF40
B40002EAAAAA00
B00002D0000000
B00002D0000000
B00002D0000000
B40003E0000000
3C000BF4000000
1FAABE7EAAAA00
06FFE41BFFFF40
ENDCHAR
STARTCHAR ccedilla
ENCODING 231
SWIDTH 394 0
DWIDTH 14 0
BBX 11 25 2 -7
BITMAP
06FFFC
1FAAA8
3D0000
740000
B40000
B00000
B00000
B00000
B00000
B00000
B00000
B00000
B00000
B40000
740000
3D0000
1FAAA8
06FFFC
000E00
003900
002B80
0000D0
0001D0
003FC0
002900
ENDCHAR
STARTCHAR egrave
ENCODING 232
SWIDTH 492 0
DWIDTH 18 0
BBX 14 25 2 0
BITMAP
02E00000
00F40000
00780000
001D0000
00060000
00000000
00000000
06FFF900
1FAAAF40
3D0007C0
740002D0
B40001E0
B00001E0
B00001E0
B00001E0
BAAAAAE0
BFFFFFE0
B0000000
B0000000
B0000000
B4000000
74000000
3D000000
1FAAAA80
06FFFFD0
ENDCHAR
STARTCHAR eacute
ENCODING 233
SWIDTH 492 0
DWIDTH 18 0
BBX 14 25 2 0
BITMAP
0000F400
0002E000
00038000
000B0000
00090000
00000000
00000000
06FFF900
1FAAAF40
3D0007C0
740002D0
B40001E0
B00001E0
B00001E0
B00001E0
BAAAAAE0
BFFFFFE0
B0000000
B0000000
B0000000
B4000000
74000000
3D000000
1FAAAA80
06FFFFD0
ENDCHAR
STARTCHAR ecircumflex
ENCODING 234
SWIDTH 492 0
DWIDTH 18 0
BBX 14 25 2 0
BITMAP
001F4000
002A8000
0071D000
00E0B000
01802400
00000000
00000000
06FFF900
1FAAAF40
3D0007C0
740002D0
B40001E0
B00001E0
B00001E0
B00001E0
BAAAAAE0
BFFFFFE0
B0000000
B0000000
B0000000
B4000000
74000000
3D000000
1FAAAA80
06FFFFD0
ENDCHAR
STARTCHAR edieresis
ENCODING 235
SWIDTH 492 0
DWIDTH 18 0
BBX 14 25 2 0
BITMAP
02C03800
03C03800
03C03800
03C03800
02C03800
00000000
00000000
06FFF900
1FAAAF40
3D0007C0
740002D0
B40001E0
B00001E0
B00001E0
B00001E0
BAAAAAE0
BFFFFFE0
B0000000
B0000000
B0000000
B4000000
74000000
3D000000
1FAAAA80
06FFFFD0
ENDCHAR
STARTCHAR igrave
ENCODING 236
SWIDTH 210 0
DWIDTH 8 0
BBX 6 25 -1 0
BITMAP
7C00
2E00
0B40
0380
0090
0000
0000
00E0
00E0
00E0
00E0
00E0
00E0
00E0
00E0
00E0
00E0
00E0
00E0
00E0
00E0
00E0
00E0
00E0
00E0
ENDCHAR
STARTCHAR iacute
ENCODING 237
SWIDTH 208 0
DWIDTH 7 0
BBX 5 25 3 0
BITMAP
0B80
1F00
2D00
7400
9000
0000
0000
E000
E000
E000
E000
E000
E000
E000
E000
E000
E000
E000
E000
E000
E000
E000
E000
E000
E000
ENDCHAR
STARTCHAR icircumflex
ENCODING 238
SWIDTH 210 0
DWIDTH 8 0
BBX 7 25 0 0
BITMAP
07C0
0EE0
2C70
3438
6018
0000
0000
0380
0380
0380
0380
0380
0380
0380
0380
0380
0380
0380
0380
0380
0380
0380
0380
0380
0380
ENDCHAR
STARTCHAR idieresis
ENCODING 239
SWIDTH 210 0
DWIDTH 8 0
BBX 8 25 0 0
BITMAP
E00E
E01E
E01E
E01E
E00E
0000
0000
0380
0380
0380
0380
0380
0380
0380
0380
0380
0380
0380
0380
0380
0380
0380
0380
0380
0380
ENDCHAR
STARTCHAR eth
ENCODING 240
SWIDTH 488 0
DWIDTH 18 0
BBX 14 25 2 0
BITMAP
02400500
02D02E00
00B4B800
003ED000
001F4000
007BC000
01E1F000
07807800
05001E00
00000B80
01AA93C0
0BFFFAD0
3E401FD0
780003D0
B40002D0
B00002D0
B00002D0
B00002D0
B00002D0
B00002D0
B40002D0
740002C0
3D000780
1FAABF00
06FFF800
ENDCHAR
STARTCHAR ntilde
ENCODING 241
SWIDTH 507 0
DWIDTH 18 0
BBX 14 25 2 0
BITMAP
0241F400
0243A800
024B1C00
02ED0C00
00B80C00
00000000
00000000
74BFF900
7BEAAF40
7E0007D0
7C0001E0
780000E0
780000E0
780000E0
780000E0
780000E0
780000E0
780000E0
780000E0
780000E0
780000E0
780000E0
780000E0
780000E0
740000E0
ENDCHAR
STARTCHAR ograve
ENCODING 242
SWIDTH 496 0
DWIDTH 18 0
BBX 14 25 2 0
BITMAP
03D00000
01F00000
00780000
002C0000
00090000
00000000
00000000
06FFF900
1FAAAF40
3D0007C0
740002D0
B40001E0
B00001E0
B00001E0
B00001E0
B00001E0
B00001E0
B00001E0
B00001E0
B00001E0
B40001E0
740002D0
3D0007C0
1FAAAF40
06FFF900
ENDCHAR
STARTCHAR oacute
ENCODING 243
SWIDTH 496 0
DWIDTH 18 0
BBX 14 25 2 0
BITMAP
00007C00
0000F400
0002D000
00078000
00060000
00000000
00000000
06FFF900
1FAAAF40
3D0007C0
740002D0
B40001E0
B00001E0
B00001E0
B00001E0
B00001E0
B00001E0
B00001E0
B00001E0
B00001E0
B40001E0
740002D0
3D0007C0
1FAAAF40
06FFF900
ENDCHAR
STARTCHAR ocircumflex
ENCODING 244
SWIDTH 496 0
DWIDTH 18 0
BBX 14 25 2 0
BITMAP
001F0000
003A8000
0071D000
00E0A000
01802400
00000000
00000000
06FFF900
1FAAAF40
3D0007C0
740002D0
B40001E0
B00001E0
B00001E0
B00001E0
B00001E0
B00001E0
B00001E0
B00001E0
B00001E0
B40001E0
740002D0
3D0007C0
1FAAAF40
06FFF900
ENDCHAR
STARTCHAR otilde
ENCODING 245
SWIDTH 496 0
DWIDTH 18 0
BBX 14 25 2 0
BITMAP
0302E000
0307B800
034A1800
02AC1800
01F41800
00000000
00000000
06FFF900
1FAAAF40
3D0007C0
740002D0
B40001E0
B00001E0
B00001E0
B00001E0
B00001E0
B00001E0
B00001E0
B00001E0
B00001E0
B40001E0
740002D0
3D0007C0
1FAAAF40
06FFF900
ENDCHAR
STARTCHAR odieresis
ENCODING 246
SWIDTH 496 0
DWIDTH 18 0
BBX 14 25 2 0
BITMAP
03C03800
03C03800
03C03800
03C03800
03803800
00000000
00000000
06FFF900
1FAAAF40
3D0007C0
740002D0
B40001E0
B00001E0
B00001E0
B00001E0
B00001E0
B00001E0
B00001E0
B00001E0
B00001E0
B40001E0
740002D0
3D0007C0
1FAAAF40
06FFF900
ENDCHAR
STARTCHAR divide
ENCODING 247
SWIDTH 510 0
DWIDTH 18 0
BBX 14 13 2 5
BITMAP
000B0000
000B0000
000B0000
00000000
00000000
00000000
7FFFFFE0
2AAAAA90
00000000
00000000
000B0000
000B0000
000B0000
ENDCHAR
STARTCHAR oslash
ENCODING 248
SWIDTH 521 0
DWIDTH 19 0
BBX 17 18 1 0
BITMAP
00BFFE4000
03FAABE280
0B8000BF40
0F00007D00
1E0000BC00
1E0002FC00
1E000B3C00
1E003C3C00
1E00F03C00
1E03C03C00
1E0E003C00
1E78003C00
1EE0003C00
1F80003C00
1F00003800
7F8000B400
E3FAABE000
00BFFE4000
ENDCHAR
STARTCHAR ugrave
ENCODING 249
SWIDTH 507 0
DWIDTH 18 0
BBX 14 25 2 0
BITMAP
03D00000
01F00000
00780000
001D0000
00090000
00000000
00000000
740001E0
740001E0
740001E0
740001E0
740001E0
740001E0
740001E0
740001E0
740001E0
740001E0
740001E0
740001E0
740001E0
740001E0
780002E0
3D0007E0
1FAABEE0
06FFE5E0
ENDCHAR
STARTCHAR uacute
ENCODING 250
SWIDTH 507 0
DWIDTH 18 0
BBX 14 25 2 0
BITMAP
00007C00
0000F400
0002D000
00038000
00060000
00000000
00000000
740001E0
740001E0
740001E0
740001E0
740001E0
740001E0
740001E0
740001E0
740001E0
740001E0
740001E0
740001E0
740001E0
740001E0
780002E0
3D0007E0
1FAABEE0
06FFE5E0
ENDCHAR
STARTCHAR ucircumflex
ENCODING 251
SWIDTH 507 0
DWIDTH 18 0
BBX 14 25 2 0
BITMAP
000F4000
002A8000
0074D000
00E0B000
01802400
00000000
00000000
740001E0
740001E0
740001E0
740001E0
740001E0
740001E0
740001E0
740001E0
740001E0
740001E0
740001E0
740001E0
740001E0
740001E0
780002E0
3D0007E0
1FAABEE0
06FFE5E0
ENDCHAR
STARTCHAR udieresis
ENCODING 252
SWIDTH 507 0
DWIDTH 18 0
BBX 14 25 2 0
BITMAP
02C03800
02C03C00
02C03C00
02C03C00
02C03800
00000000
00000000
740001E0
740001E0
740001E0
740001E0
740001E0
740001E0
740001E0
740001E0
740001E0
740001E0
740001E0
740001E0
740001E0
740001E0
780002E0
3D0007E0
1FAABEE0
06FFE5E0
ENDCHAR
STARTCHAR yacute
ENCODING 253
SWIDTH 459 0
DWIDTH 17 0
BBX 15 30 1 -5
BITMAP
00003D00
0000B800
0001E000
0002C000
00020000
00000000
00000000
F0000074
B40000B0
780000E0
3C0001D0
1D0002C0
0E000380
0B000B40
07400F00
03801E00
02C02D00
01D03C00
00F07800
00B4B400
0078F000
003DE000
002FC000
000B8000
00074000
000B0000
001E0000
007C0000
2AF40000
3F900000
ENDCHAR
STARTCHAR thorn
ENCODING 254
SWIDTH 508 0
DWIDTH 18 0
BBX 13 30 3 -5
BITMAP
E0000000
E0000000
E0000000
E0000000
E0000000
E0000000
E0000000
E2FFE400
EBAABE00
F8000B40
F0000780
E00003C0
E00003C0
E00003C0
E00003C0
E00003C0
E00003C0
E00003C0
E00003C0
E00003C0
E00003C0
F0000780
F8000B40
EFAABE00
E2FFE400
E0000000
E0000000
E0000000
E0000000
E0000000
ENDCHAR
STARTCHAR ydieresis
ENCODING 255
SWIDTH 459 0
DWIDTH 17 0
BBX 15 30 1 -5
BITMAP
01D02C00
02D02C00
02D02C00
02D02C00
01D02C00
00000000
00000000
F0000074
B40000B0
780000E0
3C0001D0
1D0002C0
0E000380
0B000B40
07400F00
03801E00
02C02D00
01D03C00
00F07800
00B4B400
0078F000
003DE000
002FC000
000B8000
00074000
000B0000
001E0000
007C0000
2AF40000
3F900000
ENDCHAR
STARTCHAR Amacron
ENCODING 256
SWIDTH 532 0
DWIDTH 19 0
BBX 17 28 1 0
BITMAP
007FFF8000
006AAA4000
0000000000
0000000000
0000000000
0002F00000
0003F40000
0007B80000
000B3C0000
000E2D0000
001D1E0000
002C0F0000
00380B4000
0078078000
00B403C000
00F002D000
01E001E000
02D000F000
03C000B400
0780007400
0BAAAAB800
0FFFFFFC00
1E00002D00
2D00001E00
3C00000F00
7800000740
B400000380
F0000002C0
ENDCHAR
STARTCHAR amacron
ENCODING 257
SWIDTH 502 0
DWIDTH 18 0
BBX 14 23 2 0
BITMAP
00FFFF00
00AAAA00
00000000
00000000
00000000
06FFFFD0
1FAAAAD0
3D0001D0
740001D0
B40001D0
B00001D0
B00001D0
B00001D0
B00001D0
B00001D0
B00001D0
B00001D0
B00001D0
B40002D0
740002D0
3D000BD0
1FAABED0
06FFE5D0
ENDCHAR
STARTCHAR Abreve
ENCODING 258
SWIDTH 532 0
DWIDTH 19 0
BBX 17 30 1 0
BITMAP
0010010000
0034030000
0034070000
002C0A0000
000BF80000
0000000000
0000000000
0002F00000
0003F40000
0007B80000
000B3C0000
000E2D0000
001D1E0000
002C0F0000
00380B4000
0078078000
00B403C000
00F002D000
01E001E000
02D000F000
03C000B400
0780007400
0BAAAAB800
0FFFFFFC00
1E00002D00
2D00001E00
3C00000F00
7800000740
B400000380
F0000002C0
ENDCHAR
STARTCHAR abreve
ENCODING 259
SWIDTH 502 0
DWIDTH 18 0
BBX 14 25 2 0
BITMAP
00D00D00
00D00D00
00A00C00
00742800
002FE000
00000000
00000000
06FFFFD0
1FAAAAD0
3D0001D0
740001D0
B40001D0
B00001D0
B00001D0
B00001D0
B00001D0
B00001D0
B00001D0
B00001D0
B00001D0
B40002D0
740002D0
3D000BD0
1FAABED0
06FFE5D0
ENDCHAR
STARTCHAR Aogonek
ENCODING 260
SWIDTH 532 0
DWIDTH 19 0
BBX 17 27 1 -4
BITMAP
0002F00000
0003F40000
0007B80000
000B3C0000
000E2D0000
001D1E0000
002C0F0000
00380B4000
0078078000
00B403C000
00F002D000
01E001E000
02D000F000
03C000B400
0780007400
0BAAAAB800
0FFFFFFC00
1E00002D00
2D00001E00
3C00000F00
7800000740
B400000380
F0000003C0
0000000A00
0000001800
0000003A40
0000007E00
ENDCHAR
STARTCHAR aogonek
ENCODING 261
SWIDTH 502 0
DWIDTH 18 0
BBX 14 22 2 -4
BITMAP
06FFFFD0
1FAAAAD0
3D0001D0
740001D0
B40001D0
B00001D0
B00001D0
B00001D0
B00001D0
B00001D0
B00001D0
B00001D0
B00001D0
B40002D0
740002D0
3D000BD0
1FAABED0
06FFE6D0
00000700
00000D00
00002E40
00002E40
ENDCHAR
STARTCHAR Cacute
ENCODING 262
SWIDTH 542 0
DWIDTH 20 0
BBX 16 30 2 0
BITMAP
00001500
00003D00
0000B800
0001E000
00028000
00000000
00000000
02FFFF80
0FEAABF0
2E0000B8
3800002C
7800002D
7800001D
7800001D
78000004
78000000
78000000
78000000
78000000
78000000
78000000
78000000
78000004
7800001D
7800001D
7800002D
3800002C
2D000078
0FEAABF0
02FFFF80
ENDCHAR
STARTCHAR cacute
ENCODING 263
SWIDTH 394 0
DWIDTH 14 0
BBX 11 25 2 0
BITMAP
0001F0
0003D0
000B40
000E00
001800
000000
000000
06FFFC
1FAAA8
3D0000
740000
B40000
B00000
B00000
B00000
B00000
B00000
B00000
B00000
B00000
B40000
740000
3D0000
1FAAA8
06FFFC
ENDCHAR
STARTCHAR Cdotaccent
ENCODING 266
SWIDTH 542 0
DWIDTH 20 0
BBX 16 29 2 0
BITMAP
0003C000
0003C000
0003C000
0003C000
00000000
00000000
02FFFF80
0FEAABF0
2E0000B8
3800002C
7800002D
7800001D
7800001D
78000004
78000000
78000000
78000000
78000000
78000000
78000000
78000000
78000004
7800001D
7800001D
7800002D
3800002C
2D000078
0FEAABF0
02FFFF80
ENDCHAR
STARTCHAR cdotaccent
ENCODING 267
SWIDTH 394 0
DWIDTH 14 0
BBX 11 25 2 0
BITMAP
002C00
002D00
002D00
002C00
000000
000000
000000
06FFFC
1FAAA8
3D0000
740000
B40000
B00000
B00000
B00000
B00000
B00000
B00000
B00000
B00000
B40000
740000
3D0000
1FAAA8
06FFFC
ENDCHAR
STARTCHAR Ccaron
ENCODING 268
SWIDTH 542 0
DWIDTH 20 0
BBX 16 30 2 0
BITMAP
00500500
00381C00
001C3400
000AA000
0007D000
00000000
00000000
02FFFF80
0FEAABF0
2E0000B8
3800002C
7800002D
7800001D
7800001D
78000004
78000000
78000000
78000000
78000000
78000000
78000000
78000000
78000004
7800001D
7800001D
7800002D
3800002C
2D000078
0FEAABF0
02FFFF80
ENDCHAR
STARTCHAR ccaron
ENCODING 269
SWIDTH 394 0
DWIDTH 14 0
BBX 11 25 2 0
BITMAP
0280A0
01D1D0
00A380
003B00
001900
000000
000000
06FFFC
1FAAA8
3D0000
740000
B40000
B00000
B00000
B00000
B00000
B00000
B00000
B00000
B00000
B40000
740000
3D0000
1FAAA8
06FFFC
ENDCHAR
STARTCHAR Dcaron
ENCODING 270
SWIDTH 557 0
DWIDTH 20 0
BBX 15 30 3 0
BITMAP
01401000
01D0B000
00B1D000
003A8000
001F0000
00000000
00000000
FFFFFE00
FAAAAFC0
F00001E0
F00000B0
F00000B4
F0000074
F0000074
F0000074
F0000074
F0000074
F0000074
F0000074
F0000074
F0000074
F0000074
F0000074
F0000074
F0000074
F00000B4
F00000B0
F00001E0
FAAAAFC0
FFFFFE00
ENDCHAR
STARTCHAR dcaron
ENCODING 271
SWIDTH 534 0
DWIDTH 19 0
BBX 18 25 2 0
BITMAP
000001D1D0
000001D1D0
000001D1D0
000001D1D0
000001D1C0
000001D180
000001D180
06FFE5D140
1E401FD000
380003D000
740002D000
B00001D000
B00001D000
B00001D000
B00001D000
B00001D000
B00001D000
B00001D000
B00001D000
B00001D000
B40001D000
740002D000
3D000BD000
1FAABED000
06FFE5D000
ENDCHAR
STARTCHAR Dcroat
ENCODING 272
SWIDTH 514 0
DWIDTH 19 0
BBX 17 23 1 0
BITMAP
0BFFFFE000
0BAAAABD00
0B00001F00
0B00000B40
0B00000740
0B00000740
0B00000740
0B00000740
0F00000740
FFFFF00740
AFAAA00740
0B00000740
0B00000740
0B00000740
0B00000740
0B00000740
0B00000740
0B00000740
0B00000740
0B00000B40
0B00001F00
0BAAAABD00
0BFFFFE000
ENDCHAR
STARTCHAR dcroat
ENCODING 273
SWIDTH 539 0
DWIDTH 19 0
BBX 17 25 2 0
BITMAP
000001D000
000001D000
000001D000
000001D000
003FFFFF40
001AAAEA40
000001D000
000001D000
000001D000
01AA91D000
0BFFF9D000
3E001BD000
780003D000
B40002D000
B00001D000
B00001D000
B00001D000
B00001D000
B00001D000
B00001D000
B40001D000
740002D000
3D0007D000
1FAABED000
06FFE5D000
ENDCHAR
STARTCHAR Emacron
ENCODING 274
SWIDTH 481 0
DWIDTH 17 0
BBX 12 28 3 0
BITMAP
0FFFF0
0AAAA0
000000
000000
000000
FFFFFF
FAAAAA
F00000
F00000
F00000
F00000
F00000
F00000
F00000
F00000
FAAAA8
FFFFFC
F00000
F00000
F00000
F00000
F00000
F00000
F00000
F00000
F00000
FAAAAA
FFFFFF
ENDCHAR
STARTCHAR emacron
ENCODING 275
SWIDTH 492 0
DWIDTH 18 0
BBX 14 23 2 0
BITMAP
03FFFC00
02AAA800
00000000
00000000
00000000
06FFF900
1FAAAF40
3D0007C0
740002D0
B40001E0
B00001E0
B00001E0
B00001E0
BAAAAAE0
BFFFFFE0
B0000000
B0000000
B0000000
B4000000
74000000
3D000000
1FAAAA80
06FFFFD0
ENDCHAR
STARTCHAR Ebreve
ENCODING 276
SWIDTH 481 0
DWIDTH 17 0
BBX 12 30 3 0
BITMAP
050040
0A00D0
0A00D0
0742C0
01FE40
000000
000000
FFFFFF
FAAAAA
F00000
F00000
F00000
F00000
F00000
F00000
F00000
F00000
FAAAA8
FFFFFC
F00000
F00000
F00000
F00000
F00000
F00000
F00000
F00000
F00000
FAAAAA
FFFFFF
ENDCHAR
STARTCHAR ebreve
ENCODING 277
SWIDTH 492 0
DWIDTH 18 0
BBX 14 25 2 0
BITMAP
02802400
02803400
02803400
01D0B000
007FD000
00000000
00000000
06FFF900
1FAAAF40
3D0007C0
740002D0
B40001E0
B00001E0
B00001E0
B00001E0
BAAAAAE0
BFFFFFE0
B0000000
B0000000
B0000000
B4000000
74000000
3D000000
1FAAAA80
06FFFFD0
ENDCHAR
STARTCHAR Edotaccent
ENCODING 278
SWIDTH 496 0
DWIDTH 18 0
BBX 12 29 3 0
BITMAP
003C00
003C00
003C00
003C00
000000
000000
FFFFFF
FAAAAA
F00000
F00000
F00000
F00000
F00000
F00000
F00000
F00000
FAAAA8
FFFFFC
F00000
F00000
F00000
F00000
F00000
F00000
F00000
F00000
F00000
FAAAAA
FFFFFF
ENDCHAR
STARTCHAR edotaccent
ENCODING 279
SWIDTH 492 0
DWIDTH 18 0
BBX 14 25 2 0
BITMAP
000F0000
000F0000
000F0000
000F0000
00000000
00000000
00000000
06FFF900
1FAAAF40
3D0007C0
740002D0
B40001E0
B00001E0
B00001E0
B00001E0
BAAAAAE0
BFFFFFE0
B0000000
B0000000
B0000000
B4000000
74000000
3D000000
1FAAAA80
06FFFFD0
ENDCHAR
STARTCHAR Eogonek
ENCODING 280
SWIDTH 481 0
DWIDTH 17 0
BBX 12 27 3 -4
BITMAP
FFFFFF
FAAAAA
F00000
F00000
F00000
F00000
F00000
F00000
F00000
F00000
FAAAA8
FFFFFC
F00000
F00000
F00000
F00000
F00000
F00000
F00000
F00000
F00000
FAAAAA
FFFFFF
0000D0
000280
0007A0
0007E0
ENDCHAR
STARTCHAR eogonek
ENCODING 281
SWIDTH 492 0
DWIDTH 18 0
BBX 14 22 2 -4
BITMAP
06FFF900
1FAAAF40
3D0007C0
740002D0
B40001E0
B00001E0
B00001E0
B00001E0
BAAAAAE0
BFFFFFE0
B0000000
B0000000
B0000000
B4000000
74000000
3D000000
1FAAAA80
06FFFFD0
00002400
0000A000
0001E800
0001F800
ENDCHAR
STARTCHAR Ecaron
ENCODING 282
SWIDTH 481 0
DWIDTH 17 0
BBX 12 30 3 0
BITMAP
050050
0381C0
01C340
00AB00
007D00
000000
000000
FFFFFF
FAAAAA
F00000
F00000
F00000
F00000
F00000
F00000
F00000
F00000
FAAAA8
FFFFFC
F00000
F00000
F00000
F00000
F00000
F00000
F00000
F00000
F00000
FAAAAA
FFFFFF
ENDCHAR
STARTCHAR ecaron
ENCODING 283
SWIDTH 492 0
DWIDTH 18 0
BBX 14 25 2 0
BITMAP
01D07400
00A0A000
0075D000
002B8000
000A0000
00000000
00000000
06FFF900
1FAAAF40
3D0007C0
740002D0
B40001E0
B00001E0
B00001E0
B00001E0
BAAAAAE0
BFFFFFE0
B0000000
B0000000
B0000000
B4000000
74000000
3D000000
1FAAAA80
06FFFFD0
ENDCHAR
STARTCHAR Gcircumflex
ENCODING 284
SWIDTH 539 0
DWIDTH 19 0
BBX 15 30 2 0
BITMAP
00014000
000AD000
001CA000
00383400
00B02C00
00000000
00000000
02FFFE40
0FEAABD0
2E0001F0
38000078
78000078
78000038
78000038
78000010
78000000
78000000
78000000
7800AAA4
7800FFF8
78000038
78000038
78000038
78000038
78000038
78000078
38000078
2D0001F4
0FEAABD0
02FFFE40
ENDCHAR
STARTCHAR gcircumflex
ENCODING 285
SWIDTH 506 0
DWIDTH 18 0
BBX 14 30 2 -5
BITMAP
00078000
000DD000
0028B000
00743800
00601800
00000000
00000000
06FFFFE0
1FAAAAE0
3D0001E0
780001E0
740001E0
B40001E0
B40001E0
B40001E0
B40001E0
B40001E0
B40001E0
B40001E0
740001E0
780002E0
3D0007E0
1FAABEE0
06FFE5E0
000001E0
000001E0
000002D0
000007C0
1AAAAF40
1FFFF900
ENDCHAR
STARTCHAR Gbreve
ENCODING 286
SWIDTH 539 0
DWIDTH 19 0
BBX 15 30 2 0
BITMAP
00500400
00D00D00
00A00C00
00742800
002FE000
00000000
00000000
02FFFE40
0FEAABD0
2E0001F0
38000078
78000078
78000038
78000038
78000010
78000000
78000000
78000000
7800AAA4
7800FFF8
78000038
78000038
78000038
78000038
78000038
78000078
38000078
2D0001F4
0FEAABD0
02FFFE40
ENDCHAR
STARTCHAR gbreve
ENCODING 287
SWIDTH 506 0
DWIDTH 18 0
BBX 14 30 2 -5
BITMAP
00A00A00
00A00A00
00700D00
00341C00
001FF400
00000000
00000000
06FFFFE0
1FAAAAE0
3D0001E0
780001E0
740001E0
B40001E0
B40001E0
B40001E0
B40001E0
B40001E0
B40001E0
B40001E0
740001E0
780002E0
3D0007E0
1FAABEE0
06FFE5E0
000001E0
000001E0
000002D0
000007C0
1AAAAF40
1FFFF900
ENDCHAR
STARTCHAR Gdotaccent
ENCODING 288
SWIDTH 539 0
DWIDTH 19 0
BBX 15 29 2 0
BITMAP
00078000
00078000
00078000
00078000
00000000
00000000
02FFFE40
0FEAABD0
2E0001F0
38000078
78000078
78000038
78000038
78000010
78000000
78000000
78000000
7800AAA4
7800FFF8
78000038
78000038
78000038
78000038
78000038
78000078
38000078
2D0001F4
0FEAABD0
02FFFE40
ENDCHAR
STARTCHAR gdotaccent
ENCODING 289
SWIDTH 506 0
DWIDTH 18 0
BBX 14 30 2 -5
BITMAP
00038000
00038000
00038000
00038000
00000000
00000000
00000000
06FFFFE0
1FAAAAE0
3D0001E0
780001E0
740001E0
B40001E0
B40001E0
B40001E0
B40001E0
B40001E0
B40001E0
B40001E0
740001E0
780002E0
3D0007E0
1FAABEE0
06FFE5E0
000001E0
000001E0
000002D0
000007C0
1AAAAF40
1FFFF900
ENDCHAR
STARTCHAR uni0122
ENCODING 290
SWIDTH 539 0
DWIDTH 19 0
BBX 15 31 2 -8
BITMAP
02FFFE40
0FEAABD0
2E0001F0
38000078
78000078
78000038
78000038
78000010
78000000
78000000
78000000
7800AAA4
7800FFF8
78000038
78000038
78000038
78000038
78000038
78000078
38000078
2D0001F4
0FEAABD0
02FFFE40
00000000
0002D000
0002D000
0002D000
0002C000
00028000
00024000
00020000
ENDCHAR
STARTCHAR uni0123
ENCODING 291
SWIDTH 506 0
DWIDTH 18 0
BBX 14 32 2 -5
BITMAP
00008000
00018000
00028000
00038000
00038000
00078000
00038000
00000000
00000000
06FFFFE0
1FAAAAE0
3D0001E0
780001E0
740001E0
B40001E0
B40001E0
B40001E0
B40001E0
B40001E0
B40001E0
B40001E0
740001E0
780002E0
3D0007E0
1FAABEE0
06FFE5E0
000001E0
000001E0
000002D0
000007C0
1AAAAF40
1FFFF900
ENDCHAR
STARTCHAR hcircumflex
ENCODING 293
SWIDTH 507 0
DWIDTH 18 0
BBX 14 27 2 0
BITMAP
0007C000
000DA000
742C7400
78742C00
78500400
78000000
78000000
78000000
78000000
78BFF900
7BEAAF40
7E0007D0
7C0001E0
780000E0
780000E0
780000E0
780000E0
780000E0
780000E0
780000E0
780000E0
780000E0
780000E0
780000E0
780000E0
780000E0
740000E0
ENDCHAR
STARTCHAR Hbar
ENCODING 294
SWIDTH 523 0
DWIDTH 19 0
BBX 19 23 1 0
BITMAP
0B00000380
0B00000780
0B00000780
0B00000780
0B00000780
FFFFFFFFFC
AFAAAAABE8
0B00000780
0B00000780
0B00000780
0B00000780
0BFFFFFF80
0BAAAAAB80
0B00000780
0B00000780
0B00000780
0B00000780
0B00000780
0B00000780
0B00000780
0B00000780
0B00000780
0B00000780
ENDCHAR
STARTCHAR hbar
ENCODING 295
SWIDTH 544 0
DWIDTH 20 0
BBX 16 25 1 0
BITMAP
03800000
03800000
03800000
03800000
FFFFFD00
ABEAA800
03800000
03800000
03800000
0385AA40
039FFFF4
03F4007D
03D0001E
03C0000F
0380000B
0380000B
0380000B
0380000B
0380000B
0380000B
0380000B
0380000B
0380000B
0380000B
0380000B
ENDCHAR
STARTCHAR Itilde
ENCODING 296
SWIDTH 230 0
DWIDTH 8 0
BBX 8 30 0 0
BITMAP
5024
90FE
91C7
A283
7F43
1902
0000
02C0
02C0
02C0
02C0
02C0
02C0
02C0
02C0
02C0
02C0
02C0
02C0
02C0
02C0
02C0
02C0
02C0
02C0
02C0
02C0
02C0
02C0
02C0
ENDCHAR
STARTCHAR itilde
ENCODING 297
SWIDTH 210 0
DWIDTH 8 0
BBX 8 25 0 0
BITMAP
C0B8
C1ED
C34A
EB06
7D06
0000
0000
0380
0380
0380
0380
0380
0380
0380
0380
0380
0380
0380
0380
0380
0380
0380
0380
0380
0380
ENDCHAR
STARTCHAR Imacron
ENCODING 298
SWIDTH 230 0
DWIDTH 8 0
BBX 8 28 0 0
BITMAP
FFFF
AAAA
0000
0000
0000
02C0
02C0
02C0
02C0
02C0
02C0
02C0
02C0
02C0
02C0
02C0
02C0
02C0
02C0
02C0
02C0
02C0
02C0
02C0
02C0
02C0
02C0
02C0
ENDCHAR
STARTCHAR imacron
ENCODING 299
SWIDTH 208 0
DWIDTH 7 0
BBX 9 23 -1 0
BITMAP
7FFF80
2AAA40
000000
000000
000000
00E000
00E000
00E000
00E000
00E000
00E000
00E000
00E000
00E000
00E000
00E000
00E000
00E000
00E000
00E000
00E000
00E000
00E000
ENDCHAR
STARTCHAR Ibreve
ENCODING 300
SWIDTH 231 0
DWIDTH 8 0
BBX 8 30 0 0
BITMAP
5005
700A
700A
381D
1BF4
0000
0000
02C0
02C0
02C0
02C0
02C0
02C0
02C0
02C0
02C0
02C0
02C0
02C0
02C0
02C0
02C0
02C0
02C0
02C0
02C0
02C0
02C0
02C0
02C0
ENDCHAR
STARTCHAR ibreve
ENCODING 301
SWIDTH 211 0
DWIDTH 8 0
BBX 8 25 0 0
BITMAP
A00D
A00D
A00D
742C
1FE0
0000
0000
0380
0380
0380
0380
0380
0380
0380
0380
0380
0380
0380
0380
0380
0380
0380
0380
0380
0380
ENDCHAR
STARTCHAR Iogonek
ENCODING 302
SWIDTH 230 0
DWIDTH 8 0
BBX 4 27 1 -4
BITMAP
0B
0B
0B
0B
0B
0B
0B
0B
0B
0B
0B
0B
0B
0B
0B
0B
0B
0B
0B
0B
0B
0B
0B
1C
34
B9
BD
ENDCHAR
STARTCHAR iogonek
ENCODING 303
SWIDTH 210 0
DWIDTH 8 0
BBX 4 29 1 -4
BITMAP
0E
0E
0E
0E
00
00
00
0E
0E
0E
0E
0E
0E
0E
0E
0E
0E
0E
0E
0E
0E
0E
0E
0E
0E
28
60
E9
F8
ENDCHAR
STARTCHAR Idotaccent
ENCODING 304
SWIDTH 230 0
DWIDTH 8 0
BBX 2 28 3 0
BITMAP
B0
B0
B0
B0
00
B0
B0
B0
B0
B0
B0
B0
B0
B0
B0
B0
B0
B0
B0
B0
B0
B0
B0
B0
B0
B0
B0
B0
ENDCHAR
STARTCHAR dotlessi
ENCODING 305
SWIDTH 212 0
DWIDTH 8 0
BBX 2 18 3 0
BITMAP
E0
E0
E0
E0
E0
E0
E0
E0
E0
E0
E0
E0
E0
E0
E0
E0
E0
E0
ENDCHAR
STARTCHAR IJ
ENCODING 306
SWIDTH 721 0
DWIDTH 26 0
BBX 21 23 3 0
BITMAP
B00000000B00
B00000000B40
B00000000B40
B00000000B40
B00000000B40
B00000000B40
B00000000B40
B00000000B40
B00000000B40
B00000000B40
B00000000B40
B00000000B40
B00000000B40
B00000000B40
B00500000B40
B00B40000B40
B00B40000B40
B00B40000B40
B00740000B00
B00780000F00
B003D0002E00
B001FAAAFC00
B0006FFFE000
ENDCHAR
STARTCHAR ij
ENCODING 307
SWIDTH 419 0
DWIDTH 15 0
BBX 10 30 3 -5
BITMAP
E002D0
E002D0
E002D0
E002D0
000000
000000
000000
E002D0
E002D0
E002D0
E002D0
E002D0
E002D0
E002D0
E002D0
E002D0
E002D0
E002D0
E002D0
E002D0
E002D0
E002D0
E002D0
E002D0
E002D0
0002C0
0003C0
000B80
02BF00
07F800
ENDCHAR
STARTCHAR Jcircumflex
ENCODING 308
SWIDTH 494 0
DWIDTH 18 0
BBX 17 30 1 0
BITMAP
0000005000
000001F800
0000035D00
00000B0A00
00001D0740
0000000000
0000000000
000000B000
000000B000
000000B000
000000B000
000000B000
000000B000
000000B000
000000B000
000000B000
000000B000
000000B000
000000B000
000000B000
000000B000
500000B000
B40000B000
B40000B000
B40000B000
B40000B000
780000F000
3D0002E000
1FAAAF8000
06FFF90000
ENDCHAR
STARTCHAR jcircumflex
ENCODING 309
SWIDTH 209 0
DWIDTH 8 0
BBX 9 30 -2 -5
BITMAP
007C00
00EE00
02C700
074380
060180
000000
000000
003800
003800
003800
003800
003800
003800
003800
003800
003800
003800
003800
003800
003800
003800
003800
003800
003800
003800
007800
007400
01F000
6BD000
FE4000
ENDCHAR
STARTCHAR uni0136
ENCODING 310
SWIDTH 530 0
DWIDTH 19 0
BBX 15 31 3 -8
BITMAP
E00001F0
F00003D0
F0000B40
F0002E00
F0007C00
F000F400
F002D000
F00B8000
F01F0000
F03D0000
F0BC0000
F2FE0000
F78B4000
FF03C000
FC01E000
F400B400
F0003C00
F0001E00
F0000B40
F00003C0
F00001E0
F00000B4
E000003C
00000000
00074000
00078000
00074000
00074000
00070000
00060000
00050000
ENDCHAR
STARTCHAR uni0137
ENCODING 311
SWIDTH 431 0
DWIDTH 16 0
BBX 13 33 2 -8
BITMAP
74000000
78000000
78000000
78000000
78000000
78000000
78000000
78000B40
78001E00
78003C00
7800B400
7801E000
7803C000
780B4000
781E0000
783C0000
782D0000
780F0000
78078000
7802D000
7800F000
78007800
78002E00
78000F40
740007C0
00000000
001E0000
001E0000
001D0000
001D0000
001C0000
00180000
00140000
ENDCHAR
STARTCHAR Lacute
ENCODING 313
SWIDTH 451 0
DWIDTH 16 0
BBX 13 30 3 0
BITMAP
01400000
0B800000
1E000000
3C000000
70000000
00000000
00000000
E0000000
F0000000
F0000000
F0000000
F0000000
F0000000
F0000000
F0000000
F0000000
F0000000
F0000000
F0000000
F0000000
F0000000
F0000000
F0000000
F0000000
F0000000
F0000000
F0000000
F0000000
FAAAAA00
FFFFFF40
ENDCHAR
STARTCHAR lacute
ENCODING 314
SWIDTH 207 0
DWIDTH 7 0
BBX 5 31 3 0
BITMAP
0B80
1F00
3C00
B400
5000
0000
E000
E000
E000
E000
E000
E000
E000
E000
E000
E000
E000
E000
E000
E000
E000
E000
E000
E000
E000
E000
E000
E000
E000
E000
E000
ENDCHAR
STARTCHAR uni013B
ENCODING 315
SWIDTH 451 0
DWIDTH 16 0
BBX 13 31 3 -8
BITMAP
E0000000
F0000000
F0000000
F0000000
F0000000
F0000000
F0000000
F0000000
F0000000
F0000000
F0000000
F0000000
F0000000
F0000000
F0000000
F0000000
F0000000
F0000000
F0000000
F0000000
F0000000
FAAAAA00
FFFFFF40
00000000
002C0000
002C0000
002C0000
00280000
00280000
00240000
00200000
ENDCHAR
STARTCHAR uni013C
ENCODING 316
SWIDTH 211 0
DWIDTH 8 0
BBX 2 33 3 -8
BITMAP
E0
E0
E0
E0
E0
E0
E0
E0
E0
E0
E0
E0
E0
E0
E0
E0
E0
E0
E0
E0
E0
E0
E0
E0
E0
00
E0
E0
E0
D0
D0
C0
80
ENDCHAR
STARTCHAR Lcaron
ENCODING 317
SWIDTH 451 0
DWIDTH 16 0
BBX 13 23 3 0
BITMAP
E000F000
F000F000
F000F000
F000F000
F000E000
F000D000
F000C000
F0008000
F0000000
F0000000
F0000000
F0000000
F0000000
F0000000
F0000000
F0000000
F0000000
F0000000
F0000000
F0000000
F0000000
FAAAAA00
FFFFFF40
ENDCHAR
STARTCHAR lcaron
ENCODING 318
SWIDTH 274 0
DWIDTH 10 0
BBX 7 25 3 0
BITMAP
E0B4
E0B4
E0B4
E0B0
E0B0
E0A0
E090
E080
E000
E000
E000
E000
E000
E000
E000
E000
E000
E000
E000
E000
E000
E000
E000
E000
E000
ENDCHAR
STARTCHAR Ldot
ENCODING 319
SWIDTH 500 0
DWIDTH 18 0
BBX 13 23 3 0
BITMAP
F0000000
F0000000
F0000000
F0000000
F0000000
F0000000
F0000000
F0000000
F0000000
F003C000
F003C000
F003C000
F003C000
F003C000
F0000000
F0000000
F0000000
F0000000
F0000000
F0000000
F0000000
FAAAAA00
FFFFFF40
ENDCHAR
STARTCHAR ldot
ENCODING 320
SWIDTH 314 0
DWIDTH 11 0
BBX 7 25 3 0
BITMAP
E000
E000
E000
E000
E000
E000
E000
E000
E000
E000
E000
E078
E078
E078
E078
E078
E000
E000
E000
E000
E000
E000
E000
E000
E000
ENDCHAR
STARTCHAR Lslash
ENCODING 321
SWIDTH 504 0
DWIDTH 18 0
BBX 16 23 0 0
BITMAP
02C00000
02C00000
02C00000
02C00000
02C00000
02C1D000
02DF8000
02F90000
0BD00000
7FC00000
A2C00000
02C00000
02C00000
02C00000
02C00000
02C00000
02C00000
02C00000
02C00000
02C00000
02C00000
02EAAAA9
02FFFFFE
ENDCHAR
STARTCHAR lslash
ENCODING 322
SWIDTH 296 0
DWIDTH 11 0
BBX 9 25 1 0
BITMAP
02D000
02D000
02D000
02D000
02D000
02D000
02D000
02D280
02EF40
02F800
1BD000
BED000
E2D000
02D000
02D000
02D000
02D000
02D000
02D000
02D000
02D000
02D000
02D000
02D000
02D000
ENDCHAR
STARTCHAR Nacute
ENCODING 323
SWIDTH 579 0
DWIDTH 21 0
BBX 15 30 3 0
BITMAP
00001500
00003D00
0000B400
0001E000
00028000
00000000
00000000
F0000038
F8000038
FD000038
FE000038
FB400038
F7C00038
F2D00038
F0F00038
F0780038
F02D0038
F01E0038
F00B4038
F003C038
F001E038
F000B438
F0007838
F0002D38
F0000F38
F0000778
F00002F8
F00001F8
F00000B8
E0000038
ENDCHAR
STARTCHAR nacute
ENCODING 324
SWIDTH 507 0
DWIDTH 18 0
BBX 14 25 2 0
BITMAP
00003D00
0000B400
0001E000
00038000
00060000
00000000
00000000
74BFF900
7BEAAF40
7E0007D0
7C0001E0
780000E0
780000E0
780000E0
780000E0
780000E0
780000E0
780000E0
780000E0
780000E0
780000E0
780000E0
780000E0
780000E0
740000E0
ENDCHAR
STARTCHAR uni0145
ENCODING 325
SWIDTH 579 0
DWIDTH 21 0
BBX 15 31 3 -8
BITMAP
F0000038
F8000038
FD000038
FE000038
FB400038
F7C00038
F2D00038
F0F00038
F0780038
F02D0038
F01E0038
F00B4038
F003C038
F001E038
F000B438
F0007838
F0002D38
F0000F38
F0000778
F00002F8
F00001F8
F00000B8
E0000038
00000000
00074000
00074000
00074000
00070000
00070000
00060000
00050000
ENDCHAR
STARTCHAR uni0146
ENCODING 326
SWIDTH 505 0
DWIDTH 18 0
BBX 14 26 2 -8
BITMAP
74BFF900
7BEAAF40
7E0007D0
7C0001E0
780000E0
780000E0
780000E0
780000E0
780000E0
780000E0
780000E0
780000E0
780000E0
780000E0
780000E0
780000E0
780000E0
740000E0
00000000
000B0000
000B4000
000B0000
000B0000
000A0000
00090000
00080000
ENDCHAR
STARTCHAR Ncaron
ENCODING 327
SWIDTH 579 0
DWIDTH 21 0
BBX 15 30 3 0
BITMAP
00501400
00B03800
0038B000
001DD000
000B8000
00000000
00000000
F0000038
F8000038
FD000038
FE000038
FB400038
F7C00038
F2D00038
F0F00038
F0780038
F02D0038
F01E0038
F00B4038
F003C038
F001E038
F000B438
F0007838
F0002D38
F0000F38
F0000778
F00002F8
F00001F8
F00000B8
E0000038
ENDCHAR
STARTCHAR ncaron
ENCODING 328
SWIDTH 507 0
DWIDTH 18 0
BBX 14 25 2 0
BITMAP
00D03800
00B0B000
0038D000
001E8000
000A4000
00000000
00000000
74BFF900
7BEAAF40
7E0007D0
7C0001E0
780000E0
780000E0
780000E0
780000E0
780000E0
780000E0
780000E0
780000E0
780000E0
780000E0
780000E0
780000E0
780000E0
740000E0
ENDCHAR
STARTCHAR Eng
ENCODING 330
SWIDTH 519 0
DWIDTH 19 0
BBX 15 28 3 -5
BITMAP
F0000038
F800003C
FD00003C
FE00003C
FB40003C
F3C0003C
F2E0003C
F0F0003C
F078003C
F02D003C
F00F003C
F00B403C
F003C03C
F001E03C
F000B43C
F000783C
F0002D3C
F0000F3C
F00007BC
F00002FC
F00001FC
F00000BC
F000003C
00000038
00000078
000000F4
00006BE0
0000BE40
ENDCHAR
STARTCHAR eng
ENCODING 331
SWIDTH 507 0
DWIDTH 18 0
BBX 14 23 2 -5
BITMAP
74BFF900
7BEAAF40
7E0007D0
7C0001E0
780000E0
780000E0
780000E0
780000E0
780000E0
780000E0
780000E0
780000E0
780000E0
780000E0
780000E0
780000E0
780000E0
740000E0
000000E0
000001E0
000007D0
0001AF40
0002F900
ENDCHAR
STARTCHAR Omacron
ENCODING 332
SWIDTH 553 0
DWIDTH 20 0
BBX 16 28 2 0
BITMAP
00FFFF00
00AAAA00
00000000
00000000
00000000
02FFFF80
0FEAABF0
2E0000B8
3800003C
7800002C
7800002D
7800002D
7800002D
7800002D
7800002D
7800002D
7800002D
7800002D
7800002D
7800002D
7800002D
7800002D
7800002D
7800002C
3800003C
2D0000B8
0FEAABF0
02FFFF80
ENDCHAR
STARTCHAR omacron
ENCODING 333
SWIDTH 496 0
DWIDTH 18 0
BBX 14 23 2 0
BITMAP
03FFFC00
02AAA800
00000000
00000000
00000000
06FFF900
1FAAAF40
3D0007C0
740002D0
B40001E0
B00001E0
B00001E0
B00001E0
B00001E0
B00001E0
B00001E0
B00001E0
B00001E0
B40001E0
740002D0
3D0007C0
1FAAAF40
06FFF900
ENDCHAR
STARTCHAR Obreve
ENCODING 334
SWIDTH 553 0
DWIDTH 20 0
BBX 16 30 2 0
BITMAP
00500500
00A00900
00700D00
00341C00
001FF400
00000000
00000000
02FFFF80
0FEAABF0
2E0000B8
3800003C
7800002C
7800002D
7800002D
7800002D
7800002D
7800002D
7800002D
7800002D
7800002D
7800002D
7800002D
7800002D
7800002D
7800002D
7800002C
3800003C
2D0000B8
0FEAABF0
02FFFF80
ENDCHAR
STARTCHAR obreve
ENCODING 335
SWIDTH 496 0
DWIDTH 18 0
BBX 14 25 2 0
BITMAP
02802400
02802400
02803400
00D0B000
007FD000
00000000
00000000
06FFF900
1FAAAF40
3D0007C0
740002D0
B40001E0
B00001E0
B00001E0
B00001E0
B00001E0
B00001E0
B00001E0
B00001E0
B00001E0
B40001E0
740002D0
3D0007C0
1FAAAF40
06FFF900
ENDCHAR
STARTCHAR Ohungarumlaut
ENCODING 336
SWIDTH 553 0
DWIDTH 20 0
BBX 16 30 2 0
BITMAP
0002D1E0
000782C0
000A0740
001D0E00
00341C00
00000000
00000000
02FFFF80
0FEAABF0
2E0000B8
3800003C
7800002C
7800002D
7800002D
7800002D
7800002D
7800002D
7800002D
7800002D
7800002D
7800002D
7800002D
7800002D
7800002D
7800002D
7800002C
3800003C
2D0000B8
0FEAABF0
02FFFF80
ENDCHAR
STARTCHAR ohungarumlaut
ENCODING 337
SWIDTH 496 0
DWIDTH 18 0
BBX 14 25 2 0
BITMAP
000B4380
000E0B00
002C1D00
00742800
00A07000
00000000
00000000
06FFF900
1FAAAF40
3D0007C0
740002D0
B40001E0
B00001E0
B00001E0
B00001E0
B00001E0
B00001E0
B00001E0
B00001E0
B00001E0
B40001E0
740002D0
3D0007C0
1FAAAF40
06FFF900
ENDCHAR
STARTCHAR OE
ENCODING 338
SWIDTH 775 0
DWIDTH 28 0
BBX 24 23 2 0
BITMAP
02FFFFFFFFFD
0FEAABEAAAA8
2E0002C00000
3C0002C00000
780002C00000
780002C00000
780002C00000
780002C00000
780002C00000
780002C00000
780002EAAAA0
780002FFFFF0
780002D00000
780002C00000
780002C00000
780002C00000
780002C00000
780002C00000
780002C00000
3C0002C00000
2E0002C00000
0FEAABEAAAA8
02FFFFFFFFFD
ENDCHAR
STARTCHAR oe
ENCODING 339
SWIDTH 812 0
DWIDTH 29 0
BBX 25 18 2 0
BITMAP
06FFF806FFE400
1FAAAF2FAABE00
3D0007F8000B40
740002F0000780
B40001E00003C0
B00001E00003C0
B00001E00003C0
B00001E00003C0
B00001FAAAABC0
B00001FFFFFFC0
B00001E0000000
B00001E0000000
B00001E0000000
B40001E0000000
740002F0000000
3D0007F8000000
1FAAAF2FAAAA40
06FFF806FFFF80
ENDCHAR
STARTCHAR Racute
ENCODING 340
SWIDTH 534 0
DWIDTH 19 0
BBX 14 30 3 0
BITMAP
00015000
0003D000
000B8000
000E0000
00280000
00000000
00000000
FFFFF900
FAAAAF40
F00007C0
F00001D0
F00001E0
F00000E0
F00000E0
F00000E0
F00000E0
F00001E0
F00002D0
F0000BC0
FFFFFE00
FAAAF400
F000B400
F0007800
F0002D00
F0001E00
F0000B40
F0000780
F00002D0
F00001E0
E00000B0
ENDCHAR
STARTCHAR racute
ENCODING 341
SWIDTH 313 0
DWIDTH 11 0
BBX 9 25 2 0
BITMAP
003D00
00B800
01E000
02C000
024000
000000
000000
74BF40
7AEA00
7E0000
7C0000
780000
780000
780000
780000
780000
780000
780000
780000
780000
780000
780000
780000
780000
740000
ENDCHAR
STARTCHAR uni0156
ENCODING 342
SWIDTH 534 0
DWIDTH 19 0
BBX 14 31 3 -8
BITMAP
FFFFF900
FAAAAF40
F00007C0
F00001D0
F00001E0
F00000E0
F00000E0
F00000E0
F00000E0
F00001E0
F00002D0
F0000BC0
FFFFFE00
FAAAF400
F000B400
F0007800
F0002D00
F0001E00
F0000B40
F0000780
F00002D0
F00001E0
E00000B0
00000000
001E0000
001E0000
001D0000
001D0000
001C0000
00180000
00140000
ENDCHAR
STARTCHAR uni0157
ENCODING 343
SWIDTH 313 0
DWIDTH 11 0
BBX 9 26 2 -8
BITMAP
74BF40
7AEA00
7E0000
7C0000
780000
780000
780000
780000
780000
780000
780000
780000
780000
780000
780000
780000
780000
740000
000000
780000
780000
780000
740000
700000
600000
500000
ENDCHAR
STARTCHAR Rcaron
ENCODING 344
SWIDTH 534 0
DWIDTH 19 0
BBX 14 30 3 0
BITMAP
01005000
0381C000
01D38000
00AB0000
003D0000
00000000
00000000
FFFFF900
FAAAAF40
F00007C0
F00001D0
F00001E0
F00000E0
F00000E0
F00000E0
F00000E0
F00001E0
F00002D0
F0000BC0
FFFFFE00
FAAAF400
F000B400
F0007800
F0002D00
F0001E00
F0000B40
F0000780
F00002D0
F00001E0
E00000B0
ENDCHAR
STARTCHAR rcaron
ENCODING 345
SWIDTH 313 0
DWIDTH 11 0
BBX 9 25 2 0
BITMAP
340E00
1C1C00
0E3400
07B000
029000
000000
000000
74BF40
7AEA00
7E0000
7C0000
780000
780000
780000
780000
780000
780000
780000
780000
780000
780000
780000
780000
780000
740000
ENDCHAR
STARTCHAR Sacute
ENCODING 346
SWIDTH 562 0
DWIDTH 20 0
BBX 15 30 3 0
BITMAP
00005400
0000F400
0002E000
00078000
000A0000
00000000
00000000
06FFFE00
2FAAAFC0
B80002E0
F00000F0
F00000B4
E00000B4
E0000050
E0000000
F4000000
7E000000
1FE90000
01BFF900
0005BF40
000007E0
000001F0
000000B4
A00000B4
E00000B4
F00000B4
F00000B0
B80002E0
2FAAAFC0
06FFFE00
ENDCHAR
STARTCHAR sacute
ENCODING 347
SWIDTH 427 0
DWIDTH 15 0
BBX 12 25 2 0
BITMAP
0007C0
000F40
002D00
007800
006000
000000
000000
1BFFF8
7EAAA4
F40000
E00000
E00000
F00000
B90000
2F9000
02FE40
001BE0
0000BC
00002D
00001D
00001E
00001E
00003D
AAAAF8
FFFF90
ENDCHAR
STARTCHAR Scircumflex
ENCODING 348
SWIDTH 562 0
DWIDTH 20 0
BBX 15 30 3 0
BITMAP
00050000
001F8000
0039D000
00B0A000
01D03400
00000000
00000000
06FFFE00
2FAAAFC0
B80002E0
F00000F0
F00000B4
E00000B4
E0000050
E0000000
F4000000
7E000000
1FE90000
01BFF900
0005BF40
000007E0
000001F0
000000B4
A00000B4
E00000B4
F00000B4
F00000B0
B80002E0
2FAAAFC0
06FFFE00
ENDCHAR
STARTCHAR scircumflex
ENCODING 349
SWIDTH 427 0
DWIDTH 15 0
BBX 12 25 2 0
BITMAP
00B800
01DD00
028B00
074380
090180
000000
000000
1BFFF8
7EAAA4
F40000
E00000
E00000
F00000
B90000
2F9000
02FE40
001BE0
0000BC
00002D
00001D
00001E
00001E
00003D
AAAAF8
FFFF90
ENDCHAR
STARTCHAR uni015E
ENCODING 350
SWIDTH 562 0
DWIDTH 20 0
BBX 15 30 3 -7
BITMAP
06FFFE00
2FAAAFC0
B80002E0
F00000F0
F00000B4
E00000B4
E0000050
E0000000
F4000000
7E000000
1FE90000
01BFF900
0005BF40
000007E0
000001F0
000000B4
A00000B4
E00000B4
F00000B4
F00000B0
B80002E0
2FAAAFC0
06FFFE00
00074000
000E4000
001FE000
0000B000
0000B000
001FE000
000A4000
ENDCHAR
STARTCHAR uni015F
ENCODING 351
SWIDTH 427 0
DWIDTH 15 0
BBX 12 25 2 -7
BITMAP
1BFFF8
7EAAA4
F40000
E00000
E00000
F00000
B80000
2F9000
02FE00
001BE0
0000B8
00002D
00001D
00001E
00001E
00003D
AAAAF8
FFFFE0
002800
00B400
00FF00
000340
000740
00BF00
006400
ENDCHAR
STARTCHAR Scaron
ENCODING 352
SWIDTH 562 0
DWIDTH 20 0
BBX 15 30 3 0
BITMAP
01401400
00E07000
0070D000
002AC000
000F4000
00000000
00000000
06FFFE00
2FAAAFC0
B80002E0
F00000F0
F00000B4
E00000B4
E0000050
E0000000
F4000000
7E000000
1FE90000
01BFF900
0005BF40
000007E0
000001F0
000000B4
A00000B4
E00000B4
F00000B4
F00000B0
B80002E0
2FAAAFC0
06FFFE00
ENDCHAR
STARTCHAR scaron
ENCODING 353
SWIDTH 427 0
DWIDTH 15 0
BBX 12 25 2 0
BITMAP
0A02C0
074740
02CA00
00ED00
006400
000000
000000
1BFFF8
7EAAA4
F40000
E00000
E00000
F00000
B90000
2F9000
02FE40
001BE0
0000BC
00002D
00001D
00001E
00001E
00003D
AAAAF8
FFFF90
ENDCHAR
STARTCHAR uni0162
ENCODING 354
SWIDTH 420 0
DWIDTH 15 0
BBX 15 31 0 -8
BITMAP
7FFFFFF4
6AABAAA4
00074000
00074000
00074000
00074000
00074000
00074000
00074000
00074000
00074000
00074000
00074000
00074000
00074000
00074000
00074000
00074000
00074000
00074000
00074000
00074000
00074000
00000000
00074000
00078000
00074000
00074000
00070000
00060000
00050000
ENDCHAR
STARTCHAR uni0163
ENCODING 355
SWIDTH 347 0
DWIDTH 12 0
BBX 10 30 1 -8
BITMAP
014000
078000
078000
078000
FFFFE0
ABEA90
078000
078000
078000
078000
078000
078000
078000
078000
078000
078000
078000
038000
03C000
02E000
00BEA0
001BF0
000000
001D00
001D00
001D00
001D00
001C00
001800
001400
ENDCHAR
STARTCHAR Tcaron
ENCODING 356
SWIDTH 420 0
DWIDTH 15 0
BBX 15 30 0 0
BITMAP
00501400
00703800
00287000
001DD000
000B8000
00000000
00000000
7FFFFFF4
6AABAAA4
00074000
00074000
00074000
00074000
00074000
00074000
00074000
00074000
00074000
00074000
00074000
00074000
00074000
00074000
00074000
00074000
00074000
00074000
00074000
00074000
00074000
ENDCHAR
STARTCHAR tcaron
ENCODING 357
SWIDTH 396 0
DWIDTH 14 0
BBX 13 23 1 0
BITMAP
000003C0
024003C0
078003C0
07800380
07800380
FFFFE340
ABEA9300
07800200
07800000
07800000
07800000
07800000
07800000
07800000
07800000
07800000
07800000
07800000
03800000
03C00000
02E00000
00BEA000
001BF000
ENDCHAR
STARTCHAR Tbar
ENCODING 358
SWIDTH 501 0
DWIDTH 18 0
BBX 15 23 0 0
BITMAP
7FFFFFF8
2AABEAA4
00038000
00038000
00038000
00038000
00038000
00038000
00038000
00078000
07FFFFC0
02ABEA80
00038000
00038000
00038000
00038000
00038000
00038000
00038000
00038000
00038000
00038000
00038000
ENDCHAR
STARTCHAR tbar
ENCODING 359
SWIDTH 350 0
DWIDTH 13 0
BBX 10 22 1 0
BITMAP
014000
038000
038000
038000
FFFFE0
ABEA90
038000
038000
038000
038000
038000
FFFFE0
ABEA90
038000
038000
038000
038000
038000
03C000
02E000
00BEA0
001BF0
ENDCHAR
STARTCHAR Utilde
ENCODING 360
SWIDTH 552 0
DWIDTH 20 0
BBX 14 30 3 0
BITMAP
02019000
0343F400
034B2800
024D1800
02FC1800
00640400
00000000
E00000B0
E00000B0
E00000B0
E00000B0
E00000B0
E00000B0
E00000B0
E00000B0
E00000B0
E00000B0
E00000B0
E00000B0
E00000B0
E00000B0
E00000B0
E00000B0
E00000B0
E00000B0
E00000F0
F00000E0
B80002D0
2FAAAF80
0BFFF900
ENDCHAR
STARTCHAR utilde
ENCODING 361
SWIDTH 507 0
DWIDTH 18 0
BBX 14 25 2 0
BITMAP
0342F000
0347B800
034A1800
02ED1800
01F81800
00000000
00000000
740001E0
740001E0
740001E0
740001E0
740001E0
740001E0
740001E0
740001E0
740001E0
740001E0
740001E0
740001E0
740001E0
740001E0
780002E0
3D0007E0
1FAABEE0
06FFE5E0
ENDCHAR
STARTCHAR Umacron
ENCODING 362
SWIDTH 552 0
DWIDTH 20 0
BBX 14 28 3 0
BITMAP
03FFFC00
02AAA800
00000000
00000000
00000000
E00000B0
E00000B0
E00000B0
E00000B0
E00000B0
E00000B0
E00000B0
E00000B0
E00000B0
E00000B0
E00000B0
E00000B0
E00000B0
E00000B0
E00000B0
E00000B0
E00000B0
E00000B0
E00000F0
F00000E0
B80002D0
2FAAAF80
0BFFF900
ENDCHAR
STARTCHAR umacron
ENCODING 363
SWIDTH 507 0
DWIDTH 18 0
BBX 14 23 2 0
BITMAP
03FFFC00
02AAA800
00000000
00000000
00000000
740001E0
740001E0
740001E0
740001E0
740001E0
740001E0
740001E0
740001E0
740001E0
740001E0
740001E0
740001E0
740001E0
740001E0
780002E0
3D0007E0
1FAABEE0
06FFE5E0
ENDCHAR
STARTCHAR Ubreve
ENCODING 364
SWIDTH 552 0
DWIDTH 20 0
BBX 14 30 3 0
BITMAP
01401400
02802400
01C03400
00D07000
007FD000
00000000
00000000
E00000B0
E00000B0
E00000B0
E00000B0
E00000B0
E00000B0
E00000B0
E00000B0
E00000B0
E00000B0
E00000B0
E00000B0
E00000B0
E00000B0
E00000B0
E00000B0
E00000B0
E00000B0
E00000F0
F00000E0
B80002D0
2FAAAF80
0BFFF900
ENDCHAR
STARTCHAR ubreve
ENCODING 365
SWIDTH 507 0
DWIDTH 18 0
BBX 14 25 2 0
BITMAP
01802800
02802800
01C02400
00E07000
007FD000
00000000
00000000
740001E0
740001E0
740001E0
740001E0
740001E0
740001E0
740001E0
740001E0
740001E0
740001E0
740001E0
740001E0
740001E0
740001E0
780002E0
3D0007E0
1FAABEE0
06FFE5E0
ENDCHAR
STARTCHAR Uring
ENCODING 366
SWIDTH 552 0
DWIDTH 20 0
BBX 14 31 3 0
BITMAP
002F8000
00BAE000
00D06000
00C07000
00C07000
00E0A000
00BFD000
001A4000
E00000B0
E00000B0
E00000B0
E00000B0
E00000B0
E00000B0
E00000B0
E00000B0
E00000B0
E00000B0
E00000B0
E00000B0
E00000B0
E00000B0
E00000B0
E00000B0
E00000B0
E00000B0
E00000F0
F00000E0
B80002D0
2FAAAF80
0BFFF900
ENDCHAR
STARTCHAR uring
ENCODING 367
SWIDTH 507 0
DWIDTH 18 0
BBX 14 26 2 0
BITMAP
00BF8000
01EAD000
01809000
01809000
01EAD000
00BF8000
00000000
00000000
740001E0
740001E0
740001E0
740001E0
740001E0
740001E0
740001E0
740001E0
740001E0
740001E0
740001E0
740001E0
740001E0
740001E0
780002E0
3D0007E0
1FAABEE0
06FFE5E0
ENDCHAR
STARTCHAR Uhungarumlaut
ENCODING 368
SWIDTH 552 0
DWIDTH 20 0
BBX 14 30 3 0
BITMAP
000B0740
001D0E00
00382D00
00B03400
00D0A000
00000000
00000000
E00000B0
E00000B0
E00000B0
E00000B0
E00000B0
E00000B0
E00000B0
E00000B0
E00000B0
E00000B0
E00000B0
E00000B0
E00000B0
E00000B0
E00000B0
E00000B0
E00000B0
E00000B0
E00000F0
F00000E0
B80002D0
2FAAAF80
0BFFF900
ENDCHAR
STARTCHAR uhungarumlaut
ENCODING 369
SWIDTH 507 0
DWIDTH 18 0
BBX 14 25 2 0
BITMAP
000B4380
000E0B40
002C1D00
00742800
00A07000
00000000
00000000
740001E0
740001E0
740001E0
740001E0
740001E0
740001E0
740001E0
740001E0
740001E0
740001E0
740001E0
740001E0
740001E0
740001E0
780002E0
3D0007E0
1FAABEE0
06FFE5E0
ENDCHAR
STARTCHAR Uogonek
ENCODING 370
SWIDTH 552 0
DWIDTH 20 0
BBX 14 27 3 -4
BITMAP
E00000B0
E00000B0
E00000B0
E00000B0
E00000B0
E00000B0
E00000B0
E00000B0
E00000B0
E00000B0
E00000B0
E00000B0
E00000B0
E00000B0
E00000B0
E00000B0
E00000B0
E00000B0
E00000F0
F00000E0
B80002D0
2FAAAF80
0BFFF900
00060000
000C0000
002A4000
002F4000
ENDCHAR
STARTCHAR uogonek
ENCODING 371
SWIDTH 503 0
DWIDTH 18 0
BBX 14 22 2 -4
BITMAP
740001E0
740001E0
740001E0
740001E0
740001E0
740001E0
740001E0
740001E0
740001E0
740001E0
740001E0
740001E0
740001E0
740001E0
780002E0
3D0007E0
1FAABEE0
06FFE5E0
00000340
00000900
00001E80
00001F40
ENDCHAR
STARTCHAR Wcircumflex
ENCODING 372
SWIDTH 795 0
DWIDTH 29 0
BBX 27 30 1 0
BITMAP
00000050000000
000001E8000000
0000028D000000
0000070B000000
00000E03800000
00000000000000
00000000000000
B00000F40000B4
B40001F80000F4
780001FC0000F0
380002DD0001E0
3C00038E0001E0
2D00074E0002D0
1D000B4B0003C0
1E000B074003C0
0F000E03800780
0B001D02C00B40
0B402C02C00B40
07403C01D00F00
03803800E00E00
03C07400B01E00
02C0B000742D00
01D0E000742C00
01E1D000383C00
00E1D0002C3800
00B2C0001D7400
00B380000EB400
007B40000EB000
003F00000BE000
003F000007D000
ENDCHAR
STARTCHAR wcircumflex
ENCODING 373
SWIDTH 682 0
DWIDTH 25 0
BBX 24 25 0 0
BITMAP
000003D00000
00000BB00000
00000D380000
00002C1D0000
000024090000
000000000000
000000000000
780002D0000E
3C0003E0001D
2D0007F0002D
1E000BB0003C
0E000E740078
0B000D3800B4
07401D2C00B0
07802C1D00E0
03C0380D01D0
02C0740E02C0
01D0700B03C0
00E0B0074780
00B0E0038740
0075D0028B00
003AC001CE00
002F8001ED00
002F4000FC00
001F4000B800
ENDCHAR
STARTCHAR Ycircumflex
ENCODING 374
SWIDTH 493 0
DWIDTH 18 0
BBX 16 30 1 0
BITMAP
00014000
000BD000
001DB000
00383800
00701C00
00000000
00000000
F000001E
B800002D
3C000078
2E0000B4
0F0001E0
0B4002D0
03C00780
02D00B40
00F01E00
00B42D00
003C7800
002DB400
000FE000
000BD000
00038000
00038000
00038000
00038000
00038000
00038000
00038000
00038000
00038000
ENDCHAR
STARTCHAR ycircumflex
ENCODING 375
SWIDTH 459 0
DWIDTH 17 0
BBX 15 30 1 -5
BITMAP
000B8000
001DD000
0028B000
00743400
00901800
00000000
00000000
F0000074
B40000B0
780000E0
3C0001D0
1D0002C0
0E000380
0B000B40
07400F00
03801E00
02C02D00
01D03C00
00F07800
00B4B400
0078F000
003DE000
002FC000
000B8000
00074000
000B0000
001E0000
007C0000
2AF40000
3F900000
ENDCHAR
STARTCHAR Ydieresis
ENCODING 376
SWIDTH 493 0
DWIDTH 18 0
BBX 16 30 1 0
BITMAP
00E00E00
00E00E00
00E00E00
00E00E00
00E00E00
00000000
00000000
F000001E
B800002D
3C000078
2E0000B4
0F0001E0
0B4002D0
03C00780
02D00B40
00F01E00
00B42D00
003C7800
002DB400
000FE000
000BD000
00038000
00038000
00038000
00038000
00038000
00038000
00038000
00038000
00038000
ENDCHAR
STARTCHAR Zacute
ENCODING 377
SWIDTH 482 0
DWIDTH 17 0
BBX 15 30 1 0
BITMAP
00000600
00002E00
00007800
0000B000
0001D000
00000000
00000000
3FFFFFF4
2AAAAAF4
000000F0
000002E0
000007C0
00000F40
00002E00
00007C00
0000B400
0001F000
0003D000
000B8000
001F0000
002D0000
00780000
00F40000
02E00000
07C00000
0B400000
1E000000
3D000000
7EAAAAA4
7FFFFFF8
ENDCHAR
STARTCHAR zacute
ENCODING 378
SWIDTH 405 0
DWIDTH 15 0
BBX 13 25 1 0
BITMAP
00007C00
0000F400
0002D000
00078000
00060000
00000000
00000000
7FFFFF00
6AAAAF00
00002D00
00007800
0000F400
0002E000
0007C000
000F4000
002E0000
007C0000
00B40000
01E00000
03C00000
0B400000
1E000000
3D000000
BEAAAA40
BFFFFF40
ENDCHAR
STARTCHAR Zdotaccent
ENCODING 379
SWIDTH 482 0
DWIDTH 17 0
BBX 15 29 1 0
BITMAP
0001D000
0002D000
0002D000
0001D000
00000000
00000000
3FFFFFF4
2AAAAAF4
000000F0
000002E0
000007C0
00000F40
00002E00
00007C00
0000B400
0001F000
0003D000
000B8000
001F0000
002D0000
00780000
00F40000
02E00000
07C00000
0B400000
1E000000
3D000000
7EAAAAA4
7FFFFFF8
ENDCHAR
STARTCHAR zdotaccent
ENCODING 380
SWIDTH 405 0
DWIDTH 15 0
BBX 13 25 1 0
BITMAP
000F0000
000F0000
000F0000
000F0000
00000000
00000000
00000000
7FFFFF00
6AAAAF00
00002D00
00007800
0000F400
0002E000
0007C000
000F4000
002E0000
007C0000
00B40000
01E00000
03C00000
0B400000
1E000000
3D000000
BEAAAA40
BFFFFF40
ENDCHAR
STARTCHAR Zcaron
ENCODING 381
SWIDTH 482 0
DWIDTH 17 0
BBX 15 30 1 0
BITMAP
00140500
00281D00
001D2800
000B7000
0003D000
00000000
00000000
3FFFFFF4
2AAAAAF4
000000F0
000002E0
000007C0
00000F40
00002E00
00007C00
0000B400
0001F000
0003D000
000B8000
001F0000
002D0000
00780000
00F40000
02E00000
07C00000
0B400000
1E000000
3D000000
7EAAAAA4
7FFFFFF8
ENDCHAR
STARTCHAR zcaron
ENCODING 382
SWIDTH 405 0
DWIDTH 15 0
BBX 13 25 1 0
BITMAP
01D07400
00A0A000
0035D000
002E8000
000A0000
00000000
00000000
7FFFFF00
6AAAAF00
00002D00
00007800
0000F400
0002E000
0007C000
000F4000
002E0000
007C0000
00B40000
01E00000
03C00000
0B400000
1E000000
3D000000
BEAAAA40
BFFFFF40
ENDCHAR
STARTCHAR florin
ENCODING 402
SWIDTH 494 0
DWIDTH 18 0
BBX 17 30 0 -5
BITMAP
0000002FC0
000001FA80
000003D000
0000078000
00000B0000
00000F0000
00001E0000
00001D0000
00002D0000
00002C0000
0000380000
003FFFFC00
002AFAA800
0000B00000
0000F00000
0000E00000
0001D00000
0002D00000
0002C00000
0003C00000
0007800000
0007400000
000B400000
000B000000
000E000000
001E000000
002D000000
0078000000
6BF0000000
7F80000000
ENDCHAR
STARTCHAR AEacute
ENCODING 508
SWIDTH 773 0
DWIDTH 28 0
BBX 26 30 0 0
BITMAP
00000000180000
00000000B80000
00000001E00000
00000002C00000
00000007400000
00000000000000
00000000000000
000000BFFFFFD0
000001FEAAAA90
000003ED000000
0000079D000000
00000F1D000000
00002E1D000000
00003C1D000000
0000B41D000000
0001F01D000000
0002D01D000000
0007801EAAAA40
000B401FFFFF40
001E001D000000
003D001D000000
0078001D000000
00FAAAAD000000
02FFFFFD000000
03C0001D000000
0B40001D000000
1F00001D000000
2D00001D000000
7800001EAAAA90
B000001FFFFFD0
ENDCHAR
STARTCHAR aeacute
ENCODING 509
SWIDTH 795 0
DWIDTH 29 0
BBX 25 25 2 0
BITMAP
0000000B800000
0000001E000000
0000003C000000
000000B4000000
00000090000000
00000000000000
00000000000000
0FFFE80BFFE000
06AABE3EAABC00
000007F4001E00
000002E0000B00
000002D0000740
000002D0000740
000002D0000740
06FFFFD0000740
1FAAAAD0000740
3C0002FFFFFF40
B40002EAAAAA00
B00002D0000000
B00002D0000000
B00002D0000000
B40003E0000000
3C000BF4000000
1FAABE7EAAAA00
06FFE41BFFFF40
ENDCHAR
STARTCHAR Oslashacute
ENCODING 510
SWIDTH 558 0
DWIDTH 20 0
BBX 17 30 2 0
BITMAP
0000150000
00003D0000
0000B80000
0001E00000
0002800000
0000000000
0000000000
02FFFF8100
0FEAAAE740
2E00007E00
3C00003C00
780000BD00
780001ED00
7800079D00
78000F1D00
78002D1D00
7800741D00
7800E01D00
7802C01D00
7807401D00
781E001D00
7838001D00
78B0001D00
79D0001D00
7B80001D00
7E00002D00
3D00002C00
7E00007800
EFEAABF000
82FFFF8000
ENDCHAR
STARTCHAR oslashacute
ENCODING 511
SWIDTH 521 0
DWIDTH 19 0
BBX 17 25 1 0
BITMAP
00000B8000
00001E0000
00003C0000
0000B40000
0000900000
0000000000
0000000000
00BFFE4000
03FAABE280
0B8000BF40
0F00007D00
1E0000BC00
1E0002FC00
1E000B3C00
1E003C3C00
1E00F03C00
1E03C03C00
1E0E003C00
1E78003C00
1EE0003C00
1F80003C00
1F00003800
7F8000B400
E3FAABE000
00BFFE4000
ENDCHAR
STARTCHAR uni0218
ENCODING 536
SWIDTH 562 0
DWIDTH 20 0
BBX 15 31 3 -8
BITMAP
06FFFE00
2FAAAFC0
B80002E0
F00000F0
F00000B4
E00000B4
E0000050
E0000000
F4000000
7E000000
1FE90000
01BFF900
0005BF40
000007E0
000001F0
000000B4
A00000B4
E00000B4
F00000B4
F00000B0
B80002E0
2FAAAFC0
06FFFE00
00000000
00074000
00074000
00074000
00070000
00070000
00060000
00050000
ENDCHAR
STARTCHAR uni0219
ENCODING 537
SWIDTH 427 0
DWIDTH 15 0
BBX 12 27 2 -9
BITMAP
1BFFF8
7EAAA4
F40000
E00000
E00000
F00000
B90000
2F9000
02FE40
001BE0
0000BC
00002D
00001D
00001E
00001E
00003D
AAAAF8
FFFF90
000000
002C00
003C00
003C00
003800
003800
003400
002000
001000
ENDCHAR
STARTCHAR circumflex
ENCODING 710
SWIDTH 326 0
DWIDTH 12 0
BBX 7 5 2 20
BITMAP
07C0
0EA0
2C74
742C
5004
ENDCHAR
STARTCHAR caron
ENCODING 711
SWIDTH 326 0
DWIDTH 12 0
BBX 7 5 2 20
BITMAP
701C
3838
1DB0
0AD0
0140
ENDCHAR
STARTCHAR uni02C9
ENCODING 713
SWIDTH 358 0
DWIDTH 13 0
BBX 9 2 2 21
BITMAP
BFFF40
6AAA40
ENDCHAR
STARTCHAR breve
ENCODING 728
SWIDTH 332 0
DWIDTH 12 0
BBX 8 4 2 21
BITMAP
A00A
A009
741D
1FF4
ENDCHAR
STARTCHAR dotaccent
ENCODING 729
SWIDTH 183 0
DWIDTH 7 0
BBX 3 4 2 21
BITMAP
B4
B4
B4
B4
ENDCHAR
STARTCHAR ring
ENCODING 730
SWIDTH 297 0
DWIDTH 11 0
BBX 6 7 2 20
BITMAP
1A40
BFD0
D0A0
C060
C060
EAE0
7F80
ENDCHAR
STARTCHAR ogonek
ENCODING 731
SWIDTH 243 0
DWIDTH 9 0
BBX 4 5 2 -4
BITMAP
06
0D
24
7A
7E
ENDCHAR
STARTCHAR tilde
ENCODING 732
SWIDTH 369 0
DWIDTH 13 0
BBX 8 6 2 19
BITMAP
907D
90EB
A1C3
A283
7F43
1902
ENDCHAR
STARTCHAR hungarumlaut
ENCODING 733
SWIDTH 377 0
DWIDTH 14 0
BBX 9 5 2 20
BITMAP
0782C0
0F0740
1D0E00
382C00
603400
ENDCHAR
STARTCHAR Mu
ENCODING 924
SWIDTH 527 0
DWIDTH 19 0
BBX 13 24 3 -5
BITMAP
E00002C0
E00002C0
E00002C0
E00002C0
E00002C0
E00002C0
E00002C0
E00002C0
E00002C0
E00002C0
E00002C0
E00002C0
E00002C0
E00002C0
F00003C0
F00007C0
F8000BC0
FFAABAC0
E6FFE2C0
E0000000
E0000000
E0000000
E0000000
E0000000
ENDCHAR
STARTCHAR Pi
ENCODING 928
SWIDTH 605 0
DWIDTH 22 0
BBX 20 24 1 0
BITMAP
6AAAAAAAA9
BFFFFFFFFD
00B0001E00
00B0001E00
00B0001E00
00B0001E00
00B0001E00
00B0001E00
00B0001E00
00B0001E00
00B0001E00
00B0001E00
00B0001E00
00B0001E00
00B0001E00
00B0001E00
00B0001E00
00B0001E00
00B0001E00
00B0001E00
00B0001E00
00B0001E00
00B0001E00
00B0001D00
ENDCHAR
STARTCHAR Sigma
ENCODING 931
SWIDTH 481 0
DWIDTH 17 0
BBX 14 24 2 0
BITMAP
6AAAAA80
BFFFFFD0
B8000000
3D000000
1E000000
0B400000
03C00000
02E00000
00F40000
00780000
002D0000
000F0000
000B4000
001F0000
003D0000
00780000
00F00000
02D00000
07800000
0F000000
2E000000
7C000000
BAAAAA80
BFFFFFD0
ENDCHAR
STARTCHAR uni0901
ENCODING 2305
SWIDTH 0 0
DWIDTH 0 0
BBX 12 7 -10 25
BITMAP
003800
502404
B0000E
B0000E
74002D
3EAAB8
0BFFE0
ENDCHAR
STARTCHAR uni0902
ENCODING 2306
SWIDTH 0 0
DWIDTH 0 0
BBX 3 2 -6 27
BITMAP
78
78
ENDCHAR
STARTCHAR uni0903
ENCODING 2307
SWIDTH 247 0
DWIDTH 9 0
BBX 3 13 3 3
BITMAP
B4
74
00
00
00
00
00
00
00
00
00
B4
74
ENDCHAR
STARTCHAR uni0905
ENCODING 2309
SWIDTH 598 0
DWIDTH 22 0
BBX 21 23 1 0
BITMAP
1FFE0001FFC0
1AABC002EA80
0001E002D000
0000B002D000
00007402D000
00007402D000
00007402D000
0000B402D000
0000F002D000
0006D002D000
07FF4002D000
06ABC002D000
0001FAAAD000
0000BFFFD000
00007402D000
00007402D000
00007402D000
0000B402D000
0000F002D000
0006E002D000
BFFF8002D000
6AA40002D000
00000001D000
ENDCHAR
STARTCHAR uni0906
ENCODING 2310
SWIDTH 828 0
DWIDTH 30 0
BBX 30 23 1 0
BITMAP
1FFE0001FFFFFFD0
1AAFC002EAAAEA80
0001E002C001E000
0000B002C001E000
0000B402C001E000
00007402C001E000
00007402C001E000
0000B402C001E000
0000F002C001E000
0006D002C001E000
0BFF4002C001E000
06AB8002C001E000
0001EAABC001E000
0000BFFFC001E000
0000B402C001E000
00007402C001E000
00007402C001E000
0000B402C001E000
0000F002C001E000
0006D002C001E000
BFFF8002C001E000
6AA40002C001E000
00000002C001D000
ENDCHAR
STARTCHAR uni0907
ENCODING 2311
SWIDTH 478 0
DWIDTH 17 0
BBX 19 25 -1 -2
BITMAP
7FFFFFFFF8
6AAAAABEA4
0000002C00
0000002C00
0000002C00
0006AABC00
007FFFF800
00F4000000
01E0000000
01D0000000
01D0000000
01E0000000
00F4000000
007FFFE400
0006AABD00
0000001E00
0000000F00
01C0000B00
02D0000B00
02D0000F00
02F4002E00
02EFFFF800
02D6AA5000
02D0000000
01C0000000
ENDCHAR
STARTCHAR uni0908
ENCODING 2312
SWIDTH 478 0
DWIDTH 17 0
BBX 19 34 -1 -2
BITMAP
000000BFD0
000002FA80
00000B8000
00000B0000
00000F0000
00000E0000
00000E0000
00000E0000
00000B4000
7FFFFFFFF8
6AAAAABEA4
0000002C00
0000002C00
0000002C00
0006AABC00
007FFFF800
00F4000000
01E0000000
01D0000000
01D0000000
01E0000000
00F4000000
007FFFE400
0006AABD00
0000001E00
0000000F00
01C0000B00
02D0000B00
02D0000F00
02F4002E00
02EFFFF800
02D6AA5000
02D0000000
01C0000000
ENDCHAR
STARTCHAR uni0909
ENCODING 2313
SWIDTH 471 0
DWIDTH 17 0
BBX 19 23 -1 0
BITMAP
7FFFFFFFF4
6AAAAAFAA4
0000007800
0000002C00
0000002D00
0000001D00
0000001D00
0000002D00
0000002C00
0000007800
0000AAF000
0001FFE000
000001B800
0000002D00
0000001D00
0740001E00
0740001E00
0740001E00
0780001D00
0380002D00
02E0007C00
00FEAAF400
002FFF8000
ENDCHAR
STARTCHAR uni090A
ENCODING 2314
SWIDTH 661 0
DWIDTH 24 0
BBX 26 23 -1 0
BITMAP
7FFFFFFFFFFFD0
6AAAAAFAAAAA80
00000078000000
0000002C000000
0000002D000000
0000001D000000
0000001D000000
0000002D000000
0000002C000000
00000078000000
0000AAE0000000
0001FFFFFF9000
000001BEAAF400
0000002D003C00
0000001D001D00
0740001E000E00
0740001E000E00
0740001E000E00
0780001D001E00
03C0002D002D00
02E0007800BC00
00BEAAF41FF000
002FFF801A4000
ENDCHAR
STARTCHAR uni090B
ENCODING 2315
SWIDTH 753 0
DWIDTH 27 0
BBX 29 23 -1 0
BITMAP
7FFFFFFFFFFFFF80
6AAAAAAEAAAAAA40
0000001D00000000
0000001D00000000
0000001D00000000
0000001D00000000
0000001D00000000
001BFE5D000BD000
00BEAAFD007ED000
01F0007D01F5D000
02D0002D0B81D000
02C0001D2E01D000
02C0001EF801D000
02C0001FD001D000
0180001F407FD000
000000BD01F54000
000002FD03C00000
00001F5D03800000
00007D1D03800000
0002E01D03800000
000B801D02D00000
007D001D01FA9000
01F4001D006FE000
ENDCHAR
STARTCHAR uni090C
ENCODING 2316
SWIDTH 676 0
DWIDTH 24 0
BBX 26 31 -1 -8
BITMAP
7FFFFFFFFFFFE0
6AAAAAAAAAFA90
0000000000B000
0000000000B000
0000000000B000
0000000000B000
0000000000B000
001BF906F9B000
007EAF6FAFF000
00F402F401F000
01E001F000F000
01D000E000B000
01D000E000B000
01D000E000B000
01D000E000B000
01D0009000B000
01D0000000B000
01D0000000B000
00E0000000B000
00B9000000B000
002FFC0000B000
0005A8001BF000
00000000BEA000
00000000F00000
00000001D00000
00000001D00000
00000001D00000
00000000E00050
00000000B806E0
000000002FFF80
0000000005A400
ENDCHAR
STARTCHAR uni090D
ENCODING 2317
SWIDTH 521 0
DWIDTH 19 0
BBX 21 31 -1 1
BITMAP
002C00074000
002C00074000
001D000B4000
000FAAAE0000
0002FFF80000
000000000000
000000000000
000000000000
000000000000
7FFFFFFFFF40
6AFAAAAAEA40
00B00001D000
00B00001D000
00B00001D000
00B00001D000
00B00001D000
00B00001D000
00B00001D000
00B00002C000
00B0000B8000
00B007FE0000
00B006A40000
00B000000000
00B000000000
00B000000000
00B000000000
00B000000000
007400000000
003D00000000
001FAAAA4000
0002FFFF4000
ENDCHAR
STARTCHAR uni090E
ENCODING 2318
SWIDTH 522 0
DWIDTH 19 0
BBX 21 31 -1 1
BITMAP
0000A0000000
0000B0000000
0000B4000000
00003D000000
00001BD00000
000001FD0000
0000001F8000
00000002D000
00000001D000
7FFFFFFFFF40
6AFAAAAAEA40
00B00001D000
00B00001D000
00B00001D000
00B00001D000
00B00001D000
00B00001D000
00B00001D000
00B00002C000
00B0000B8000
00B007FE0000
00B006A40000
00B000000000
00B000000000
00B000000000
00B000000000
00B000000000
007400000000
003D00000000
001FAAAA4000
0002FFFF4000
ENDCHAR
STARTCHAR uni090F
ENCODING 2319
SWIDTH 526 0
DWIDTH 19 0
BBX 21 22 -1 1
BITMAP
7FFFFFFFFF40
6AFAAAAAEA40
00B00001D000
00B00001D000
00B00001D000
00B00001D000
00B00001D000
00B00001D000
00B00001D000
00B00002C000
00B0000B8000
00B007FE0000
00B006A40000
00B000000000
00B000000000
00B000000000
00B000000000
00B000000000
007400000000
003D00000000
001FAAAA4000
0002FFFF4000
ENDCHAR
STARTCHAR uni0910
ENCODING 2320
SWIDTH 526 0
DWIDTH 19 0
BBX 21 31 -1 1
BITMAP
00001E000000
00000B400000
000003C00000
000001E00000
000000B40000
0000003C0000
0000001E0000
000000074000
00000002C000
7FFFFFFFFF40
6AFAAAAAEA40
00B00001D000
00B00001D000
00B00001D000
00B00001D000
00B00001D000
00B00001D000
00B00001D000
00B00002C000
00B0000B8000
00B007FE0000
00B006A40000
00B000000000
00B000000000
00B000000000
00B000000000
00B000000000
007400000000
003D00000000
001FAAAA4000
0002FFFF4000
ENDCHAR
STARTCHAR uni0911
ENCODING 2321
SWIDTH 829 0
DWIDTH 30 0
BBX 30 31 1 0
BITMAP
0000000140001000
0000000380007400
00000002C000B000
00000001E001F000
00000000BFFFD000
0000000016A90000
0000000000000000
0000000000000000
1FFE0001FFFFFFD0
1AABC002EAAAFA90
0001E002D000E000
0000B002D000E000
00007402D000E000
00007402D000E000
00007402D000E000
0000B402D000E000
0000F002D000E000
0006D002D000E000
07FF4002D000E000
06ABC002D000E000
0001FAAAD000E000
0000BFFFD000E000
00007402D000E000
00007402D000E000
00007402D000E000
0000B402D000E000
0000F002D000E000
0006E002D000E000
BFFF8002D000E000
6AA40002D000E000
00000001D000E000
ENDCHAR
STARTCHAR uni0912
ENCODING 2322
SWIDTH 828 0
DWIDTH 30 0
BBX 30 32 1 0
BITMAP
00000000B0000000
00000000B0000000
0000000074000000
000000003D000000
000000000BD00000
0000000001FD0000
00000000001F8000
000000000002D000
000000000001E000
1FFE0001FFFFFFD0
1AABC002EAAAEA80
0001E002D001E000
0000B002D001E000
00007402D001E000
00007402D001E000
00007402D001E000
0000B402D001E000
0000F002D001E000
0006D002D001E000
07FF4002D001E000
06ABC002D001E000
0001FAAAD001E000
0000BFFFD001E000
00007402D001E000
00007402D001E000
00007402D001E000
0000B402D001E000
0000F002D001E000
0006E002D001E000
BFFF8002D001E000
6AA40002D001E000
00000001D001D000
ENDCHAR
STARTCHAR uni0913
ENCODING 2323
SWIDTH 829 0
DWIDTH 30 0
BBX 30 32 1 0
BITMAP
000000000F000000
000000000B800000
0000000003D00000
0000000001F00000
0000000000B80000
00000000002D0000
00000000000F0000
0000000000078000
000000000001D000
1FFE0001FFFFFFD0
1AABC002EAAAFA90
0001E002D000E000
0000B002D000E000
00007402D000E000
00007402D000E000
00007402D000E000
0000B402D000E000
0000F002D000E000
0006D002D000E000
07FF4002D000E000
06ABC002D000E000
0001FAAAD000E000
0000BFFFD000E000
00007402D000E000
00007402D000E000
00007402D000E000
0000B402D000E000
0000F002D000E000
0006E002D000E000
BFFF8002D000E000
6AA40002D000E000
00000001D000E000
ENDCHAR
STARTCHAR uni0914
ENCODING 2324
SWIDTH 829 0
DWIDTH 30 0
BBX 30 32 1 0
BITMAP
000000001D00E000
000000000F40E000
000000000780E000
0000000002D0E000
0000000000B0E000
000000000038E000
00000000001DE000
00000000000BA000
000000000002E000
1FFE0001FFFFFFD0
1AABC002EAAAFA90
0001E002D000E000
0000B002D000E000
00007402D000E000
00007402D000E000
00007402D000E000
0000B402D000E000
0000F002D000E000
0006D002D000E000
07FF4002D000E000
06ABC002D000E000
0001FAAAD000E000
0000BFFFD000E000
00007402D000E000
00007402D000E000
00007402D000E000
0000B402D000E000
0000F002D000E000
0006E002D000E000
BFFF8002D000E000
6AA40002D000E000
00000001D000E000
ENDCHAR
STARTCHAR uni0915
ENCODING 2325
SWIDTH 725 0
DWIDTH 26 0
BBX 28 23 -1 0
BITMAP
7FFFFFFFFFFFFE
6AAAAABEAAAAA9
0000002C000000
0000002C000000
0000002C000000
0006A42C5A9000
003FF82DFFFD00
00F8002F401F00
01E0002D000780
02C0002C000380
02C0002C0003C0
02C0002C0002C0
02C0002C0002C0
02C0002C0002C0
02C0002C0003C0
02C0003C000380
01E0007C000780
00F801FC001F00
007FFFAC1FFD00
0006A52C1A9000
0000002C000000
0000002C000000
0000002C000000
ENDCHAR
STARTCHAR uni0916
ENCODING 2326
SWIDTH 696 0
DWIDTH 25 0
BBX 27 23 -1 0
BITMAP
7FFFFFFFFFFFF8
6AAABAAAAABEA4
0000B400003800
0000B400003800
0000B400003800
0000B400003800
0000B406F43800
0000B41FA43800
0000B03D003800
0000F078003800
0002E074003800
0BFF80B4003800
0BA900B4003800
03C00074003800
01E00078007800
00B4003D00B800
003C001FABB800
001E0006FE3800
000B4000003800
0003C000003800
0001E000003800
0000B400003800
00007800003800
ENDCHAR
STARTCHAR uni0917
ENCODING 2327
SWIDTH 494 0
DWIDTH 18 0
BBX 20 23 -1 0
BITMAP
7FFFFFFFFD
6AAFAAAEA8
001E001D00
001E001D00
001E001D00
001E001D00
001E001D00
001E001D00
001E001D00
001E001D00
001E001D00
001D001D00
003C001D00
0AF4001D00
1F90001D00
0000001D00
0000001D00
0000001D00
0000001D00
0000001D00
0000001D00
0000001D00
0000001D00
ENDCHAR
STARTCHAR uni0918
ENCODING 2328
SWIDTH 559 0
DWIDTH 20 0
BBX 22 23 -1 0
BITMAP
7FFFFFFFFFE0
6ABEAAAAFA90
00F00000F000
01D00000F000
01D00000F000
01D00000F000
01D00000F000
00E00000F000
00B40000F000
002FFC00F000
007EA400F000
00F00000F000
01D00000F000
01D00000F000
01D00000F000
01D00000F000
01E00001F000
00F40003F000
007EAAAEF000
001BFFF8F000
00000000F000
00000000F000
00000000E000
ENDCHAR
STARTCHAR uni0919
ENCODING 2329
SWIDTH 505 0
DWIDTH 18 0
BBX 20 23 -1 0
BITMAP
7FFFFFFFFE
6AAAAABEA9
0000003800
0000003800
0000003800
0000003800
001BFFF800
00BEAAA400
00E0000000
01D0000000
01D00000F0
01E0000060
00F4000000
007FFFE400
0006AABD00
0000001E00
0000000F00
0040000F00
01D0000F00
01D0000E00
01E0001E00
00BEAABC00
002FFFE400
ENDCHAR
STARTCHAR uni091A
ENCODING 2330
SWIDTH 563 0
DWIDTH 20 0
BBX 22 23 -1 0
BITMAP
7FFFFFFFFFE0
6AAAAAAAFA90
00000000B000
00000000B000
00000000B000
00000000B000
00000000B000
1FFFFF80B000
0AAFEA40B000
001E0000B000
003C0000B000
00380000B000
00780000B000
00780000B000
00380000F000
003C0000F000
002E0002F000
000BEAAFB000
0002FFF8B000
00000000B000
00000000B000
00000000B000
00000000B000
ENDCHAR
STARTCHAR uni091B
ENCODING 2331
SWIDTH 581 0
DWIDTH 21 0
BBX 23 22 -1 1
BITMAP
7FFFFFFFFFF4
6ABEAAAABAA4
00B400007400
00E000007400
01E000007400
01E000007400
01E000007400
01E0003FF000
00E0002AF400
00B800003C00
001FF4002D00
003EA0001D00
00B400001D00
00E000001D00
01E000001D00
01E000001D00
01E000001D00
01E000002D00
00F000003C00
00B90001B400
002FFFFFE000
0005AAA90000
ENDCHAR
STARTCHAR uni091C
ENCODING 2332
SWIDTH 547 0
DWIDTH 20 0
BBX 21 23 -1 0
BITMAP
7FFFFFFFFFC0
6AAAAAAAEA80
00000001D000
00000001D000
00000001D000
00000001D000
00000001D000
01AAAAAAD000
01FFFFFFD000
0001F001D000
00007801D000
00003C01D000
00002C01D000
00002C01D000
00002C01D000
00002C01D000
00003C01D000
00007801D000
0001F401D000
0FFFE001D000
06A90001D000
00000001D000
00000001D000
ENDCHAR
STARTCHAR uni091D
ENCODING 2333
SWIDTH 664 0
DWIDTH 24 0
BBX 26 24 -1 -1
BITMAP
7FFFFFFFFFFFD0
6AAAAAFAAAFA90
000000E000E000
000000E000E000
000000E000E000
001BFFE000E000
00BEAA9000E000
00E0000000E000
01D0000000E000
01D0000000E000
01E0000000E000
00F4000001E000
007FFFFFFFE000
0006AAFAAAE000
0000007400E000
0000003800E000
02C0003800E000
02D0003800E000
02D0007800E000
02F401B400E000
02EFFFE000E000
02C6A94000E000
02C0000000E000
02C00000000000
ENDCHAR
STARTCHAR uni091E
ENCODING 2334
SWIDTH 592 0
DWIDTH 21 0
BBX 23 23 -1 0
BITMAP
7FFFFFFFFFF8
6AAAAAAABEA4
000000002C00
000000002C00
000000002C00
000000002C00
02FF90002C00
01AAF4002C00
00003C002C00
00001D002C00
00001D002C00
00000D002C00
00000FFFFC00
00000EAABC00
00000D002C00
00001D002C00
00002D002C00
0000BC002C00
07FFF0002C00
06AA40002C00
000000002C00
000000002C00
000000002C00
ENDCHAR
STARTCHAR uni091F
ENCODING 2335
SWIDTH 485 0
DWIDTH 17 0
BBX 19 22 -1 1
BITMAP
7FFFFFFFFC
6AAAAABEA8
0000003800
0000003800
0000003800
0000003800
0000003800
001BFFF800
007EAAA400
00F4000000
01D0000000
02D0000000
02C0000000
02C0000000
02C0000240
02C0000380
02D0000380
01D0000780
01E0000B40
00B9002E00
002FFFF800
0005AA5000
ENDCHAR
STARTCHAR uni0920
ENCODING 2336
SWIDTH 512 0
DWIDTH 18 0
BBX 20 22 -1 1
BITMAP
7FFFFFFFFF
6AAAAABEAA
0000002C00
0000002C00
0000002C00
0000002C00
000000B800
001BFFF000
007EAABD00
00F4001F00
01D0000780
02D0000380
02C0000380
02C0000380
02C0000380
02C0000380
02C0000380
02D0000780
01E0000B40
00B9002F00
002FFFF800
0005AA9000
ENDCHAR
STARTCHAR uni0921
ENCODING 2337
SWIDTH 475 0
DWIDTH 17 0
BBX 19 23 -1 0
BITMAP
7FFFFFFFF8
6AAAAABEA4
0000003800
0000003800
0000003800
0000003800
001BFFF800
00BEAAA400
00E0000000
01D0000000
01D0000000
01E0000000
00F4000000
007FFFE400
0006AABD00
0000001E00
0000000F00
0040000F00
01D0000F00
01D0000E00
00E0002E00
00BEAABC00
001BFFE000
ENDCHAR
STARTCHAR uni0922
ENCODING 2338
SWIDTH 485 0
DWIDTH 17 0
BBX 19 22 -1 1
BITMAP
7FFFFFFFFC
6AAAAABEA8
0000003C00
0000003C00
0000003C00
0000003C00
0005AABC00
002FFFF800
00B9000000
00E0000000
01D0000000
01D0000000
02D006F900
02D00FAF40
02D01D0780
02D01D0380
01D01C0380
01D0000380
00E0000780
00B9001F00
002FFFFD00
0005AA9000
ENDCHAR
STARTCHAR uni0923
ENCODING 2339
SWIDTH 681 0
DWIDTH 25 0
BBX 26 23 -1 0
BITMAP
7FFFFFFFFFFFF0
6AFAAABAAABAA0
00E00074007400
00E00074007400
00E00074007400
00E00074007400
00E00074007400
00E00074007400
00E00074007400
00E00074007400
00E00074007400
00E00074007400
00E000B4007400
00B000B0007400
007902E0007400
002FFF80007400
0001A500007400
00000000007400
00000000007400
00000000007400
00000000007400
00000000007400
00000000007400
ENDCHAR
STARTCHAR uni0924
ENCODING 2340
SWIDTH 496 0
DWIDTH 18 0
BBX 20 23 -1 0
BITMAP
7FFFFFFFFD
6AAAAAAFA8
0000001E00
0000001E00
0000001E00
0000001E00
0000001E00
0000001E00
001BFFFE00
00BEAAAE00
00F0001E00
01D0001E00
02D0001E00
02C0001E00
02C0001E00
02C0001E00
02C0001E00
02C0001E00
02D0001E00
01D0001E00
00F0001E00
007E901E00
001BD00E00
ENDCHAR
STARTCHAR uni0925
ENCODING 2341
SWIDTH 593 0
DWIDTH 21 0
BBX 20 23 2 0
BITMAP
02FE000BFE
0FABC00BA9
2D01E00B00
2C00E00B00
2800F00B00
2800F00B00
0000E00B00
0000E00B00
0002D00B00
6AAF800B00
BFFE000B00
B000000B00
B000000B00
B000000B00
B000000F00
7400001F00
3D00007F00
1FAAAAEB00
02FFFF8B00
0000000B00
0000000B00
0000000B00
0000000B00
ENDCHAR
STARTCHAR uni0926
ENCODING 2342
SWIDTH 489 0
DWIDTH 18 0
BBX 19 23 -1 0
BITMAP
7FFFFFFFFC
6AAAAAAEA8
0000001D00
0000001D00
0000001D00
0000001D00
001BFFFD00
007EAAA800
00F4000000
01E0000000
01D0000000
02D0000000
02D0000000
02D0000000
02D0000B00
01D0000B00
01E0000F00
00F4001F00
007EAABF00
001BFF9B00
0000000B00
0000000B00
0000000B00
ENDCHAR
STARTCHAR uni0927
ENCODING 2343
SWIDTH 560 0
DWIDTH 20 0
BBX 22 23 -1 0
BITMAP
7FFFD07FFFE0
6ABE806AFA90
00F00000F000
01E00000F000
01D00000F000
01D00000F000
01D00000F000
00E00000F000
00B80000F000
002FFC00F000
007EA800F000
00F00000F000
01E00000F000
01D00000F000
01D00000F000
01D00000F000
01D00000F000
00E00002F000
00B9000BF000
002FFFFDF000
0005AA94F000
00000000F000
00000000E000
ENDCHAR
STARTCHAR uni0928
ENCODING 2344
SWIDTH 473 0
DWIDTH 17 0
BBX 19 23 -1 0
BITMAP
7FFFFFFFF4
6AAAAABEA4
0000003800
0000003800
0000003800
0000003800
0000003800
0000003800
0000003800
00BFFFF800
02EAAAB800
0780003800
0740003800
0740003800
0380003800
0280003800
0000003800
0000003800
0000003800
0000003800
0000003800
0000003800
0000003800
ENDCHAR
STARTCHAR uni0928093C
ENCODING 2345
SWIDTH 473 0
DWIDTH 17 0
BBX 19 24 -1 -1
BITMAP
7FFFFFFFF4
6AAAAABEA4
0000003800
0000003800
0000003800
0000003800
0000003800
0000003800
0000003800
00BFFFF800
02EAAAB800
0780003800
0740003800
0740003800
0380003800
0280003800
0000003800
0000003800
0000003800
0000003800
0000003800
0000003800
000B402800
0006000000
ENDCHAR
STARTCHAR uni092A
ENCODING 2346
SWIDTH 503 0
DWIDTH 18 0
BBX 20 23 -1 0
BITMAP
7FFFFFFFFE
6AFAAAAFA9
00E0000E00
00E0000E00
00E0000E00
00E0000E00
00E0000E00
00E0000E00
00E0000E00
00E0000E00
00E0000E00
00E0000E00
00F0000E00
00B4001E00
007D00BE00
001FFFDE00
0001A94E00
0000000E00
0000000E00
0000000E00
0000000E00
0000000E00
0000000E00
ENDCHAR
STARTCHAR uni092B
ENCODING 2347
SWIDTH 739 0
DWIDTH 27 0
BBX 28 23 -1 0
BITMAP
7FFFFFFFFFFFFF
6AFAAAAEAAAAAA
00E0001D000000
00E0001D000000
00E0001D000000
00E0001D1A9000
00E0001EFFFE00
00E0001F901B80
00E0001F0003C0
00E0001E0002D0
00E0001D0001D0
00E0001D0001D0
00F0002D0001D0
00B8007D0001D0
002FAAED0001D0
0006FE5D0002D0
0000001D0003C0
0000001D001B80
0000001D0FFE00
0000001D069400
0000001D000000
0000001D000000
0000001D000000
ENDCHAR
STARTCHAR uni092C
ENCODING 2348
SWIDTH 491 0
DWIDTH 18 0
BBX 19 23 -1 0
BITMAP
7FFFFFFFFC
6AAAAAAEA8
0000001D00
0000001D00
0000001D00
001BFC1D00
007EA41D00
00F4001D00
01FC001D00
02CB001D00
02C3801D00
02C0E01D00
02C0381D00
02C01E1D00
02C0079D00
02C001FD00
01D0007D00
00F0007D00
007EAAED00
001BFE5D00
0000001D00
0000001D00
0000001D00
ENDCHAR
STARTCHAR uni092D
ENCODING 2349
SWIDTH 491 0
DWIDTH 18 0
BBX 19 23 -1 0
BITMAP
7E000FFFFC
6F800AAEA8
02D0001D00
01E0001D00
00E0001D00
00E0001D00
00E0001D00
00E0001D00
00E0001D00
00E0001D00
00FAAAAD00
00FFFFFD00
00E0001D00
00E0001D00
00E0001D00
00E0001D00
0090001D00
0000001D00
0000001D00
0000001D00
0000001D00
0000001D00
0000001D00
ENDCHAR
STARTCHAR uni092E
ENCODING 2350
SWIDTH 490 0
DWIDTH 18 0
BBX 19 23 -1 0
BITMAP
7FFFFFFFFC
6AFAAAAEA8
00E0001D00
00E0001D00
00E0001D00
00E0001D00
00E0001D00
00E0001D00
00E0001D00
00E0001D00
00FAAAAD00
00FFFFFD00
00E0001D00
00E0001D00
00E0001D00
00E0001D00
0090001D00
0000001D00
0000001D00
0000001D00
0000001D00
0000001D00
0000001D00
ENDCHAR
STARTCHAR uni092F
ENCODING 2351
SWIDTH 564 0
DWIDTH 20 0
BBX 22 23 -1 0
BITMAP
7FFFFFFFFFE0
6AABEAAAFA90
0000B000B000
00007400B000
00007800B000
00007800B000
00007400B000
0000B400B000
01ABE000B000
02FE4000B000
02D00000B000
02D00000B000
02D00000B000
02D00000B000
01D00000F000
01E00001F000
00B40007F000
002FAAAEB000
0006FFF8B000
00000000B000
00000000B000
00000000B000
00000000B000
ENDCHAR
STARTCHAR uni0930
ENCODING 2352
SWIDTH 337 0
DWIDTH 12 0
BBX 14 23 -1 0
BITMAP
7FFFFFE0
6AAABA90
0000B400
0000B400
0000B400
0000B400
0000B400
0000B400
0000B000
0000F000
0002E000
0BFF8000
0BA90000
03C00000
01E00000
00B40000
00380000
001E0000
000B4000
00078000
0002D000
0000F000
00007800
ENDCHAR
STARTCHAR uni0930093C
ENCODING 2353
SWIDTH 347 0
DWIDTH 12 0
BBX 14 24 -1 -1
BITMAP
7FFFFFF0
6AAABEA0
00007800
00007800
00007800
00007800
00007800
00007800
00007400
0000B400
0001F000
07FFD000
07E90000
02D00000
00F00000
00780000
002D0000
001E0000
000B4000
0003C000
0001E000
0000B400
19003C00
1D000000
ENDCHAR
STARTCHAR uni0932
ENCODING 2354
SWIDTH 676 0
DWIDTH 24 0
BBX 26 23 -1 0
BITMAP
7FFFFFFFFFFFE0
6AAAAAAAAAFA90
0000000000B000
0000000000B000
0000000000B000
0000000000B000
0000000000B000
001BF906F9B000
007EAF6FAFF000
00F402F402F000
01E001F000F000
01D000E000B000
01D000E000B000
01D000E000B000
01D000E000B000
01D0009000B000
01D0000000B000
01D0000000B000
00E0000000B000
00B9000000B000
002FFC0000B000
0005A80000B000
0000000000B000
ENDCHAR
STARTCHAR uni0933
ENCODING 2355
SWIDTH 672 0
DWIDTH 24 0
BBX 26 22 -1 1
BITMAP
7FFFFFFFFFFFE0
6AAAAAAABAAA90
00000000740000
00000000740000
00000000740000
00000000740000
0005A401B80000
002FFF4BFF8000
00B807ED02E000
01E001F400B400
01D000F0007400
02C000F0003800
02C000F0003800
02C000F0003800
02C000F0003800
02C000F0003800
02C000F0003800
02D000F0007800
01E001F400B400
00B807FD02E000
002FFF5FFF8000
0005A401A90000
ENDCHAR
STARTCHAR uni0933093C
ENCODING 2356
SWIDTH 672 0
DWIDTH 24 0
BBX 26 25 -1 -2
BITMAP
7FFFFFFFFFFFE0
6AAAAAAABAAA90
00000000740000
00000000740000
00000000740000
00000000740000
0005A401B80000
002FFF4BFF8000
00B807ED02E000
01E001F400B400
01D000F0007400
02C000F0003800
02C000F0003800
02C000F0003800
02C000F0003800
02C000F0003800
02C000F0003800
02D000F0007800
01E001F400B400
00B807FD02E000
002FFF5FFF8000
0005A401A90000
00000000000000
00019000000000
0001D000000000
ENDCHAR
STARTCHAR uni0935
ENCODING 2357
SWIDTH 484 0
DWIDTH 17 0
BBX 19 23 -1 0
BITMAP
7FFFFFFFFC
6AAAAABEA4
0000002C00
0000002C00
0000002C00
0006A42C00
002FF82C00
00F8002C00
01E0002C00
02D0002C00
02C0002C00
02C0002C00
02C0002C00
02C0002C00
02C0002C00
02D0002C00
01E0007C00
00F801FC00
002FFFAC00
0006A92C00
0000002C00
0000002C00
0000002C00
ENDCHAR
STARTCHAR uni0936
ENCODING 2358
SWIDTH 614 0
DWIDTH 22 0
BBX 22 23 1 0
BITMAP
01BF9000BFE0
07EAF400FA90
0F007800E000
1E002C00E000
1D002C00E000
1D002C00E000
1D002C00E000
00002C00E000
00002C00E000
00003C00E000
0000B800E000
6AABF000E000
7FFF8000E000
3C000000E000
1E000000E000
0B400000E000
03C00000E000
01E00000E000
00B40000E000
003C0000E000
001E0000E000
000B4000E000
0003C000E000
ENDCHAR
STARTCHAR uni0937
ENCODING 2359
SWIDTH 505 0
DWIDTH 18 0
BBX 20 23 -1 0
BITMAP
7FFFFFFFFE
6AFAAAAFA9
00F4000B00
00FD000B00
00EB000B00
00E2C00B00
00E0A00B00
00E0380B00
00E01E0B00
00E0074B00
00E001DB00
00E000BF00
00F0002F00
00B4001F00
007D007F00
001FFFEB00
0001A94B00
0000000B00
0000000B00
0000000B00
0000000B00
0000000B00
0000000B00
ENDCHAR
STARTCHAR uni0938
ENCODING 2360
SWIDTH 575 0
DWIDTH 21 0
BBX 23 23 -1 0
BITMAP
7FFFFFFFFFF4
6AAAEAAABAA0
0001D0007400
0001D0007400
0001D0007400
0001D0007400
0001D0007400
0001D0007400
0001D0007400
0002C0007400
000B80007400
0BFFFFFFF400
0BAAAAAAB400
078000007400
02D000007400
00F000007400
007800007400
002C00007400
001E00007400
000B40007400
000380007400
0002D0007400
0000F0007400
ENDCHAR
STARTCHAR uni0939
ENCODING 2361
SWIDTH 481 0
DWIDTH 17 0
BBX 19 25 -1 -2
BITMAP
7FFFFFFFF8
6AAAAABEA4
0000002C00
0000002C00
0000002C00
0006AABC00
002FFFFC00
00B8000000
00F0000000
00E0000000
00E0000000
00F0000000
00B8000000
002FFFE000
002EAAFC00
00B4002D00
00E0000E00
01D0000E00
01D0000E00
01D0000000
01E0000000
00F0000000
0079000000
002FFFFD00
0001AAA800
ENDCHAR
STARTCHAR uni093C
ENCODING 2364
SWIDTH 0 0
DWIDTH 0 0
BBX 2 2 -6 -3
BITMAP
60
B0
ENDCHAR
STARTCHAR uni093D
ENCODING 2365
SWIDTH 529 0
DWIDTH 19 0
BBX 13 23 3 0
BITMAP
02FFFD00
0FAAA900
1E000000
1D000000
2D000000
1D000000
1E000000
0F400000
07E00000
01FD0000
002F9000
0006F800
00007E00
00000B40
00000380
000003C0
000003C0
000003C0
600003C0
78000380
2E000B40
0BEABE00
01BFF800
ENDCHAR
STARTCHAR uni093E
ENCODING 2366
SWIDTH 231 0
DWIDTH 8 0
BBX 10 23 -1 0
BITMAP
7FFFE0
6AFA90
00B000
00B000
00B000
00B000
00B000
00B000
00B000
00B000
00B000
00B000
00B000
00B000
00B000
00B000
00B000
00B000
00B000
00B000
00B000
00B000
00B000
ENDCHAR
STARTCHAR uni093F
ENCODING 2367
SWIDTH 231 0
DWIDTH 8 0
BBX 24 32 -1 0
BITMAP
0006FFFFFF90
002FAAAAAAF8
00780000003C
00B40000001D
00B00000001E
00B00000001E
00B000000009
00B000000000
00B000000000
7FFFE0000000
6AFA90000000
00B000000000
00B000000000
00B000000000
00B000000000
00B000000000
00B000000000
00B000000000
00B000000000
00B000000000
00B000000000
00B000000000
00B000000000
00B000000000
00B000000000
00B000000000
00B000000000
00B000000000
00B000000000
00B000000000
00B000000000
00B000000000
ENDCHAR
STARTCHAR uni0940
ENCODING 2368
SWIDTH 231 0
DWIDTH 8 0
BBX 14 32 -5 0
BITMAP
0BFE0000
3EABC000
B401E000
E000F000
E000B000
E000B000
9000B000
0000B000
0000B000
007FFFE0
006AFA90
0000B000
0000B000
0000B000
0000B000
0000B000
0000B000
0000B000
0000B000
0000B000
0000B000
0000B000
0000B000
0000B000
0000B000
0000B000
0000B000
0000B000
0000B000
0000B000
0000B000
0000B000
ENDCHAR
STARTCHAR uni0941
ENCODING 2369
SWIDTH 0 0
DWIDTH 0 0
BBX 14 10 -13 -9
BITMAP
0000A900
0000FFC0
100001E0
740000B0
3C0000B0
1D0000B0
0F0000B0
078000E0
01FAABD0
002FFE40
ENDCHAR
STARTCHAR uni0942
ENCODING 2370
SWIDTH 0 0
DWIDTH 0 0
BBX 14 10 -10 -9
BITMAP
01A94000
1FFFE000
3D01B800
78001E00
74000B00
74000780
740002C0
380001D0
2EA400E0
0BF80040
ENDCHAR
STARTCHAR uni0943
ENCODING 2371
SWIDTH 0 0
DWIDTH 0 0
BBX 11 10 -10 -9
BITMAP
05A400
2FF800
780000
B00000
B00000
B00000
B00018
7800B8
2EABE0
0BFE40
ENDCHAR
STARTCHAR uni0945
ENCODING 2373
SWIDTH 0 0
DWIDTH 0 0
BBX 12 6 -10 25
BITMAP
500005
B0001D
B0001D
78002C
2EAAF8
0BFFD0
ENDCHAR
STARTCHAR uni0946
ENCODING 2374
SWIDTH 0 0
DWIDTH 0 0
BBX 11 11 -13 21
BITMAP
B00000
B40000
780000
3E0000
0BD000
01BD00
001F80
0002D0
0000E0
0002F4
0001A4
ENDCHAR
STARTCHAR uni0947
ENCODING 2375
SWIDTH 0 0
DWIDTH 0 0
BBX 9 11 -11 21
BITMAP
F00000
780000
2D0000
1F0000
0B8000
03D000
01F000
00B800
002D00
000F40
000640
ENDCHAR
STARTCHAR uni0948
ENCODING 2376
SWIDTH 0 0
DWIDTH 0 0
BBX 10 11 -12 21
BITMAP
780380
2D0380
0F0380
0B8380
03D380
01F380
00BA80
002E80
000F80
0007D0
000190
ENDCHAR
STARTCHAR uni0949
ENCODING 2377
SWIDTH 231 0
DWIDTH 8 0
BBX 12 31 -2 0
BITMAP
100005
74000E
74000E
3D006D
1FFFF8
01AA50
000000
000000
1FFFF8
1ABEA4
002C00
002C00
002C00
002C00
002C00
002C00
002C00
002C00
002C00
002C00
002C00
002C00
002C00
002C00
002C00
002C00
002C00
002C00
002C00
002C00
002C00
ENDCHAR
STARTCHAR uni094A
ENCODING 2378
SWIDTH 231 0
DWIDTH 8 0
BBX 14 32 -5 0
BITMAP
74000000
74000000
3C000000
2E400000
0BE00000
00BE0000
001BC000
0001E000
0000B000
007FFFE0
006AFA90
0000B000
0000B000
0000B000
0000B000
0000B000
0000B000
0000B000
0000B000
0000B000
0000B000
0000B000
0000B000
0000B000
0000B000
0000B000
0000B000
0000B000
0000B000
0000B000
0000B000
0000B000
ENDCHAR
STARTCHAR uni094B
ENCODING 2379
SWIDTH 231 0
DWIDTH 8 0
BBX 12 32 -3 0
BITMAP
B40000
3C0000
1E0000
0B4000
03C000
01E000
00B400
002C00
000E00
07FFFE
06AFA9
000B00
000B00
000B00
000B00
000B00
000B00
000B00
000B00
000B00
000B00
000B00
000B00
000B00
000B00
000B00
000B00
000B00
000B00
000B00
000B00
000B00
ENDCHAR
STARTCHAR uni094C
ENCODING 2380
SWIDTH 231 0
DWIDTH 8 0
BBX 12 32 -3 0
BITMAP
F00B00
780B00
2D0B00
0F0B00
078B00
02DB00
00A700
003B00
000F00
07FFFE
06AFA9
000B00
000B00
000B00
000B00
000B00
000B00
000B00
000B00
000B00
000B00
000B00
000B00
000B00
000B00
000B00
000B00
000B00
000B00
000B00
000B00
000B00
ENDCHAR
STARTCHAR uni094D
ENCODING 2381
SWIDTH 0 0
DWIDTH 0 0
BBX 5 6 -5 -8
BITMAP
E000
7800
2D00
0E00
0B40
02C0
ENDCHAR
STARTCHAR uni0950
ENCODING 2384
SWIDTH 847 0
DWIDTH 30 0
BBX 26 28 2 1
BITMAP
00000000600000
00000000B40000
00000000000000
00000000000000
00000000000080
000000000007D0
07FF9000BFFF40
02AAF4006AA400
00003C00000000
00001D00000000
00001E00000000
00000E00000000
00001E006AA400
00001D00BFFF00
00003C00000BC0
00AAF4000002D0
00FFE0000001D0
0001B8000000E0
00002EAA4000E0
00001FFFD000E0
40000E00E000E0
E0000E00E000E0
E0001E00E000E0
F0001E00E000E0
B4002D00E001D0
3D01B800B807C0
1FFFE0003FFF40
01A9400006A400
ENDCHAR
STARTCHAR uni0951
ENCODING 2385
SWIDTH 0 0
DWIDTH 0 0
BBX 2 7 -5 25
BITMAP
E0
E0
E0
E0
E0
E0
E0
ENDCHAR
STARTCHAR uni0952
ENCODING 2386
SWIDTH 0 0
DWIDTH 0 0
BBX 12 2 -15 -4
BITMAP
AAAAA9
FFFFFE
ENDCHAR
STARTCHAR uni0953
ENCODING 2387
SWIDTH 0 0
DWIDTH 0 0
BBX 6 7 -9 25
BITMAP
E000
B400
3C00
1E00
0B40
03C0
01D0
ENDCHAR
STARTCHAR uni0954
ENCODING 2388
SWIDTH 0 0
DWIDTH 0 0
BBX 6 7 -5 25
BITMAP
01E0
03C0
0B40
0E00
2D00
7800
E000
ENDCHAR
STARTCHAR uni0915093C
ENCODING 2392
SWIDTH 725 0
DWIDTH 26 0
BBX 28 25 -1 -2
BITMAP
7FFFFFFFFFFFFE
6AAAAABEAAAAA9
0000002C000000
0000002C000000
0000002C000000
0006A42C5A9000
003FF82DFFFD00
00F8002F401F00
01E0002D000780
02C0002C000380
02C0002C0003C0
02C0002C0002C0
02C0002C0002C0
02C0002C0002C0
02C0002C0003C0
02C0003C000380
01E0007C000780
00F801FC001F00
007FFFAC1FFD00
0006A52C1A9000
0000002C000000
0000002C000000
0000002C000000
000B0014000000
00060000000000
ENDCHAR
STARTCHAR uni0916093C
ENCODING 2393
SWIDTH 696 0
DWIDTH 25 0
BBX 27 25 -1 -2
BITMAP
7FFFFFFFFFFFF8
6AAABAAAAABEA4
0000B400003800
0000B400003800
0000B400003800
0000B400003800
0000B406F43800
0000B41FA43800
0000B03D003800
0000F078003800
0002E074003800
0BFF80B4003800
0BA900B4003800
03C00074003800
01E00078007800
00B4003D00B800
0078001FABB800
002D0006FE3800
000F0000003800
00078000003800
0002D000003800
0000F000003800
00007800003800
07801400001400
02400000000000
ENDCHAR
STARTCHAR uni0917093C
ENCODING 2394
SWIDTH 494 0
DWIDTH 18 0
BBX 20 24 -1 -1
BITMAP
7FFFFFFFFD
6AAFAAAEA8
001E001D00
001E001D00
001E001D00
001E001D00
001E001D00
001E001D00
001E001D00
001E001D00
001E001D00
001D001D00
003C001D00
0AF4001D00
1F90001D00
0000001D00
0000001D00
0000001D00
0000001D00
0000001D00
0000001D00
0000001D00
0064001D00
0074000000
ENDCHAR
STARTCHAR uni091C093C
ENCODING 2395
SWIDTH 547 0
DWIDTH 20 0
BBX 21 25 -1 -2
BITMAP
7FFFFFFFFFC0
6AAAAAAAEA80
00000001D000
00000001D000
00000001D000
00000001D000
00000001D000
01AAAAAAD000
01FFFFFFD000
0001F001D000
00007801D000
00003C01D000
00002C01D000
00002C01D000
00002C01D000
00002C01D000
00003C01D000
00007801D000
0001F401D000
0FFFE001D000
06A90001D000
00000001D000
00000001D000
00F000000000
00A000000000
ENDCHAR
STARTCHAR uni0921093C
ENCODING 2396
SWIDTH 475 0
DWIDTH 17 0
BBX 19 28 -1 -5
BITMAP
7FFFFFFFF8
6AAAAABEA4
0000003800
0000003800
0000003800
0000003800
001BFFF800
00BEAAA400
00E0000000
01D0000000
01D0000000
01E0000000
00F4000000
007FFFE400
0006AABD00
0000001E00
0000000F00
0040000F00
01D0000F00
01D0000E00
00E0002E00
00BEAABC00
001BFFE000
0000000000
0000000000
0000000000
0000780000
0000240000
ENDCHAR
STARTCHAR uni0922093C
ENCODING 2397
SWIDTH 485 0
DWIDTH 17 0
BBX 19 27 -1 -4
BITMAP
7FFFFFFFFC
6AAAAABEA8
0000003C00
0000003C00
0000003C00
0000003C00
0005AABC00
002FFFF800
00B9000000
00E0000000
01D0000000
01D0000000
02D006F900
02D00FAF40
02D01D0780
02D01D0380
01D01C0380
01D0000380
00E0000780
00B9001F00
002FFFFD00
0005AA9000
0000000000
0000000000
0000000000
00003C0000
0000280000
ENDCHAR
STARTCHAR uni092B093C
ENCODING 2398
SWIDTH 739 0
DWIDTH 27 0
BBX 28 24 -1 -1
BITMAP
7FFFFFFFFFFFFF
6AFAAAAEAAAAAA
00E0001D000000
00E0001D000000
00E0001D000000
00E0001D1A9000
00E0001EFFFE00
00E0001F901B80
00E0001F0003C0
00E0001E0002D0
00E0001D0001D0
00E0001D0001D0
00F0002D0001D0
00B8007D0001D0
002FAAED0001D0
0006FE5D0002D0
0000001D0003C0
0000001D001B80
0000001D0FFE00
0000001D069400
0000001D000000
0000001D000000
0009001D000000
000E0000000000
ENDCHAR
STARTCHAR uni092F093C
ENCODING 2399
SWIDTH 564 0
DWIDTH 20 0
BBX 22 25 -1 -2
BITMAP
7FFFFFFFFFE0
6AABEAAAFA90
0000B000B000
00007400B000
00007800B000
00007800B000
00007400B000
0000B400B000
01ABE000B000
02FE4000B000
02D00000B000
02D00000B000
02D00000B000
02D00000B000
01D00000F000
01E00001F000
00B40007F000
002FAAAEB000
0006FFF8B000
00000000B000
00000000B000
00000000B000
00000000B000
007800005000
002400000000
ENDCHAR
STARTCHAR uni0960
ENCODING 2400
SWIDTH 753 0
DWIDTH 27 0
BBX 29 28 -1 -5
BITMAP
7FFFFFFFFFFFFF80
6AAAAAAEAAAAAA40
0000001D00000000
0000001D00000000
0000001D00000000
0000001D00000000
0000001D00000000
001BFE5D000BD000
00BEAAFD007ED000
01F0007D01F5D000
02D0002D0BC1D000
02C0001D2E01D000
02C0001EB801D000
02C0001FD0BFD000
0180001F42E54000
0000007D03C00000
000002FD03800000
00001F5D03800000
00007D1D02D00000
0002E01D00BFE000
000B801D01FA9000
007D001D02C00000
01F4001D03800000
0000000003800000
0000000003C00000
0000000002E00000
0000000000FFF400
00000000001AA000
ENDCHAR
STARTCHAR uni0961
ENCODING 2401
SWIDTH 676 0
DWIDTH 24 0
BBX 26 31 -1 -8
BITMAP
7FFFFFFFFFFFE0
6AAAAAAAAAFA90
0000000000B000
0000000000B000
0000000000B000
0000000000B000
0000000000B000
001BF906F9B000
007EAF6EAFF000
00F402F401F000
01E001F000F000
01D000E000B000
01D000E000B000
01D000E000B000
01D000E000B000
01D0005000B000
01D0000006F000
01D000007FF000
00E00000F40000
00B90001D00000
002FFC01D00000
0005A801D00000
00000000F40000
000000007FF400
000000007EA400
00000000E00000
00000001D00000
00000001D00000
00000001E00000
00000000BEA400
000000002FFC00
ENDCHAR
STARTCHAR uni0964
ENCODING 2404
SWIDTH 286 0
DWIDTH 10 0
BBX 2 23 5 0
BITMAP
B0
F0
F0
F0
F0
F0
F0
F0
F0
F0
F0
F0
F0
F0
F0
F0
F0
F0
F0
F0
F0
F0
A0
ENDCHAR
STARTCHAR uni0965
ENCODING 2405
SWIDTH 518 0
DWIDTH 19 0
BBX 11 23 5 0
BITMAP
B00074
F000B4
F000B4
F000B4
F000B4
F000B4
F000B4
F000B4
F000B4
F000B4
F000B4
F000B4
F000B4
F000B4
F000B4
F000B4
F000B4
F000B4
F000B4
F000B4
F000B4
F000B4
A00074
ENDCHAR
STARTCHAR uni0966
ENCODING 2406
SWIDTH 519 0
DWIDTH 19 0
BBX 14 24 2 0
BITMAP
016AA400
0BFFFF40
2E4007D0
380000E0
740000B0
B40000B0
B40000B0
B40000B0
B40000B0
B40000B0
B40000B0
B40000B0
B40000B0
B40000B0
B40000B0
B40000B0
B40000B0
B40000B0
B40000B0
740000B0
780000F0
3D0002E0
1FAAAF80
02FFFE00
ENDCHAR
STARTCHAR uni0967
ENCODING 2407
SWIDTH 288 0
DWIDTH 10 0
BBX 8 24 0 0
BITMAP
0015
00BE
07EE
7E5E
741E
001E
001E
001E
001E
001E
001E
001E
001E
001E
001E
001E
001E
001E
001E
001E
001E
001E
001E
001D
ENDCHAR
STARTCHAR uni0968
ENCODING 2408
SWIDTH 453 0
DWIDTH 16 0
BBX 14 24 1 0
BITMAP
006AA400
07FFFF40
1E4007C0
3C0001D0
380000E0
780000E0
780000E0
240000E0
000001E0
000002D0
00000B80
00002E00
0001F800
0007D000
002E0000
01F80000
07D00000
1F400000
2D000000
3C000000
38000000
38000000
3EAAAAA0
3FFFFFF0
ENDCHAR
STARTCHAR uni0969
ENCODING 2409
SWIDTH 489 0
DWIDTH 18 0
BBX 13 24 2 0
BITMAP
01AA9000
1FFFFD00
7D001F40
B4000780
E00002C0
E00002C0
E00002C0
500002C0
000002C0
00000380
00000B40
001ABD00
002FF800
00001F40
00000380
000002C0
000002C0
E00002C0
E00002C0
E00002C0
F00003C0
B8000B80
2FAABE00
06FFE400
ENDCHAR
STARTCHAR uni096A
ENCODING 2410
SWIDTH 453 0
DWIDTH 16 0
BBX 17 24 0 0
BITMAP
00000BD000
00001FD000
00002ED000
000075D000
0000F1D000
0002D1D000
000381D000
000B41D000
001E01D000
003C01D000
007401D000
00F001D000
02D001D000
078001D000
0B0001D000
1E0001D000
3C0001D000
7AAAAAEA40
7FFFFFFF40
000001D000
000001D000
000001D000
000001D000
000001D000
ENDCHAR
STARTCHAR uni096B
ENCODING 2411
SWIDTH 480 0
DWIDTH 17 0
BBX 14 24 2 0
BITMAP
6AAAAA80
BFFFFFC0
B4000000
B4000000
B4000000
B4000000
B4000000
B4000000
B4000000
B6FFF800
BBAAAF40
BC0007C0
500002D0
000001D0
000001D0
000001D0
000001D0
740001D0
B40001D0
740001D0
780002D0
3D000780
1FAAAF00
06FFF800
ENDCHAR
STARTCHAR uni096C
ENCODING 2412
SWIDTH 495 0
DWIDTH 18 0
BBX 14 24 2 0
BITMAP
016AAA40
0BFFFF80
2E400000
38000000
74000000
B4000000
B4000000
B4000000
B4000000
B46AA400
B7FFFF40
BA4007C0
B80001E0
B40000F0
B40000F0
B40000B0
B40000B0
B40000B0
B40000B0
740000F0
780001E0
3D0002D0
1FAAAF80
02FFF900
ENDCHAR
STARTCHAR uni096D
ENCODING 2413
SWIDTH 380 0
DWIDTH 14 0
BBX 13 24 0 0
BITMAP
6AAAAA80
7FFFFFC0
00000380
00000B40
00000F00
00001E00
00002D00
00003C00
00007800
0000B400
0000F000
0001D000
0003C000
00078000
000B4000
000F0000
001E0000
002D0000
003C0000
00780000
00B40000
00E00000
02D00000
02C00000
ENDCHAR
STARTCHAR uni096E
ENCODING 2414
SWIDTH 523 0
DWIDTH 19 0
BBX 15 24 2 0
BITMAP
016AA400
0BFFFF80
2E4006D0
780000F0
740000B4
B4000074
B4000074
B4000074
740000B4
780000B0
3D0001E0
0FAAAB80
07FFFF40
2E4006D0
380000F0
740000B4
74000074
B4000074
B4000074
740000B4
780000B0
3D0001E0
1FAAABC0
06FFFE00
ENDCHAR
STARTCHAR uni096F
ENCODING 2415
SWIDTH 493 0
DWIDTH 18 0
BBX 15 24 1 0
BITMAP
006AA400
07FFFF40
1F4007D0
3C0000F0
380000B0
780000B4
780000B4
780000B4
780000B4
780000B4
380000B4
3C0000B4
1F4000B4
07FFFFF4
006AAAB4
000000B4
000000B4
000000B4
000000B4
000000B4
000000B0
000002E0
0AAAAFC0
0FFFFE00
ENDCHAR
STARTCHAR uni0970
ENCODING 2416
SWIDTH 391 0
DWIDTH 14 0
BBX 12 12 1 5
BITMAP
06FF90
1FAAF4
3D007C
74001D
B4001E
B4000E
B4000E
B4001E
74001D
3D007C
1FAAF4
06FF90
ENDCHAR
STARTCHAR uni0972
ENCODING 2418
SWIDTH 598 0
DWIDTH 22 0
BBX 22 31 1 0
BITMAP
000001000050
0000074000B0
0000038000E0
000002D002E0
000001FFFF80
0000001AA500
000000000000
000000000000
1FFE0001FFC0
1AABC002EA80
0001E002D000
0000B002D000
00007402D000
00007402D000
00007402D000
0000B402D000
0000F002D000
0006D002D000
07FF4002D000
06ABC002D000
0001FAAAD000
0000BFFFD000
00007402D000
00007402D000
00007402D000
0000B402D000
0000F002D000
0006E002D000
BFFF8002D000
6AA40002D000
00000001D000
ENDCHAR
STARTCHAR Wgrave
ENCODING 7808
SWIDTH 795 0
DWIDTH 29 0
BBX 27 30 1 0
BITMAP
00001400000000
00001E00000000
00000B40000000
000002C0000000
000000A0000000
00000000000000
00000000000000
B00000F40000B4
B40001F80000F4
780001FC0000F0
380002DD0001E0
3C00038E0001E0
2D00074E0002D0
1D000B4B0003C0
1E000B074003C0
0F000E03800780
0B001D02C00B40
0B402C02C00B40
07403C01D00F00
03803800E00E00
03C07400B01E00
02C0B000742D00
01D0E000742C00
01E1D000383C00
00E1D0002C3800
00B2C0001D7400
00B380000EB400
007B40000EB000
003F00000BE000
003F000007D000
ENDCHAR
STARTCHAR wgrave
ENCODING 7809
SWIDTH 682 0
DWIDTH 25 0
BBX 24 25 0 0
BITMAP
0000F8000000
00003D000000
00001E000000
000007400000
000002800000
000000000000
000000000000
780002D0000E
3C0003E0001D
2D0007F0002D
1E000BB0003C
0E000E740078
0B000D3800B4
07401D2C00B0
07802C1D00E0
03C0380D01D0
02C0740E02C0
01D0700B03C0
00E0B0074780
00B0E0038740
0075D0028B00
003AC001CE00
002F8001ED00
002F4000FC00
001F4000B800
ENDCHAR
STARTCHAR Wacute
ENCODING 7810
SWIDTH 795 0
DWIDTH 29 0
BBX 27 30 1 0
BITMAP
00000001900000
00000007C00000
0000000F400000
0000001D000000
00000034000000
00000000000000
00000000000000
B00000F40000B4
B40001F80000F4
780001FC0000F0
380002DD0001E0
3C00038E0001E0
2D00074E0002D0
1D000B4B0003C0
1E000B074003C0
0F000E03800780
0B001D02C00B40
0B402C02C00B40
07403C01D00F00
03803800E00E00
03C07400B01E00
02C0B000742D00
01D0E000742C00
01E1D000383C00
00E1D0002C3800
00B2C0001D7400
00B380000EB400
007B40000EB000
003F00000BE000
003F000007D000
ENDCHAR
STARTCHAR wacute
ENCODING 7811
SWIDTH 682 0
DWIDTH 25 0
BBX 24 25 0 0
BITMAP
0000000F4000
0000002E0000
000000780000
000000B00000
000000900000
000000000000
000000000000
780002D0000E
3C0003E0001D
2D0007F0002D
1E000BB0003C
0E000E740078
0B000D3800B4
07401D2C00B0
07802C1D00E0
03C0380D01D0
02C0740E02C0
01D0700B03C0
00E0B0074780
00B0E0038740
0075D0028B00
003AC001CE00
002F8001ED00
002F4000FC00
001F4000B800
ENDCHAR
STARTCHAR Wdieresis
ENCODING 7812
SWIDTH 795 0
DWIDTH 29 0
BBX 27 30 1 0
BITMAP
00001D02C00000
00002D02C00000
00002D02C00000
00002D02C00000
00001D02C00000
00000000000000
00000000000000
B00000F40000B4
B40001F80000F4
780001FC0000F0
380002DD0001E0
3C00038E0001E0
2D00074E0002D0
1D000B4B0003C0
1E000B074003C0
0F000E03800780
0B001D02C00B40
0B402C02C00B40
07403C01D00F00
03803800E00E00
03C07400B01E00
02C0B000742D00
01D0E000742C00
01E1D000383C00
00E1D0002C3800
00B2C0001D7400
00B380000EB400
007B40000EB000
003F00000BE000
003F000007D000
ENDCHAR
STARTCHAR wdieresis
ENCODING 7813
SWIDTH 682 0
DWIDTH 25 0
BBX 24 25 0 0
BITMAP
0000B40B0000
0000B40B0000
0000B40B0000
0000B40B0000
0000B40B0000
000000000000
000000000000
780002D0000E
3C0003E0001D
2D0007F0002D
1E000BB0003C
0E000E740078
0B000D3800B4
07401D2C00B0
07802C1D00E0
03C0380D01D0
02C0740E02C0
01D0700B03C0
00E0B0074780
00B0E0038740
0075D0028B00
003AC001CE00
002F8001ED00
002F4000FC00
001F4000B800
ENDCHAR
STARTCHAR uni1E9E
ENCODING 7838
SWIDTH 542 0
DWIDTH 20 0
BBX 15 23 3 0
BITMAP
06FFFFE0
2FAAAAE0
B80002D0
F0000380
E0000B40
E0000E00
E0002D00
E0003800
E000B400
E000E000
E001FE40
E000ABE0
E00001F0
E00000B4
E0000074
E0000074
E0000074
E0000074
E0000074
E00000B4
E00001F0
E00AABD0
E01FFE00
ENDCHAR
STARTCHAR Ygrave
ENCODING 7922
SWIDTH 493 0
DWIDTH 18 0
BBX 16 30 1 0
BITMAP
00500000
00B80000
002D0000
000B0000
00038000
00000000
00000000
F000001E
B800002D
3C000078
2E0000B4
0F0001E0
0B4002D0
03C00780
02D00B40
00F01E00
00B42D00
003C7800
002DB400
000FE000
000BD000
00038000
00038000
00038000
00038000
00038000
00038000
00038000
00038000
00038000
ENDCHAR
STARTCHAR ygrave
ENCODING 7923
SWIDTH 459 0
DWIDTH 17 0
BBX 15 30 1 -5
BITMAP
00F40000
007C0000
001E0000
000B0000
00024000
00000000
00000000
F0000074
B40000B0
780000E0
3C0001D0
1D0002C0
0E000380
0B000B40
07400F00
03801E00
02C02D00
01D03C00
00F07800
00B4B400
0078F000
003DE000
002FC000
000B8000
00074000
000B0000
001E0000
007C0000
2AF40000
3F900000
ENDCHAR
STARTCHAR uni200B
ENCODING 8203
SWIDTH 0 0
DWIDTH 0 0
BBX 1 1 0 0
BITMAP
00
ENDCHAR
STARTCHAR uni200C
ENCODING 8204
SWIDTH 0 0
DWIDTH 0 0
BBX 2 37 -1 -8
BITMAP
B0
B0
B0
B0
B0
B0
B0
B0
B0
B0
B0
B0
B0
B0
B0
B0
B0
B0
B0
B0
B0
B0
B0
B0
B0
B0
B0
B0
B0
B0
B0
B0
B0
B0
B0
B0
B0
ENDCHAR
STARTCHAR uni200D
ENCODING 8205
SWIDTH 0 0
DWIDTH 0 0
BBX 10 37 -5 -8
BITMAP
200080
7C03D0
1F0F40
07FD00
01F400
07FD00
1FFF40
7DB7D0
24B1D0
00B000
00B000
00B000
00B000
00B000
00B000
00B000
00B000
00B000
00B000
00B000
00B000
00B000
00B000
00B000
00B000
00B000
00B000
00B000
00B000
00B000
00B000
00B000
00B000
00B000
00B000
00B000
00B000
ENDCHAR
STARTCHAR endash
ENCODING 8211
SWIDTH 408 0
DWIDTH 15 0
BBX 13 2 1 11
BITMAP
6AAAAA00
BFFFFF40
ENDCHAR
STARTCHAR emdash
ENCODING 8212
SWIDTH 537 0
DWIDTH 19 0
BBX 17 2 1 11
BITMAP
6AAAAAAA40
BFFFFFFFC0
ENDCHAR
STARTCHAR quoteleft
ENCODING 8216
SWIDTH 179 0
DWIDTH 6 0
BBX 3 9 2 14
BITMAP
10
24
34
74
74
B4
B4
B4
B0
ENDCHAR
STARTCHAR quoteright
ENCODING 8217
SWIDTH 179 0
DWIDTH 6 0
BBX 3 9 2 14
BITMAP
B0
B4
B4
B0
B0
A0
90
80
40
ENDCHAR
STARTCHAR quotesinglbase
ENCODING 8218
SWIDTH 187 0
DWIDTH 7 0
BBX 3 8 2 -4
BITMAP
B4
B4
B4
B4
B0
A0
90
80
ENDCHAR
STARTCHAR quotedblleft
ENCODING 8220
SWIDTH 329 0
DWIDTH 12 0
BBX 8 9 2 14
BITMAP
1001
2406
340A
740A
740E
B41E
B41E
B41E
B01E
ENDCHAR
STARTCHAR quotedblright
ENCODING 8221
SWIDTH 329 0
DWIDTH 12 0
BBX 8 9 2 14
BITMAP
B01E
B41E
B41E
B01D
B01D
A01C
9018
8014
4000
ENDCHAR
STARTCHAR quotedblbase
ENCODING 8222
SWIDTH 337 0
DWIDTH 12 0
BBX 8 9 2 -5
BITMAP
B40E
B41E
B41E
B41E
B01D
A01C
A018
9014
4000
ENDCHAR
STARTCHAR dagger
ENCODING 8224
SWIDTH 427 0
DWIDTH 15 0
BBX 13 23 1 0
BITMAP
001E0000
001E0000
000D0000
000D0000
000D0000
000D0000
000D0000
7FFFFF80
155E5540
000D0000
001E0000
001E0000
001E0000
001E0000
001E0000
000D0000
000D0000
000D0000
000D0000
000D0000
000D0000
000D0000
000D0000
ENDCHAR
STARTCHAR daggerdbl
ENCODING 8225
SWIDTH 427 0
DWIDTH 15 0
BBX 13 23 1 0
BITMAP
001E0000
001E0000
000D0000
000D0000
000D0000
000D0000
000D0000
7FFFFF80
155E5540
000D0000
001E0000
001E0000
001E0000
001E0000
000D0000
6AAEAA40
7FFFFF80
000D0000
000D0000
000D0000
000D0000
001E0000
001E0000
ENDCHAR
STARTCHAR bullet
ENCODING 8226
SWIDTH 273 0
DWIDTH 10 0
BBX 4 6 3 8
BITMAP
BD
BE
BE
BE
BE
BD
ENDCHAR
STARTCHAR ellipsis
ENCODING 8230
SWIDTH 591 0
DWIDTH 21 0
BBX 17 5 2 0
BITMAP
B401E00380
B401E003C0
B401E003C0
B401E003C0
B401E00380
ENDCHAR
STARTCHAR perthousand
ENCODING 8240
SWIDTH 1027 0
DWIDTH 37 0
BBX 35 23 1 0
BITMAP
06FE4000D000000000
1FABD001C000000000
3800E0038000000000
3400B0074000000000
7400B00A0000000000
7400B01D0000000000
7400B02C0000000000
3800A0340000000000
2D01E0B00000000000
1FFF80E00000000000
01A901C00000000000
000003800000000000
000007400000000000
00000A01FFD002FF90
00001D0B95B40B55B4
00002C0E002C1D0038
0000340D002C1D0028
0000700D001C1C0028
0000E00D001C1C0028
0001D00D002C1D0028
0002800E00380E0078
00074007EAF40BAAF0
000A0001BF9002FF90
ENDCHAR
STARTCHAR guilsinglleft
ENCODING 8249
SWIDTH 290 0
DWIDTH 10 0
BBX 6 12 2 3
BITMAP
0030
00E0
0780
1E00
7800
B000
B400
2D00
0B40
02D0
00B0
0020
ENDCHAR
STARTCHAR guilsinglright
ENCODING 8250
SWIDTH 290 0
DWIDTH 10 0
BBX 6 12 2 3
BITMAP
9000
7800
1E00
0780
01E0
0070
00B0
02D0
0B40
2D00
B400
9000
ENDCHAR
STARTCHAR fraction
ENCODING 8260
SWIDTH 117 0
DWIDTH 4 0
BBX 18 23 -7 0
BITMAP
00000000B0
00000001D0
0000000380
0000000B00
0000002D00
0000007400
000000E000
000002C000
00000B4000
00001D0000
0000380000
0000B00000
0002D00000
0007400000
000E000000
002C000000
00B4000000
01E0000000
0380000000
0B00000000
1D00000000
7800000000
E000000000
ENDCHAR
STARTCHAR Euro
ENCODING 8364
SWIDTH 523 0
DWIDTH 19 0
BBX 16 23 1 0
BITMAP
001BFF80
00BEAAF0
01E00078
03C0002C
0380002D
0380001D
03800019
03800000
03800000
BFFFF800
6BEAA400
03800000
03800000
BFFFF800
6BEAA400
03800000
03800004
0380001D
0380001D
03C0002D
02E0007C
00BEAAF4
001BFF80
ENDCHAR
STARTCHAR uni20B9
ENCODING 8377
SWIDTH 414 0
DWIDTH 15 0
BBX 13 23 1 0
BITMAP
BFFFFF80
6AAFAA40
000B4000
00038000
00038000
6AABEA40
BFFFFF80
00038000
00038000
00078000
000B4000
6ABE0000
BFE40000
78000000
1E000000
0B400000
03C00000
01E00000
00B40000
002D0000
001F0000
00078000
0002D000
ENDCHAR
STARTCHAR trademark
ENCODING 8482
SWIDTH 591 0
DWIDTH 21 0
BBX 17 10 2 15
BITMAP
6AA8200180
BFFC7803C0
03407C07C0
03407A0EC0
03407719C0
034072A5C0
034070E1C0
03407041C0
03407001C0
0100100040
ENDCHAR
STARTCHAR uni2126
ENCODING 8486
SWIDTH 629 0
DWIDTH 23 0
BBX 21 24 1 0
BITMAP
0016AAA40000
00BFFFFF4000
02E40007D000
03800001E000
07400000B000
0B400000B000
0B400000B000
0B400000B000
0B400000B000
0B400000B000
0B400000B000
0B400000B000
0B400000B000
0B400000B000
0B400000B000
0B400000B000
0B400000B000
0B400000B000
07400000B000
07400000B000
03800000E000
02D00002D000
6AFA80AFAA00
BFFFC1FFFF40
ENDCHAR
STARTCHAR partialdiff
ENCODING 8706
SWIDTH 481 0
DWIDTH 17 0
BBX 13 24 2 0
BITMAP
07E90000
06BF9000
0002F400
00003D00
00000E00
00000B40
00000380
00000380
000002C0
06FFE2C0
2FAABEC0
7C000BC0
B40003C0
B00002C0
F00002C0
F00002C0
F00002C0
F00002C0
F00002C0
B00002C0
B40003C0
7C000B80
2FAABE00
06FFE400
ENDCHAR
STARTCHAR uni2206
ENCODING 8710
SWIDTH 594 0
DWIDTH 21 0
BBX 20 24 1 0
BITMAP
0000540000
0000BC0000
0000FE0000
0001DF0000
0003CB4000
0007878000
000B43C000
000F02D000
001E01E000
002D00B000
003C007400
0074003800
00B0002D00
01E0001E00
02D0000F00
03C0000B40
0780000780
0B400003C0
0F000002D0
1E000001E0
2D000000F0
3C00000078
BEAAAAAABC
BFFFFFFFFD
ENDCHAR
STARTCHAR minus
ENCODING 8722
SWIDTH 523 0
DWIDTH 19 0
BBX 15 2 2 11
BITMAP
6AAAAAA0
7FFFFFF4
ENDCHAR
STARTCHAR approxequal
ENCODING 8776
SWIDTH 523 0
DWIDTH 19 0
BBX 15 9 2 8
BITMAP
06940010
7FFFEAF4
6406BF90
00000000
00000000
00000000
06940010
7FFFEAF4
6406BF90
ENDCHAR
STARTCHAR notequal
ENCODING 8800
SWIDTH 523 0
DWIDTH 19 0
BBX 15 16 2 4
BITMAP
00002800
00003400
00007000
0000A000
7FFFFFF4
6AAAEAA0
00028000
00074000
000B0000
000E0000
6AAEAAA0
7FFFFFF4
00380000
00740000
00B00000
00A00000
ENDCHAR
STARTCHAR lessequal
ENCODING 8804
SWIDTH 523 0
DWIDTH 19 0
BBX 15 14 2 5
BITMAP
00000164
00006FF4
001BF940
06FE4000
7F900000
7E400000
1BF90000
006FE400
0001BFE0
000001B4
00000000
00000000
6AAAAAA0
7FFFFFF4
ENDCHAR
STARTCHAR greaterequal
ENCODING 8805
SWIDTH 523 0
DWIDTH 19 0
BBX 15 14 2 5
BITMAP
64000000
7FA40000
06BF9000
0006FE40
00001BF4
000006F4
0001BF90
01AFE400
2FE50000
79000000
00000000
00000000
6AAAAAA0
7FFFFFF4
ENDCHAR
STARTCHAR uni25CC
ENCODING 9676
SWIDTH 701 0
DWIDTH 25 0
BBX 21 21 2 2
BITMAP
0000782E0000
00B8BD3F0000
00FC782D0000
00B800007800
00000000BD00
000000007800
1E0000000000
3F4000000B80
1E0000000FC0
000000000B80
2D0000000000
7E0000000000
2D0000000B40
000000001F80
03D000000B40
07E000000000
07D00001E000
00078003F400
000FD2D2E000
000787E00000
000002D00000
ENDCHAR
STARTCHAR commaaccent
ENCODING 63171
SWIDTH 0 0
DWIDTH 0 0
BBX 2 8 7 -9
BITMAP
B0
B0
B0
B0
A0
90
80
80
ENDCHAR
STARTCHAR .notdef
ENCODING -1
SWIDTH 600 0
DWIDTH 22 0
BBX 14 22 4 0
BITMAP
6AAAAA80
BFFFFFD0
B00002D0
B00002D0
B00002D0
B00002D0
B00002D0
B00002D0
B00002D0
B00002D0
B00002D0
B00002D0
B00002D0
B00002D0
B00002D0
B00002D0
B00002D0
B00002D0
B00002D0
B00002D0
BAAAAAD0
BFFFFFD0
ENDCHAR
STARTCHAR .null
ENCODING -1
SWIDTH 0 0
DWIDTH 0 0
BBX 1 1 0 0
BITMAP
00
ENDCHAR
STARTCHAR nonmarkingreturn
ENCODING -1
SWIDTH 333 0
DWIDTH 12 0
BBX 1 1 0 0
BITMAP
00
ENDCHAR
STARTCHAR uni0915094D
ENCODING -1
SWIDTH 519 0
DWIDTH 19 0
BBX 25 23 -1 0
BITMAP
7FFFFFFFFFFF40
6AAAAABEAAAA00
0000002C000000
0000002C000000
0000002C000000
0006A42C5A9000
003FF82DFFFD00
00F8002F401F00
01E0002D000700
02C0002C000000
02C0002C000000
02C0002C000000
02C0002C000000
02C0002C000000
02C0002C000000
02C0003C000000
01E0007C000000
00F801FC000000
007FFFAC000000
0006A52C000000
0000002C000000
0000002C000000
0000002C000000
ENDCHAR
STARTCHAR uni0916094D
ENCODING -1
SWIDTH 468 0
DWIDTH 17 0
BBX 22 23 -1 0
BITMAP
7FFFFFFFFFE0
6AAABAAAAA90
0000B4000000
0000B4000000
0000B4000000
0000B4000000
0000B406F400
0000B41FA400
0000B03D0000
0000F0780000
0002E0740000
0BFF80B40000
0BA900B40000
03C000740000
01E000780010
00B4003D00B0
003C001FABD0
001E0006FE00
000B40000000
0007C0000000
0001E0000000
0000B4000000
000078000000
ENDCHAR
STARTCHAR uni0917094D
ENCODING -1
SWIDTH 264 0
DWIDTH 10 0
BBX 11 15 -1 8
BITMAP
7FFFFC
6AAFA8
001E00
001E00
001E00
001E00
001E00
001E00
001E00
001E00
001E00
001D00
003C00
0AF400
1F9000
ENDCHAR
STARTCHAR uni0918094D
ENCODING -1
SWIDTH 321 0
DWIDTH 12 0
BBX 17 20 -1 3
BITMAP
7FFFFFFFC0
6ABEAAAA80
00F0000000
01D0000000
01D0000000
01D0000000
01D0000000
00E0000000
00B4000000
002FFC0000
007EA40000
00F0000000
01D0000000
01D0000000
01D0000000
01D0000000
01E0000040
00F40007C0
007EAAAF40
001BFFF800
ENDCHAR
STARTCHAR uni0919094D
ENCODING -1
SWIDTH 505 0
DWIDTH 18 0
BBX 20 31 -1 -8
BITMAP
7FFFFFFFFE
6AAAAABEA9
0000003800
0000003800
0000003800
0000003800
001BFFF800
00BEAAA400
00E0000000
01D0000000
01D00000F0
01E0000060
00F4000000
007FFFE400
0006AABD00
0000001E00
0000000F00
0040000F00
01D0000F00
01D0000E00
01E0001E00
00BEAABC00
002FFFE400
0000000000
0000000000
0000380000
00001E0000
00000B4000
000003C000
000001E000
0000006000
ENDCHAR
STARTCHAR uni091A094D
ENCODING -1
SWIDTH 330 0
DWIDTH 12 0
BBX 17 19 -1 4
BITMAP
7FFFFFFFC0
6AAAAAAA80
0000000000
0000000000
0000000000
0000000000
0000000000
1FFFFF8000
0AAFEA4000
001E000000
003C000000
0038000000
0078000000
0078000000
0038000000
003C000040
002E0002C0
000BEAAF40
0002FFF800
ENDCHAR
STARTCHAR uni091B094D
ENCODING -1
SWIDTH 581 0
DWIDTH 21 0
BBX 23 22 -1 1
BITMAP
7FFFFFFFFFF4
6ABEAAAAAAA4
00B400000000
00E000000000
01E000000000
01E0002A4000
01E0003FF000
01E00000B800
00E000002C00
00B800001D00
001FF4001D00
003EA0001D00
00B400001D00
00E000001D00
01E000001D00
01E000001D00
01E000001D00
01E000002D00
00F000003C00
00B90001B400
002FFFFFE000
0005AAA90000
ENDCHAR
STARTCHAR uni091C094D
ENCODING -1
SWIDTH 309 0
DWIDTH 11 0
BBX 16 21 -1 2
BITMAP
7FFFFFFF
6AAAAAA9
00000000
00000000
00000000
00000000
00000000
01AAAAAA
01FFFFFF
0001F000
00007800
00003C00
00002C00
00002C00
00002C00
00002C00
00003C00
00007800
0001F400
0FFFE000
06A90000
ENDCHAR
STARTCHAR uni091D094D
ENCODING -1
SWIDTH 432 0
DWIDTH 16 0
BBX 21 24 -1 -1
BITMAP
7FFFFFFFFF40
6AAAAAFAAA00
000000E00000
000000E00000
000000E00000
001BFFE00000
00BEAA900000
00E000000000
01D000000000
01D000000000
01E000000000
00F400000000
007FFFFFFF40
0006AAFAAA00
000000740000
02C000380000
02C000380000
02D000380000
02E000780000
02F401B40000
02EFFFE00000
02C6A9400000
02C000000000
02C000000000
ENDCHAR
STARTCHAR uni091E094D
ENCODING -1
SWIDTH 359 0
DWIDTH 13 0
BBX 18 20 -1 3
BITMAP
7FFFFFFFE0
6AAAAAAA90
0000000000
0000000000
0000000000
0000000000
02FF900000
01AAF40000
00003C0000
00001D0000
00001D0000
00000D0000
00000FFFE0
00000EAA90
00000D0000
00001D0000
00002D0000
0000BC0000
07FFF00000
06AA400000
ENDCHAR
STARTCHAR uni091F094D
ENCODING -1
SWIDTH 485 0
DWIDTH 17 0
BBX 19 30 -1 -7
BITMAP
7FFFFFFFFC
6AAAAABEA8
0000003800
0000003800
0000003800
0000003800
0000003800
001BFFF800
007EAAA400
00F4000000
01D0000000
02D0000000
02C0000000
02C0000000
02C0000240
02C0000380
02D0000380
01D0000780
01E0000B40
00B9002E00
002FFFF800
0005AA5000
0000000000
0000000000
0000280000
00001E0000
00000B4000
000003C000
000001E000
000000B400
ENDCHAR
STARTCHAR uni0920094D
ENCODING -1
SWIDTH 512 0
DWIDTH 18 0
BBX 20 30 -1 -7
BITMAP
7FFFFFFFFF
6AAAAABEAA
0000002C00
0000002C00
0000002C00
0000002C00
000000B800
001BFFF000
007EAABD00
00F4001F00
01D0000780
02D0000380
02C0000380
02C0000380
02C0000380
02C0000380
02C0000380
02D0000780
01E0000B40
00B9002F00
002FFFF800
0005AA9000
0000000000
0000000000
0000280000
00001D0000
00000F0000
0000078000
000002D000
000000F000
ENDCHAR
STARTCHAR uni0921094D
ENCODING -1
SWIDTH 475 0
DWIDTH 17 0
BBX 19 31 -1 -8
BITMAP
7FFFFFFFF8
6AAAAABEA4
0000003800
0000003800
0000003800
0000003800
001BFFF800
00BEAAA400
00E0000000
01D0000000
01D0000000
01E0000000
00F4000000
007FFFE400
0006AABD00
0000001E00
0000000F00
0040000F00
01D0000F00
01D0000E00
00E0002E00
00BEAABC00
001BFFE000
0000000000
0000000000
00002C0000
00001E0000
00000B4000
000002C000
000001E000
0000006000
ENDCHAR
STARTCHAR uni0922094D
ENCODING -1
SWIDTH 485 0
DWIDTH 17 0
BBX 19 30 -1 -7
BITMAP
7FFFFFFFFC
6AAAAABEA8
0000003C00
0000003C00
0000003C00
0000003C00
0005AABC00
002FFFF800
00B9000000
00E0000000
01D0000000
01D0000000
02D006F900
02D00FAF40
02D01D0780
02D01D0380
01D01C0380
01D0000380
00E0000780
00B9001F00
002FFFFD00
0005AA9000
0000000000
0000000000
0000280000
00001E0000
00000B4000
0000038000
000001E000
000000B000
ENDCHAR
STARTCHAR uni0923094D
ENCODING -1
SWIDTH 454 0
DWIDTH 16 0
BBX 18 17 -1 6
BITMAP
7FFFFFFFE0
6AFAAABA90
00E0007400
00E0007400
00E0007400
00E0007400
00E0007400
00E0007400
00E0007400
00E0007400
00E0007400
00E0007400
00E000B400
00B000B000
007902E000
002FFF8000
0001A50000
ENDCHAR
STARTCHAR uni0924094D
ENCODING -1
SWIDTH 263 0
DWIDTH 9 0
BBX 14 23 -1 0
BITMAP
7FFFFFF0
6AAAAAA0
00000000
00000000
00000000
00000000
00000000
0006AAA0
007FFFF0
00F80000
01E00000
02D00000
02C00000
02C00000
02C00000
02C00000
02C00000
02C00000
02D00000
01D00000
00F00000
007E9000
001BD000
ENDCHAR
STARTCHAR uni0925094D
ENCODING -1
SWIDTH 359 0
DWIDTH 13 0
BBX 15 19 2 4
BITMAP
02FE0000
0FABC000
2D01E000
2C00E000
2800F000
2800F000
0000E000
0000E000
0002D000
6AAF8000
BFFE0000
B0000000
B0000000
B0000000
B0000000
74000018
3D00007C
1FAAAAF0
02FFFE40
ENDCHAR
STARTCHAR uni0926094D
ENCODING -1
SWIDTH 489 0
DWIDTH 18 0
BBX 19 29 -1 -6
BITMAP
7FFFFFFFFC
6AAAAAAEA8
0000001D00
0000001D00
0000001D00
0000001D00
001BFFFD00
007EAAA800
00F4000000
01E0000000
01D0000000
02D0000000
02D0000000
02D0000000
02D0000B00
01D0000B00
01E0000F00
00F4001F00
007EAABF00
001BFF9B00
0000000B00
0000000B00
0000100B00
0000380000
00001E0000
00000B4000
000003C000
000001E000
0000005000
ENDCHAR
STARTCHAR uni0927094D
ENCODING -1
SWIDTH 321 0
DWIDTH 12 0
BBX 18 20 -1 3
BITMAP
7FFFE0BFD0
6ABE906A80
00F0000000
01D0000000
01D0000000
01D0000000
01D0000000
00E0000000
00B4000000
002FFC0000
007EA40000
00F0000000
01D0000000
01D0000000
01D0000000
01D0000000
01E0000040
00F40007C0
007EAAAF40
001BFFF800
ENDCHAR
STARTCHAR uni0928094D
ENCODING -1
SWIDTH 233 0
DWIDTH 8 0
BBX 13 16 -1 7
BITMAP
7FFFFFC0
6AAAAA80
00000000
00000000
00000000
00000000
00000000
00000000
00000000
01BFFFC0
03EAAA80
07400000
0B000000
0B000000
07400000
03400000
ENDCHAR
STARTCHAR uni092A094D
ENCODING -1
SWIDTH 269 0
DWIDTH 10 0
BBX 16 17 -1 6
BITMAP
7FFFFFFD
6AFAAAA8
00E00000
00E00000
00E00000
00E00000
00E00000
00E00000
00E00000
00E00000
00E00000
00E00000
00F00000
00B4001D
007D00B8
001FFFE0
0001A940
ENDCHAR
STARTCHAR uni092B094D
ENCODING -1
SWIDTH 530 0
DWIDTH 19 0
BBX 25 23 -1 0
BITMAP
7FFFFFFFFFFF80
6AFAAAAEAAAA40
00E0001D000000
00E0001D000000
00E0001D000000
00E0001D1A9000
00E0001EFFFE00
00E0001F901B40
00E0001F000240
00E0001E000000
00E0001D000000
00E0001D000000
00F0002D000000
00B8007D000000
002FAAED000000
0006FE5D000000
0000001D000000
0000001D000000
0000001D000000
0000001D000000
0000001D000000
0000001D000000
0000001D000000
ENDCHAR
STARTCHAR uni092C094D
ENCODING -1
SWIDTH 265 0
DWIDTH 10 0
BBX 16 20 -1 3
BITMAP
7FFFFFFC
6AAAAAA8
00000000
00000000
00000000
001BFC00
007EA800
00F40000
01FC0000
02CA0000
02C38000
02C0E000
02C07800
02C01E08
02C0075D
02C001EC
01D0007C
00F00078
007EAAF0
001BFF80
ENDCHAR
STARTCHAR uni092D094D
ENCODING -1
SWIDTH 261 0
DWIDTH 9 0
BBX 15 17 -1 6
BITMAP
7E000FF4
6F800AA0
02D00000
01E00000
00E00000
00E00000
00E00000
00E00000
00E00000
00E00000
00FAAAA0
00FFFFF4
00E00000
00E00000
00E00000
00E00000
00900000
ENDCHAR
STARTCHAR uni092E094D
ENCODING -1
SWIDTH 261 0
DWIDTH 9 0
BBX 15 17 -1 6
BITMAP
7FFFFFF4
6AFAAAA0
00E00000
00E00000
00E00000
00E00000
00E00000
00E00000
00E00000
00E00000
00FAAAA0
00FFFFF4
00E00000
00E00000
00E00000
00E00000
00900000
ENDCHAR
STARTCHAR uni092F094D
ENCODING -1
SWIDTH 323 0
DWIDTH 12 0
BBX 17 19 -1 4
BITMAP
7FFFFFFF00
6AABEAAA00
0000B00000
0000740000
0000780000
0000780000
0000740000
0000B40000
01ABE00000
02FE400000
02D0000000
02D0000000
02D0000000
02D0000000
01D0000000
01E0000180
00B40007C0
002FAAAE00
0006FFE400
ENDCHAR
STARTCHAR uni0930094D
ENCODING -1
SWIDTH 337 0
DWIDTH 12 0
BBX 14 31 -1 -8
BITMAP
7FFFFFE0
6AAABA90
0000B400
0000B400
0000B400
0000B400
0000B400
0000B400
0000B000
0000F000
0002E000
0BFF8000
0BA90000
03C00000
01E00000
00B40000
00780000
001D0000
000B4000
00078000
0002D000
0000F000
00007800
00000000
00040000
000F0000
00078000
0002D000
0000F000
00007800
00001800
ENDCHAR
STARTCHAR uni0932094D
ENCODING -1
SWIDTH 431 0
DWIDTH 16 0
BBX 22 22 -1 1
BITMAP
7FFFFFFFFFD0
6AAAAAAAAA80
000000000000
000000000000
000000000000
000000000000
000000000000
001BF906F900
007EAF6FAF80
00F402F401C0
01E001F00000
01D000E00000
01D000E00000
01D000E00000
01D000E00000
01D000900000
01D000000000
01D000000000
00E000000000
00B900000000
002FFC000000
0005A8000000
ENDCHAR
STARTCHAR uni0933094D
ENCODING -1
SWIDTH 677 0
DWIDTH 24 0
BBX 26 22 -1 1
BITMAP
7FFFFFFFFFFFE0
6AAAAAAAAAAA90
00000000000000
00000000000000
00000000000000
00000000000000
0005A401A50000
002FFF4FFF8000
00B807FD02E000
01E001F400B400
01D000F0007800
02C000F0003800
02C000F0003800
02C000F0003800
02C000F0003800
02C000F0003800
02C000F0003800
02D000F0007800
01E001F400B400
00B807FD02E000
002FFF5FFF8000
0005A401A90000
ENDCHAR
STARTCHAR uni0935094D
ENCODING -1
SWIDTH 255 0
DWIDTH 9 0
BBX 16 20 -1 3
BITMAP
7FFFFFFC
6AAAAAA8
00000000
00000000
00000000
001BFC00
007EA800
00F40000
01D00000
02C00000
02C00000
02C00000
02C00000
02C00008
02C0001D
02C0001C
01D0002C
00F00078
007EAAF0
001BFF80
ENDCHAR
STARTCHAR uni0936094D
ENCODING -1
SWIDTH 378 0
DWIDTH 14 0
BBX 11 23 1 0
BITMAP
01BF90
07EAF4
0F0078
1E002C
1D002C
1D002C
1D002C
00002C
00002C
00003C
0000B8
6AABF0
7FFF80
3C0000
1E0000
0B4000
03C000
01E000
00B400
003C00
001E00
000B40
0003C0
ENDCHAR
STARTCHAR uni0937094D
ENCODING -1
SWIDTH 282 0
DWIDTH 10 0
BBX 16 17 -1 6
BITMAP
7FFFFFFE
6AFAAAA9
00F40000
00FD0000
00EB4000
00E2C000
00E0A000
00E03800
00E01E00
00E00740
00E001D0
00E000B4
00F0002E
00B4001E
007D00B8
001FFFE0
0001A900
ENDCHAR
STARTCHAR uni0938094D
ENCODING -1
SWIDTH 338 0
DWIDTH 12 0
BBX 18 23 -1 0
BITMAP
7FFFFFFFD0
6AAAEAAA80
0001D00000
0001D00000
0001D00000
0001D00000
0001D00000
0001D00000
0001D00000
0002C00000
000B800000
0BFFFFFFD0
0BAAAAAA80
0780000000
02D0000000
00F0000000
0078000000
002C000000
001E000000
000B400000
0003800000
0002D00000
0000F00000
ENDCHAR
STARTCHAR uni0939094D
ENCODING -1
SWIDTH 457 0
DWIDTH 16 0
BBX 22 25 -1 -2
BITMAP
7FFFFFFFF800
6AAAAABEA400
0000002C0000
0000002C0000
0000002C0000
0006AABC0000
002FFFFC0000
00B800000000
00F000000000
00E000000000
00E000000000
00F000000000
007800000000
001FFFFFFFD0
002EAAAAAA80
00B400000000
00E000000000
01D000000000
01D000000000
01D000000000
01E000000000
00F000000000
007900000000
002FFFFD0000
0001AAA80000
ENDCHAR
STARTCHAR uni0915093C094D
ENCODING -1
SWIDTH 519 0
DWIDTH 19 0
BBX 25 25 -1 -2
BITMAP
7FFFFFFFFFFF40
6AAAAABEAAAA00
0000002C000000
0000002C000000
0000002C000000
0006A42C5A9000
003FF82DFFFD00
00F8002F401F00
01E0002D000700
02C0002C000000
02C0002C000000
02C0002C000000
02C0002C000000
02C0002C000000
02C0002C000000
02C0003C000000
01E0007C000000
00F801FC000000
007FFFAC000000
0006A52C000000
0000002C000000
0000002C000000
0000002C000000
003C0014000000
00180000000000
ENDCHAR
STARTCHAR uni0916093C094D
ENCODING -1
SWIDTH 463 0
DWIDTH 17 0
BBX 22 25 -1 -2
BITMAP
7FFFFFFFFFE0
6AAABAAAAA90
0000B4000000
0000B4000000
0000B4000000
0000B4000000
0000B406F400
0000B41FA400
0000B03D0000
0000F0780000
0002E0740000
0BFF80B40000
0BA900B40000
03C000740000
01E000780010
00B4003D00B0
007C001FABD0
002E0006FE00
000B40000000
000780000000
0002D0000000
0000F0000000
000078000000
02D000000000
019000000000
ENDCHAR
STARTCHAR uni0917093C094D
ENCODING -1
SWIDTH 264 0
DWIDTH 10 0
BBX 11 24 -1 -1
BITMAP
7FFFFC
6AAFA8
001E00
001E00
001E00
001E00
001E00
001E00
001E00
001E00
001E00
001D00
003C00
0AF400
1F9000
000000
000000
000000
000000
000000
000000
000000
007800
006400
ENDCHAR
STARTCHAR uni091C093C094D
ENCODING -1
SWIDTH 314 0
DWIDTH 11 0
BBX 16 26 -1 -3
BITMAP
7FFFFFFF
6AAAAAA9
00000000
00000000
00000000
00000000
00000000
01AAAAAA
01FFFFFF
0001F000
00007800
00003C00
00002C00
00002C00
00002C00
00002C00
00003C00
00007800
0001F400
0FFFE000
06A90000
00000000
00000000
00000000
00B40000
00600000
ENDCHAR
STARTCHAR uni0928093C094D
ENCODING -1
SWIDTH 241 0
DWIDTH 9 0
BBX 14 24 -1 -1
BITMAP
7FFFFFD0
2AAAAA80
00000000
00000000
00000000
00000000
00000000
00000000
00000000
00BFFFD0
02EAAA80
07800000
07400000
07400000
03800000
02800000
00000000
00000000
00000000
00000000
00000000
00000000
001D0000
00190000
ENDCHAR
STARTCHAR uni092B093C094D
ENCODING -1
SWIDTH 530 0
DWIDTH 19 0
BBX 25 24 -1 -1
BITMAP
7FFFFFFFFFFF80
6AFAAAAEAAAA40
00E0001D000000
00E0001D000000
00E0001D000000
00E0001D1A9000
00E0001EFFFE00
00E0001F901B40
00E0001F000240
00E0001E000000
00E0001D000000
00E0001D000000
00F0002D000000
00B8007D000000
002FAAED000000
0006FE5D000000
0000001D000000
0000001D000000
0000001D000000
0000001D000000
0000001D000000
0000001D000000
000A001D000000
000F0000000000
ENDCHAR
STARTCHAR uni092F093C094D
ENCODING -1
SWIDTH 325 0
DWIDTH 12 0
BBX 17 25 -1 -2
BITMAP
7FFFFFFF00
6AABEAAA00
0000B00000
0000740000
0000780000
0000780000
0000740000
0000B40000
01ABE00000
02FE400000
02D0000000
02D0000000
02D0000000
02D0000000
01D0000000
01E0000180
00B40007C0
002FAAAE00
0006FFE400
0000000000
0000000000
0000000000
0000000000
000B400000
0006000000
ENDCHAR
STARTCHAR uni09080902
ENCODING -1
SWIDTH 478 0
DWIDTH 17 0
BBX 19 34 -1 -2
BITMAP
000000BFD0
000002FA80
00000B8000
00000F0000
00000E0600
00000E0740
00000E0000
00000E0000
00000B4000
7FFFFFFFF8
6AAAAABEA4
0000002C00
0000002C00
0000002C00
0006AABC00
007FFFF800
00F4000000
01E0000000
01D0000000
01D0000000
01E0000000
00F4000000
007FFFE400
0006AABD00
0000001E00
0000000F00
01C0000B00
02D0000B00
02D0000F00
02F4002E00
02EFFFF800
02D6AA5000
02D0000000
01C0000000
ENDCHAR
STARTCHAR uni09300941
ENCODING -1
SWIDTH 533 0
DWIDTH 19 0
BBX 21 23 -1 0
BITMAP
7FFFFFFFFF80
6AAABAAAAA40
0000B4000000
0000B4000000
0000B4000000
0000B4000000
0000BFFE0000
0000BAABC000
0000B401E000
0000F000F000
0002E000B000
0BFF8000B000
0BA90000F000
03C00000E000
01E00002D000
00B4000B8000
0038007E0000
001E01F80000
000B40400000
000780000000
0002D0000000
0000F0000000
000078000000
ENDCHAR
STARTCHAR uni09300942
ENCODING -1
SWIDTH 645 0
DWIDTH 23 0
BBX 25 23 -1 0
BITMAP
7FFFFFFFFFFF80
6AAABAAAAAAA40
0000B400000000
0000B400000000
0000B400000000
0000B400000000
0000B406FE0000
0000B41FABC000
0000B03C01E000
0000F03800B000
0002E07400B000
0BFF807400B000
0BA9002400B000
03C0000000E000
01E0000001D000
00B40000078000
003800006E0000
001E0002F40000
000B400B800000
00078001000000
0002D000000000
0000B000000000
00007800000000
ENDCHAR
STARTCHAR uni09390941
ENCODING -1
SWIDTH 495 0
DWIDTH 18 0
BBX 20 32 -1 -9
BITMAP
7FFFFFFFFD
6AAAAABEA8
0000002C00
0000002C00
0000002C00
001BFFFC00
007EAAA400
00F4000000
00E0000000
00E0000000
00E0000000
00B4000000
003EAA5000
001FFFF800
0079007D00
00F0001E00
01E0000E00
01D0000E00
01D0000500
01D0000000
00E0000000
00B4000000
003FAA9000
000BFFFD00
0000001F00
0000000740
0380000780
02D0000780
00F4000740
007D000F00
001FEABD00
0001BFE400
ENDCHAR
STARTCHAR uni09390942
ENCODING -1
SWIDTH 492 0
DWIDTH 18 0
BBX 19 32 -1 -9
BITMAP
7FFFFFFFF8
6AAAAABEA4
0000002C00
0000002C00
0000002C00
0000002C00
001BFFFC00
007EAAA400
00F4000000
00E0000000
00E0000000
00E0000000
00B8000000
002FFFE000
002EAAFC00
00B4002D00
00E0000E00
01D0000E00
01D0000E00
01D0000000
00E0000000
00B4000000
003FA90000
001FFFD000
007D01B800
0074002D00
00B0000E00
00B0000B40
00B0000380
00740002C0
003EA001D0
000BF40040
ENDCHAR
STARTCHAR uni09260943
ENCODING -1
SWIDTH 390 0
DWIDTH 14 0
BBX 16 21 -1 2
BITMAP
7FFFFFFE
6AAAABA9
00000B40
00000B40
00000B40
001BFF40
007EAA00
00F00000
01E00000
01D00000
00E00000
00B40000
002FFC00
007EA800
00F00000
01E00000
01D00000
01E00000
00F00000
00BEAA80
001BFFD0
ENDCHAR
STARTCHAR uni09390943
ENCODING -1
SWIDTH 519 0
DWIDTH 19 0
BBX 20 28 -1 -5
BITMAP
7FFFFFFFFF
6AAAAABEAA
0000002C00
0000002C00
0000002C00
0006AABC00
007FFFF800
00F4000000
01D0000000
01D0000000
01D0000000
00E0000000
007EAAA900
002FFFFFD0
00B81E01E0
01E02C00B0
02D02C00B0
02C03C0010
02C02C0000
02C02C0000
02C01E0000
02C00BFFD0
02C001AA80
02D0000000
01E0000000
00B9000000
002FFFFC00
0005AAA800
ENDCHAR
STARTCHAR uni094D0930
ENCODING -1
SWIDTH 0 0
DWIDTH 0 0
BBX 12 7 -15 -6
BITMAP
007D00
00FF00
02DB80
0782D0
0F00F0
2D0078
78002D
ENDCHAR
STARTCHAR uni0930094D.1
ENCODING -1
SWIDTH 192 0
DWIDTH 7 0
BBX 14 10 -3 13
BITMAP
07FFF400
06AAA400
00000000
00000000
00000000
00000000
10000050
780001E0
2FAAAF80
06FFF900
ENDCHAR
STARTCHAR uni0930094D.2
ENCODING -1
SWIDTH 0 0
DWIDTH 0 0
BBX 6 10 -5 22
BITMAP
1BE0
7E90
B400
E000
E000
E000
E000
E000
E000
F000
ENDCHAR
STARTCHAR uni0930094D0902
ENCODING -1
SWIDTH 0 0
DWIDTH 0 0
BBX 6 10 -5 22
BITMAP
1BE0
7E90
B400
E000
E190
E1D0
E000
E000
E000
F000
ENDCHAR
STARTCHAR uni093E0930094D
ENCODING -1
SWIDTH 231 0
DWIDTH 8 0
BBX 10 32 -1 0
BITMAP
000BF0
002FA0
007800
00B400
00B000
00B000
00B000
00B000
00B000
7FFFE0
6AFA90
00B000
00B000
00B000
00B000
00B000
00B000
00B000
00B000
00B000
00B000
00B000
00B000
00B000
00B000
00B000
00B000
00B000
00B000
00B000
00B000
00B000
ENDCHAR
STARTCHAR uni093E0930094D0902
ENCODING -1
SWIDTH 231 0
DWIDTH 8 0
BBX 11 32 -1 0
BITMAP
000BF0
003FA0
007800
00B000
00B060
00B074
00B000
00B000
00B000
7FFFE0
6AFA90
00B000
00B000
00B000
00B000
00B000
00B000
00B000
00B000
00B000
00B000
00B000
00B000
00B000
00B000
00B000
00B000
00B000
00B000
00B000
00B000
00B000
ENDCHAR
STARTCHAR uni0930094D.aMatraI
ENCODING -1
SWIDTH 0 0
DWIDTH 0 0
BBX 6 8 -2 23
BITMAP
01A0
1FF0
7D00
B400
B000
B000
B000
B000
ENDCHAR
STARTCHAR uni0902.aMatraI
ENCODING -1
SWIDTH 0 0
DWIDTH 0 0
BBX 3 2 1 27
BITMAP
B4
74
ENDCHAR
STARTCHAR uni0930094D0902.aMatraI
ENCODING -1
SWIDTH 0 0
DWIDTH 0 0
BBX 6 8 -2 23
BITMAP
01A0
1FF0
7D00
B400
B090
B0E0
B000
B000
ENDCHAR
STARTCHAR uni09400930094D
ENCODING -1
SWIDTH 231 0
DWIDTH 8 0
BBX 15 32 -5 0
BITMAP
0BFE06F4
3EABAFA0
B401F800
E000F400
E000B000
E000B000
9000B000
0000B000
0000B000
007FFFE0
006AFA90
0000B000
0000B000
0000B000
0000B000
0000B000
0000B000
0000B000
0000B000
0000B000
0000B000
0000B000
0000B000
0000B000
0000B000
0000B000
0000B000
0000B000
0000B000
0000B000
0000B000
0000B000
ENDCHAR
STARTCHAR uni09400902
ENCODING -1
SWIDTH 231 0
DWIDTH 8 0
BBX 14 32 -5 0
BITMAP
0BFE0000
7EABC000
B401E000
E000F0F0
E000B0F0
E000B000
5000B000
0000B000
0000B000
007FFFE0
006AFA90
0000B000
0000B000
0000B000
0000B000
0000B000
0000B000
0000B000
0000B000
0000B000
0000B000
0000B000
0000B000
0000B000
0000B000
0000B000
0000B000
0000B000
0000B000
0000B000
0000B000
0000B000
ENDCHAR
STARTCHAR uni09400930094D0902
ENCODING -1
SWIDTH 231 0
DWIDTH 8 0
BBX 15 32 -5 0
BITMAP
0BFA06F4
7EAB9FA0
B401F800
E000F400
E000B060
E000B074
5000B000
0000B000
0000B000
007FFFE0
006AFA90
0000B000
0000B000
0000B000
0000B000
0000B000
0000B000
0000B000
0000B000
0000B000
0000B000
0000B000
0000B000
0000B000
0000B000
0000B000
0000B000
0000B000
0000B000
0000B000
0000B000
0000B000
ENDCHAR
STARTCHAR uni0940.aLong
ENCODING -1
SWIDTH 231 0
DWIDTH 8 0
BBX 23 32 -14 0
BITMAP
0BFFFFFF8000
3FAAAAAAF000
B40000007800
B00000003C00
E00000002C00
E00000002C00
900000002C00
000000002C00
000000002C00
0000001FFFF8
0000001ABEA4
000000002C00
000000002C00
000000002C00
000000002C00
000000002C00
000000002C00
000000002C00
000000002C00
000000002C00
000000002C00
000000002C00
000000002C00
000000002C00
000000002C00
000000002C00
000000002C00
000000002C00
000000002C00
000000002C00
000000002C00
000000002C00
ENDCHAR
STARTCHAR uni09400930094D.aLong
ENCODING -1
SWIDTH 231 0
DWIDTH 8 0
BBX 23 32 -14 0
BITMAP
0BFFFFFE82FC
3FAAAAAAEBE8
B40000007E00
B00000003C00
E00000002C00
E00000002C00
900000002C00
000000002C00
000000002C00
0000001FFFF8
0000001ABEA4
000000002C00
000000002C00
000000002C00
000000002C00
000000002C00
000000002C00
000000002C00
000000002C00
000000002C00
000000002C00
000000002C00
000000002C00
000000002C00
000000002C00
000000002C00
000000002C00
000000002C00
000000002C00
000000002C00
000000002C00
000000002C00
ENDCHAR
STARTCHAR uni09400902.aLong
ENCODING -1
SWIDTH 231 0
DWIDTH 8 0
BBX 24 32 -14 0
BITMAP
0BFFFFFF8000
3FAAAAAAF000
B40000007800
F00000003C1D
E00000002C2D
E00000002C00
500000002C00
000000002C00
000000002C00
0000001FFFF8
0000001ABEA4
000000002C00
000000002C00
000000002C00
000000002C00
000000002C00
000000002C00
000000002C00
000000002C00
000000002C00
000000002C00
000000002C00
000000002C00
000000002C00
000000002C00
000000002C00
000000002C00
000000002C00
000000002C00
000000002C00
000000002C00
000000002C00
ENDCHAR
STARTCHAR uni09400930094D0902.aLong
ENCODING -1
SWIDTH 231 0
DWIDTH 8 0
BBX 24 32 -14 0
BITMAP
0BFFFFFE82FC
3FAAAAAAEBE8
B40000007E00
F00000003C00
E00000002C18
E00000002C1D
500000002C00
000000002C00
000000002C00
0000001FFFF8
0000001ABEA4
000000002C00
000000002C00
000000002C00
000000002C00
000000002C00
000000002C00
000000002C00
000000002C00
000000002C00
000000002C00
000000002C00
000000002C00
000000002C00
000000002C00
000000002C00
000000002C00
000000002C00
000000002C00
000000002C00
000000002C00
000000002C00
ENDCHAR
STARTCHAR uni09470930094D
ENCODING -1
SWIDTH 0 0
DWIDTH 0 0
BBX 12 10 -11 22
BITMAP
F001BE
7803E9
2D0B40
0F0A00
078A00
02DA00
00FE00
007E00
001E00
000B00
ENDCHAR
STARTCHAR uni09470902
ENCODING -1
SWIDTH 0 0
DWIDTH 0 0
BBX 11 11 -11 21
BITMAP
F00000
B80000
3D0000
1F0000
0B8078
03D078
01F000
00B800
003D00
001F40
000640
ENDCHAR
STARTCHAR uni09470901
ENCODING -1
SWIDTH 0 0
DWIDTH 0 0
BBX 18 11 -11 21
BITMAP
F00001D000
7801018010
2D074000B0
1F074000B0
0B838000E0
03D2D002D0
01F0FFFF80
00B81AA500
002D000000
000F400000
0006400000
ENDCHAR
STARTCHAR uni09470930094D0902
ENCODING -1
SWIDTH 0 0
DWIDTH 0 0
BBX 12 10 -11 22
BITMAP
F001BE
7803E9
2D0B40
0F0A00
078A00
02DA1D
00FE09
007E00
001E00
000B00
ENDCHAR
STARTCHAR uni09480930094D
ENCODING -1
SWIDTH 0 0
DWIDTH 0 0
BBX 13 10 -12 22
BITMAP
B41D1BC0
381E7E80
1D1EA000
0B0ED000
078EC000
01DA8000
00B78000
003B8000
001F8000
0007C000
ENDCHAR
STARTCHAR uni09480902
ENCODING -1
SWIDTH 0 0
DWIDTH 0 0
BBX 13 10 -12 22
BITMAP
78038000
2D038000
0F038000
07838000
02C383C0
00E38380
00768000
002E8000
000B8000
0002C000
ENDCHAR
STARTCHAR uni09480901
ENCODING -1
SWIDTH 0 0
DWIDTH 0 0
BBX 22 10 -12 22
BITMAP
78038002C000
2D0381018050
0F038B0000B0
0783874000E0
02C3878001E0
00E382EAABC0
007680BFFE00
002E80000000
000B80000000
0003C0000000
ENDCHAR
STARTCHAR uni09480930094D0902
ENCODING -1
SWIDTH 0 0
DWIDTH 0 0
BBX 13 10 -12 22
BITMAP
B41D1BC0
381E7E80
1D1EA000
0B0ED000
078EC240
01DA8740
00B78000
003B8000
001F8000
0007C000
ENDCHAR
STARTCHAR uni094B0930094D
ENCODING -1
SWIDTH 231 0
DWIDTH 8 0
BBX 12 32 -3 0
BITMAP
B400BF
3C02FA
1E0780
0B4700
03CB00
01EB00
00BB00
002F00
000F00
07FFFE
06AFA9
000B00
000B00
000B00
000B00
000B00
000B00
000B00
000B00
000B00
000B00
000B00
000B00
000B00
000B00
000B00
000B00
000B00
000B00
000B00
000B00
000B00
ENDCHAR
STARTCHAR uni094B0902
ENCODING -1
SWIDTH 231 0
DWIDTH 8 0
BBX 12 32 -3 0
BITMAP
B40000
3C0000
1E0000
0B4074
03C074
01E000
00B400
002C00
000E00
07FFFE
06AFA9
000B00
000B00
000B00
000B00
000B00
000B00
000B00
000B00
000B00
000B00
000B00
000B00
000B00
000B00
000B00
000B00
000B00
000B00
000B00
000B00
000B00
ENDCHAR
STARTCHAR uni094B0930094D0902
ENCODING -1
SWIDTH 231 0
DWIDTH 8 0
BBX 13 32 -3 0
BITMAP
B400BF00
3C02FA00
1E078000
0B470000
03DB0600
01EB0740
00BF0000
002F0000
000F0000
07FFFE00
06AFA900
000B0000
000B0000
000B0000
000B0000
000B0000
000B0000
000B0000
000B0000
000B0000
000B0000
000B0000
000B0000
000B0000
000B0000
000B0000
000B0000
000B0000
000B0000
000B0000
000B0000
000B0000
ENDCHAR
STARTCHAR uni094C0930094D
ENCODING -1
SWIDTH 231 0
DWIDTH 8 0
BBX 14 32 -4 0
BITMAP
780F0BD0
2D0F2E80
1E0F7400
074BA000
02CB9000
00E7C000
0077C000
001EC000
000BC000
01FFFF80
01ABEA40
0002C000
0002C000
0002C000
0002C000
0002C000
0002C000
0002C000
0002C000
0002C000
0002C000
0002C000
0002C000
0002C000
0002C000
0002C000
0002C000
0002C000
0002C000
0002C000
0002C000
0002C000
ENDCHAR
STARTCHAR uni094C0902
ENCODING -1
SWIDTH 231 0
DWIDTH 8 0
BBX 12 32 -3 0
BITMAP
F00B00
780B00
2D0B00
0F0B0F
078B0F
01DB00
00B700
003B00
000F00
07FFFE
06AFA9
000B00
000B00
000B00
000B00
000B00
000B00
000B00
000B00
000B00
000B00
000B00
000B00
000B00
000B00
000B00
000B00
000B00
000B00
000B00
000B00
000B00
ENDCHAR
STARTCHAR uni094C0930094D0902
ENCODING -1
SWIDTH 231 0
DWIDTH 8 0
BBX 14 32 -4 0
BITMAP
780F0BD0
2D0F2E80
1E0F7400
074BA000
02CB9180
00E7C1D0
0077C000
001EC000
000BC000
01FFFF80
01ABEA40
0002C000
0002C000
0002C000
0002C000
0002C000
0002C000
0002C000
0002C000
0002C000
0002C000
0002C000
0002C000
0002C000
0002C000
0002C000
0002C000
0002C000
0002C000
0002C000
0002C000
0002C000
ENDCHAR
STARTCHAR uni0915094D0937
ENCODING -1
SWIDTH 656 0
DWIDTH 24 0
BBX 22 23 2 0
BITMAP
006FE0007FF0
02FABC00BAA0
07801E00B400
0B000B00B400
0B000B00B400
0B000B00B400
0B000A00B400
07801D00B400
02FABEAAF400
1FFFFFFFF400
3D000000B400
74000000B400
B0000000B400
B0000000B400
B0000B00B400
B0000F00B400
B0000F00B400
74001F00B400
3D007F00B400
1FFFEF00B400
01AA4B00B400
00000B00B400
00000B006000
ENDCHAR
STARTCHAR uni0915094D0937094D
ENCODING -1
SWIDTH 429 0
DWIDTH 15 0
BBX 18 23 2 0
BITMAP
006FE00000
02FABC0000
07801D0000
0B000E0000
0B000B0000
0F000B0000
0B000B0000
07400E0000
02D06D0000
06FFFFFFE0
2FAAAAAA90
7800000000
B400000000
B000000000
B0000B0000
B0000F0000
B0000F0000
B4001F0000
7D007F0000
1FFFEF0000
01AA4B0000
00000B0000
00000B0000
ENDCHAR
STARTCHAR uni0915094D0937094D092E
ENCODING -1
SWIDTH 933 0
DWIDTH 34 0
BBX 32 23 2 0
BITMAP
006FE007FFFFFFFF
02FABC02BAAAABAA
07801E0078000740
0B000B0078000740
0B000B0078000740
0B000B0078000740
0B000A0078000740
07801D0078000740
02FABEAAB8000740
1FFFFFFFF8000740
3D0000007AAAAB40
740000007FFFFF40
B000000078000740
B000000078000740
B0000B0078000740
B0000F0078000740
B0000F0024000740
74001F0000000740
3D007F0000000740
1FFFEF0000000740
01AA4B0000000740
00000B0000000740
00000B0000000600
ENDCHAR
STARTCHAR uni0915094D0937094D092E094D
ENCODING -1
SWIDTH 717 0
DWIDTH 26 0
BBX 28 23 2 0
BITMAP
006FE007FFFFFE
02FABC02BAAAA9
07801E00780000
0B000B00780000
0B000B00780000
0B000B00780000
0B000A00780000
07801D00780000
02FABEAAB80000
1FFFFFFFF80000
3D0000007AAAA9
740000007FFFFE
B0000000780000
B0000000780000
B0000B00780000
B0000F00780000
B0000F00240000
74001F00000000
3D007F00000000
1FFFEF00000000
01AA4B00000000
00000B00000000
00000B00000000
ENDCHAR
STARTCHAR uni0915094D0937094D092E094D092F
ENCODING -1
SWIDTH 1283 0
DWIDTH 46 0
BBX 45 23 2 0
BITMAP
006FE007FFFFFFFFFFFFFF80
02FABC02BAAAAAAFAAABEA40
07801E00780000038003C000
0B000B0078000001D003C000
0B000B0078000001D003C000
0B000B0078000001D003C000
0B000A0078000001D003C000
07801D0078000003C003C000
02FABEAAB80006AF8003C000
1FFFFFFFF8000BF90003C000
3D0000007AAAAF000003C000
740000007FFFFF000003C000
B000000078000B000003C000
B000000078000B000003C000
B0000B0078000B400003C000
B0000F00780007800007C000
B0000F00100002D0001FC000
74001F00000000FAAABBC000
3D007F000000002BFF93C000
1FFFEB00000000000003C000
01AA4B00000000000003C000
00000B00000000000003C000
00000B000000000000018000
ENDCHAR
STARTCHAR uni0915094D0937094D092F
ENCODING -1
SWIDTH 989 0
DWIDTH 36 0
BBX 34 23 2 0
BITMAP
006FE007FFFFFFFFF0
02FABC02ABFAAABAA0
07801D0000B4007400
0B000E000038007400
0B000B000038007400
0F000B00003C007400
0B000B000038007400
07400E000038007400
02D06C0001B4007400
06FFFFFFFFE0007400
2FAAAAAAE900007400
78000001D000007400
B4000001D000007400
B0000001D000007400
B0000B00E00000B400
B0000F00F00000F400
B0000F00780002F400
B4001F002FAAAFB400
7D007F0006FFF87400
1FFFEB000000007400
01AA4B000000007400
00000B000000007400
00000B000000006000
ENDCHAR
STARTCHAR uni0915094D0937094D0935
ENCODING -1
SWIDTH 936 0
DWIDTH 34 0
BBX 32 23 2 0
BITMAP
006FE007FFFFFFFF
02FABC02AAAAABAA
07801E0000000740
0B000B0000000740
0B000B0000000740
0B000B00016A0740
0B000A000BFF0740
07801D002E400740
02FABEAAB8000740
1FFFFFFFF4000740
3D00000074000740
7400000074000740
B000000074000740
B000000074000740
B0000B0074000740
B0000F0074000740
B0000F0038000F40
74001F002E406F40
3D007F000BFFF740
1FFFEF00016A4740
01AA4B0000000740
00000B0000000740
00000B0000000240
ENDCHAR
STARTCHAR uni091C094D091E
ENCODING -1
SWIDTH 629 0
DWIDTH 23 0
BBX 24 25 -1 -2
BITMAP
7FFFFFFFFFFF
6AAAAAAAABAA
000000000B40
000000000B40
000000000B40
000000000B40
001BFFFFFF40
00BEAAAAAB40
00F000000B40
01E000000B40
01D000000B40
01E000000B40
00F400000B40
007FFFE00B40
0006AAF80B40
0000002D0B40
01D0001D0B40
01D0001E0B40
01D0001D0B40
01F0002D0B40
01FEAAF80B40
01DBFFE00B40
01D000000740
01D000000000
01D000000000
ENDCHAR
STARTCHAR uni091C094D091E094D
ENCODING -1
SWIDTH 398 0
DWIDTH 14 0
BBX 19 25 -1 -2
BITMAP
7FFFFFFFFC
6AAAAAAAA8
0000000000
0000000000
0000000000
0000000000
001BFFFFFC
00BEAAAAA8
00F0000000
01E0000000
01D0000000
01E0000000
00F4000000
007FFFE000
0006AAF800
0000002D00
01D0001D00
01D0001E00
01D0001D00
01F0002D00
01FEAAF800
01DBFFE000
01D0000000
01D0000000
01D0000000
ENDCHAR
STARTCHAR uni091C094D091E094D092F
ENCODING -1
SWIDTH 975 0
DWIDTH 35 0
BBX 37 25 -1 -2
BITMAP
7FFFFFFFFFFFFFFFFF80
6AAAAAAAAAAFAAABEA40
00000000000380038000
000000000002D0038000
000000000001D0038000
000000000001D0038000
001BFFFFE401D0038000
00BEAAAABD02D0038000
00F000001E03C0038000
01E000000FAF40038000
01D000000FF900038000
01E000000E0000038000
00F400000E0000038000
007FFFE00F0000038000
0006AAF80B0000038000
0000002D0B4000078000
01D0001D03D0001F8000
01D0001E01FAAABB8000
01D0001D002FFF938000
01F0002D000000038000
01FEAAF8000000038000
01DBFFE0000000038000
01D00000000000038000
01D00000000000000000
01D00000000000000000
ENDCHAR
STARTCHAR uni0915094D0928
ENCODING -1
SWIDTH 1003 0
DWIDTH 36 0
BBX 38 23 -1 0
BITMAP
7FFFFFFFFFFFFFFFFFE0
6AAAAABEAAAAAAAAFA90
0000002C00000000E000
0000002C00000000E000
0000002C00000000E000
0006A42C5A500000E000
003FF82DFFFD0000E000
00F8002F401F0000E000
01E0002D00074000E000
02C0002C0003FFFFE000
02C0002C000BAAAAE000
02C0002C001E0000E000
02C0002C001D0000E000
02C0002C001E0000E000
02C0002C000E0000E000
02C0003C000A0000E000
01E0007C00000000E000
00F801FC00000000E000
007FFFAC00000000E000
0006A52C00000000E000
0000002C00000000E000
0000002C00000000E000
0000002C00000000E000
ENDCHAR
STARTCHAR uni0916094D0928
ENCODING -1
SWIDTH 958 0
DWIDTH 34 0
BBX 36 23 -1 0
BITMAP
7FFFFFFFFFFFFFFFFF
6AAABAAAAAAAAAAFAA
0000B4000000000B40
0000B4000000000B40
0000B4000000000B40
0000B4000000000B40
0000B406FE40000B40
0000B41FABD0000B40
0000B03D00F0000B40
0000F0780074000B40
0002E074003FFFFF40
0BFF80B4007EAAAF40
0BA9007400B4000B40
03C0007800F0000B40
01E0002E00B0000B40
00B4000BFFF0000B40
003C0001AAB4000B40
001E00000038000B40
000B40000000000B40
0007C0000000000B40
0001E0000000000B40
0000B4000000000B40
000078000000000B00
ENDCHAR
STARTCHAR uni0917094D0928
ENCODING -1
SWIDTH 736 0
DWIDTH 27 0
BBX 28 23 -1 0
BITMAP
7FFFFFFFFFFFFF
6AAFAAAAAAAFAA
001E0000000B40
001E0000000B40
001E0000000B40
001E0000000B40
001E0000000B40
001E0000000B40
001E0000000B40
001E001FFFFF40
001E007EAAAF40
001D00B4000B40
003C00F0000B40
0AF400B0000B40
1F9000B0000B40
00000074000B40
00000000000B40
00000000000B40
00000000000B40
00000000000B40
00000000000B40
00000000000B40
00000000000B40
ENDCHAR
STARTCHAR uni0918094D0928
ENCODING -1
SWIDTH 814 0
DWIDTH 29 0
BBX 31 23 -1 0
BITMAP
7FFFFFFFFFFFFFF8
6ABEAAAAAAAABEA4
00F0000000002C00
01D0000000002C00
01D0000000002C00
01D0000000002C00
01E0000000002C00
00B4000000002C00
002FFC0000002C00
006EA4001AAABC00
00F00001FFFFFC00
01D00002D0002C00
01D0000380002C00
01D0000380002C00
01E0000380002C00
00B8001FC0002C00
002FFFFED0002C00
0005AA9090002C00
0000000000002C00
0000000000002C00
0000000000002C00
0000000000002C00
0000000000002C00
ENDCHAR
STARTCHAR uni091A094D0928
ENCODING -1
SWIDTH 829 0
DWIDTH 30 0
BBX 32 23 -1 0
BITMAP
7FFFFFFFFFFFFFFD
6AAAAAAAAAAAAFA9
0000000000000E00
0000000000000E00
0000000000000E00
0000000000000E00
0000000000000E00
1FFFFF8000000E00
0AAFEA4000000E00
001E00001AAAAE00
003C0000BFFFFE00
00380001E4001E00
00780001D0000E00
00380002D0000E00
003C0001D0000E00
002E0007D0000E00
000FEAAFE0000E00
0002FFF8B0000E00
0000000000000E00
0000000000000E00
0000000000000E00
0000000000000E00
0000000000000E00
ENDCHAR
STARTCHAR uni091B094D0928
ENCODING -1
SWIDTH 977 0
DWIDTH 35 0
BBX 37 23 -1 0
BITMAP
7FFFFFFFFFFFFFFFFF80
6ABEAAAAAAAAAAABEA40
00B4000000000003C000
00E0000000000003C000
01E0000000000003C000
01E0002A40000003C000
01E0003FF0000003C000
01E00000B8000003C000
00E000002C000003C000
00B800001D0BFFFFC000
001FF4001D2FAAABC000
003EA0001D380003C000
00B400001D780003C000
00E000001D380003C000
01E000001D380003C000
01E000001D280003C000
01E000001D000003C000
01E000002D000003C000
00F000003C000003C000
00B90001B4000003C000
002FFFFFE0000003C000
0005AAA900000003C000
0000000000000003C000
ENDCHAR
STARTCHAR uni091C094D0928
ENCODING -1
SWIDTH 831 0
DWIDTH 30 0
BBX 32 23 -1 0
BITMAP
7FFFFFFFFFFFFFFD
6AAAAAAAAAAAAFA9
0000000000000E00
0000000000000E00
0000000000000E00
0000000000000E00
0000000000000E00
0000000000000E00
0000000000000E00
01FFFFFFFFFFFE00
01ABFAAAFAAAAE00
0000B401E0000E00
00003802D0000E00
00002C01D0000E00
00002C01E0000E00
00002C00A0000E00
00002C0000000E00
00003C0000000E00
0000780000000E00
0001F40000000E00
0FFFE00000000E00
06A9000000000E00
0000000000000E00
ENDCHAR
STARTCHAR uni091D094D0928
ENCODING -1
SWIDTH 935 0
DWIDTH 34 0
BBX 35 24 -1 -1
BITMAP
7FFFFFFFFFFFFFFFFC
6AAAAAFAAAAAAAAEA8
000000E00000001D00
000000E00000001D00
000000E00000001D00
001BFFE00000001D00
00BEAA900000001D00
00E000000000001D00
01D000000000001D00
01D00000001AAAAD00
01E0000000BFFFFD00
00F4000001E0001D00
007FFFFFFFC0001D00
0006AAFAABC0001D00
0000007402D0001D00
02C000380190001D00
02C000380000001D00
02D000380000001D00
02E000780000001D00
02F401B40000001D00
02EFFFE00000001D00
02C6A9400000001D00
02C000000000001D00
02C000000000000000
ENDCHAR
STARTCHAR uni091F094D0928
ENCODING -1
SWIDTH 494 0
DWIDTH 18 0
BBX 20 32 -1 -9
BITMAP
7FFFFFFFFD
6AAAAABEA8
0000002C00
0000002C00
0000002C00
0000002C00
0000002C00
0005AABC00
002FFFF800
00B9000000
01E0000000
01D0000000
02C0000140
02C00002C0
02C00002C0
01D0000380
01E0000780
00B9001F00
002FFFFD00
0005AABC00
0000002C00
0000002C00
0000002C00
0016AABC00
00BFFFFC00
01E4002C00
01D0002C00
01D0002C00
01D0002C00
00E0002C00
0000002C00
0000002C00
ENDCHAR
STARTCHAR uni0920094D0928
ENCODING -1
SWIDTH 516 0
DWIDTH 19 0
BBX 20 32 -1 -9
BITMAP
7FFFFFFFFF
6AAAAAAEAA
0000001D00
0000001D00
0000002D00
0000002C00
0000007800
001BFFF000
007EAABD00
00F4000B40
01D0000780
02D0000380
02C00003C0
02C00003C0
02C00003C0
02D0000380
01E0000780
00B9001F00
002FFFFD00
0005AA7C00
0000002C00
0000002C00
0000002C00
0016AABC00
00BFFFFC00
01E4002C00
01D0002C00
01D0002C00
01D0002C00
00E0002C00
0000002C00
0000002C00
ENDCHAR
STARTCHAR uni0921094D0928
ENCODING -1
SWIDTH 481 0
DWIDTH 17 0
BBX 19 32 -1 -9
BITMAP
7FFFFFFFF8
6AAAAABEA4
0000002C00
0000002C00
0000002C00
0006AABC00
007FFFF800
00F4000000
01E0000000
01D0000000
01E0000000
00F4000000
007FFFE400
0006AABD00
0000001F00
0180000B00
01D0000B00
01D0000F00
00F4002E00
007FFFFC00
0006AA7C00
0000002C00
0000002C00
0016AABC00
007FFFFC00
00F4002C00
01D0002C00
01D0002C00
01E0002C00
00E0002C00
0000002C00
0000002C00
ENDCHAR
STARTCHAR uni0924094D0928
ENCODING -1
SWIDTH 756 0
DWIDTH 27 0
BBX 29 23 -1 0
BITMAP
7FFFFFFFFFFFFF80
6AAAAAAAAAABEA40
000000000002C000
000000000002C000
000000000002C000
000000000002C000
000000000002C000
0006AA900002C000
007FFFF80003C000
00F8002FFFFFC000
01E0002FAAABC000
02D0003C0002C000
02C000380002C000
02C000380002C000
02C0003C0002C000
02C000180002C000
02C000000002C000
02C000000002C000
02D000000002C000
01D000000002C000
00F000000002C000
007E90000002C000
001BD0000002C000
ENDCHAR
STARTCHAR uni0925094D0928
ENCODING -1
SWIDTH 855 0
DWIDTH 31 0
BBX 30 23 2 0
BITMAP
02FE00FFFFFFFFD0
0FABC0AAAAAAEA80
2D01E0000001D000
2C00E0000001D000
2C00F0000001D000
2800F0000001D000
1400E0000001D000
0000E0000001D000
0002D0000001D000
6AAF8001AAAAD000
BFFE000BFFFFD000
B000001E0001D000
B000002D0001D000
B000002C0001D000
B400002D0001D000
3D00007D0001D000
1FAAABEE0001D000
06FFFE450001D000
000000000001D000
000000000001D000
000000000001D000
000000000001D000
000000000001D000
ENDCHAR
STARTCHAR uni0926094D0928
ENCODING -1
SWIDTH 955 0
DWIDTH 34 0
BBX 36 31 -1 -8
BITMAP
7FFFFFFFFFFFFFFFFF
6AAAAAAEAAAAAAAFA9
0000001D0000000B00
0000001D0000000B00
0000001D0000000B00
0000001D0000000B00
001BFFFD0000000B00
007EAAA80000000B00
00F400000000000B00
01E00000001FFFFF00
01D00000007EAAAF00
02D0000000F0000B00
02D0000000E0000B00
02D0000000E0000B00
02D0000B00B0000B00
01D0000B00B0000B00
01E0000F0000000B00
00F4001F0000000B00
007EAABF0000000B00
001BFF9B0000000B00
0000000B0000000B00
0000000B0000000B00
0000000B0000000B00
000000000000000000
000000010000000000
0000000B4000000000
00000003C000000000
00000001E000000000
00000000B400000000
000000003C00000000
000000001900000000
ENDCHAR
STARTCHAR uni0927094D0928
ENCODING -1
SWIDTH 814 0
DWIDTH 29 0
BBX 31 23 -1 0
BITMAP
7FFFF00FFFFFFFF8
6ABEA006AAAABEA4
00F0000000002C00
01D0000000002C00
01D0000000002C00
01D0000000002C00
01E0000000002C00
00B4000000002C00
002FFC0000002C00
002EA4001AAABC00
00F00001FFFFFC00
01E00002D0002C00
01D0000380002C00
01D0000380002C00
01E0000380002C00
00F4000BC0002C00
007EAABED0002C00
001BFFE490002C00
0000000000002C00
0000000000002C00
0000000000002C00
0000000000002C00
0000000000002C00
ENDCHAR
STARTCHAR uni0928094D0928
ENCODING -1
SWIDTH 738 0
DWIDTH 27 0
BBX 28 23 -1 0
BITMAP
7FFFFFFFFFFFFF
6AAAAAAAAAABAA
00000000000740
00000000000740
00000000000740
00000000000740
00000000000740
00000000000740
00000000000740
00BFFFFFFFFF40
02EAAABEAAAB40
078000B4000740
074000B0000740
074000B0000740
038000B0000740
02800064000740
00000000000740
00000000000740
00000000000740
00000000000740
00000000000740
00000000000740
00000000000740
ENDCHAR
STARTCHAR uni092A094D0928
ENCODING -1
SWIDTH 782 0
DWIDTH 28 0
BBX 30 23 -1 0
BITMAP
7FFFFFFFFFFFFFE0
6AFAAAAAAAAAFA90
00E000000000F000
00E000000000F000
00E000000000F000
00E000000000F000
00E000000000F000
00E000000000F000
00E000000000F000
00E000016AAAF000
00E00007FFFFF000
00E0000F4000F000
00B4001E0000F000
007D007E0000F000
001FFFEE0000F000
0001A94B0000F000
000000000000F000
000000000000F000
000000000000F000
000000000000F000
000000000000F000
000000000000F000
000000000000F000
ENDCHAR
STARTCHAR uni092B094D0928
ENCODING -1
SWIDTH 1013 0
DWIDTH 36 0
BBX 38 23 -1 0
BITMAP
7FFFFFFFFFFFFFFFFFF0
6AFAAAAEAAAAAAAABAA0
00E0001D00000000B400
00E0001D00000000B400
00E0001D00000000B400
00E0001D1A900000B400
00E0001EFFFD0000B400
00E0001F901F0000B400
00E0001F00074000B400
00E0001E0003FFFFF400
00E0001D0007EAAAF400
00E0001D000F0000B400
00F0002D000E0000B400
00B8007D000B0000B400
002FAAED000B0000B400
0006FE5D00020000B400
0000001D00000000B400
0000001D00000000B400
0000001D00000000B400
0000001D00000000B400
0000001D00000000B400
0000001D00000000B400
0000001D00000000B000
ENDCHAR
STARTCHAR uni092C094D0928
ENCODING -1
SWIDTH 810 0
DWIDTH 29 0
BBX 31 23 -1 0
BITMAP
7FFFFFFFFFFFFFF8
6AAAAAAAAAAABEA4
0000000000003C00
0000000000003C00
0000000000003C00
001BFC0000003C00
007EA80000003C00
00F4000000003C00
01FC000000003C00
02CB0000BFFFFC00
02C28002FAAABC00
02C0E00380003C00
02C0380780003C00
02C01E0780003C00
02C0078380003C00
02C001E280003C00
01D0007400003C00
00F000B800003C00
007EABE000003C00
001BFE4000003C00
0000000000003C00
0000000000003C00
0000000000003800
ENDCHAR
STARTCHAR uni092D094D0928
ENCODING -1
SWIDTH 757 0
DWIDTH 27 0
BBX 29 23 -1 0
BITMAP
7E000FFFFFFFFF80
6F800AAAAAABEA40
02D000000002C000
01E000000002C000
00E000000002C000
00E000000002C000
00E000000002C000
00E000000002C000
00E000000002C000
00E0000BFFFFC000
00FAAAAFAAABC000
00FFFFFC0002C000
00E000380002C000
00E000380002C000
00E0002C0002C000
00E000180002C000
005000000002C000
000000000002C000
000000000002C000
000000000002C000
000000000002C000
000000000002C000
000000000002C000
ENDCHAR
STARTCHAR uni092E094D0928
ENCODING -1
SWIDTH 757 0
DWIDTH 27 0
BBX 29 23 -1 0
BITMAP
7FFFFFFFFFFFFF80
6AFAAAAAAAABEA40
00E000000002C000
00E000000002C000
00E000000002C000
00E000000002C000
00E000000002C000
00E000000002C000
00E000000002C000
00E0000BFFFFC000
00FAAAAFAAABC000
00FFFFFC0002C000
00E000380002C000
00E000380002C000
00E0002C0002C000
00E000180002C000
005000000002C000
000000000002C000
000000000002C000
000000000002C000
000000000002C000
000000000002C000
000000000002C000
ENDCHAR
STARTCHAR uni092F094D0928
ENCODING -1
SWIDTH 829 0
DWIDTH 30 0
BBX 32 23 -1 0
BITMAP
7FFFFFFFFFFFFFFD
6AABEAAAAAAAAEA8
0000B00000001E00
0000740000001E00
0000780000001E00
0000780000001E00
0000740000001E00
0000B40000001E00
01ABE00000001E00
02FE40001AAAAE00
02D00000BFFFFE00
02D00001E0001E00
02D00001D0001E00
01D00002D0001E00
00E00002D0001E00
00B4000BD0001E00
002FAABEE0001E00
0006FFE460001E00
0000000000001E00
0000000000001E00
0000000000001E00
0000000000001E00
0000000000001E00
ENDCHAR
STARTCHAR uni0935094D0928
ENCODING -1
SWIDTH 798 0
DWIDTH 29 0
BBX 31 23 -1 0
BITMAP
7FFFFFFFFFFFFFF4
6AAAAAAAAAAABAA0
0000000000007400
0000000000007400
0000000000007400
001BFC0000007400
007EA80000007400
00F4000000007400
01D0000000007400
02C00001BFFFF400
02C00003EAAAB400
02C0000B40007400
02C0000B00007400
02C0000B00007400
02C0000740007400
02C0000340007400
01D0002800007400
00F000B800007400
007EABE000007400
001BFE4000007400
0000000000007400
0000000000007400
0000000000007400
ENDCHAR
STARTCHAR uni0936094D0928
ENCODING -1
SWIDTH 845 0
DWIDTH 30 0
BBX 30 23 1 0
BITMAP
01BF900FFFFFFFF0
07EAF40AAAAAFA90
0F0078000000B000
1E002C000000B000
1D002C000000B000
1D002C000000B000
1D002C000000B000
00002C000000B000
00002C000000B000
00003C01FFFFF000
0000B807EAAAF000
6AABF00B0000B000
7FFF800E0000B000
3C00000F0000B000
1E00000B0000B000
0B4000070000B000
03C000000000B000
01E000000000B000
00B400000000B000
003C00000000B000
001E00000000B000
000B40000000B000
0003C0000000B000
ENDCHAR
STARTCHAR uni0938094D0928
ENCODING -1
SWIDTH 831 0
DWIDTH 30 0
BBX 32 23 -1 0
BITMAP
7FFFFFFFFFFFFFFD
6AAAEAAAAAAAAFA9
0001D00000000E00
0001D00000000E00
0001D00000000E00
0001D00000000E00
0001D00000000E00
0001D00000000E00
0001D00000000E00
0002C0002FFFFE00
000B8000FAAAAE00
0BFFFFFFE0000E00
0BAAAAAAD0000E00
07800001D0000E00
02D00001E0000E00
00F00000A0000E00
0078000000000E00
002C000000000E00
001E000000000E00
000B400000000E00
0003800000000E00
0002D00000000E00
0000F00000000E00
ENDCHAR
STARTCHAR uni0939094D0928
ENCODING -1
SWIDTH 500 0
DWIDTH 18 0
BBX 20 27 -1 -4
BITMAP
7FFFFFFFFD
6AAAAAAFA9
0000000B00
0000000B00
0000000B00
0006AAAF00
002FFFFE00
00B8000000
00F0000000
00E0000000
00E0000000
00F0000000
0078000000
001FFFFFC0
002EAAAFC0
00B4007FC0
00E001F6C0
01D00782C0
01D00E02C0
01D01D02C0
01D01D02C0
01D00F0180
01E0074000
00F0000000
0079000000
002FFFFD00
0001AAA800
ENDCHAR
STARTCHAR uni0915094D0930
ENCODING -1
SWIDTH 725 0
DWIDTH 26 0
BBX 28 25 -1 -2
BITMAP
7FFFFFFFFFFFFE
6AAAAABEAAAAA9
0000002C000000
0000002C000000
0000002C000000
0006A42C5A9000
003FF82DFFFD00
00F8002F401F00
01E0002D000780
02C0002C000380
02C0002C0003C0
02C0002C0002C0
02C0002C0002C0
02C0002C0002C0
02C0002C0003C0
02C0003C000380
01E0007C000780
00F801FC001F00
007FFFBC1FFD00
0006AE2C1A9000
0000782C000000
0001E02C000000
0007802C000000
001E0000000000
00140000000000
ENDCHAR
STARTCHAR uni0916094D0930
ENCODING -1
SWIDTH 698 0
DWIDTH 25 0
BBX 27 25 -1 -2
BITMAP
7FFFFFFFFFFFF8
6AAABAAAAABEA4
0000B400003800
0000B400003800
0000B400003800
0000B400003800
0000B406F43800
0000B41FA43800
0000B03D003800
0000F078003800
0002E074003800
0BFF8074003800
0BA90074003800
03C00074003800
01E00078007800
00B4003D00B800
003C001FABF800
001E0006FF7800
000B40001D3800
00078000783800
0002D000F03800
0000F402C03800
0000780B403800
0000002E000000
00000024000000
ENDCHAR
STARTCHAR uni0917094D0930
ENCODING -1
SWIDTH 494 0
DWIDTH 18 0
BBX 20 23 -1 0
BITMAP
7FFFFFFFFD
6AAFAAAEA8
001E001D00
001E001D00
001E001D00
001E001D00
001E001D00
001E001D00
001E001D00
001E001D00
001E001D00
001D001D00
003C002D00
0AF400BD00
1F9001ED00
0000079D00
00001E1D00
00003C1D00
0000F41D00
0002D01D00
000B401D00
001E001D00
0078001D00
ENDCHAR
STARTCHAR uni0918094D0930
ENCODING -1
SWIDTH 559 0
DWIDTH 20 0
BBX 22 25 -1 -2
BITMAP
7FFFFFFFFFE0
6ABEAAAAFA90
00F00000F000
01D00000F000
01D00000F000
01D00000F000
01D00000F000
00E00000F000
00B40000F000
002FFC00F000
007EA400F000
00F00000F000
01E00000F000
01D00000F000
01D00000F000
01D00000F000
01E00001F000
00F40003F000
007EAAAEF000
001BFFF8F000
000002E0F000
00000B40F000
00007D00F000
0001F0000000
000B80000000
ENDCHAR
STARTCHAR uni0919094D0930
ENCODING -1
SWIDTH 505 0
DWIDTH 18 0
BBX 20 29 -1 -6
BITMAP
7FFFFFFFFE
6AAAAABEA9
0000003800
0000003800
0000003800
0000003800
001BFFF800
00BEAAA400
00E0000000
01D0000000
01D00000F0
01E0000060
00F4000000
007FFFE400
0006AABD00
0000001E00
0000000F00
0000000F00
01D0000F00
01D0000F00
01E0001E00
00BEAABD00
002FFFE400
0002EF0000
00078B8000
000F43D000
002E01F000
007C00B800
00B4003C00
ENDCHAR
STARTCHAR uni091A094D0930
ENCODING -1
SWIDTH 563 0
DWIDTH 20 0
BBX 22 24 -1 -1
BITMAP
7FFFFFFFFFE0
6AAAAAAAFA90
00000000B000
00000000B000
00000000B000
00000000B000
00000000B000
1FFFFF80B000
0AAFEA40B000
001E0000B000
003C0000B000
00380000B000
00780000B000
00780000B000
00380000F000
003C0000F000
002E0002F000
000FEAAFF000
0002FFFDB000
000001F0B000
00000B80B000
00002E00B000
0001F400B000
0003D0000000
ENDCHAR
STARTCHAR uni091B094D0930
ENCODING -1
SWIDTH 581 0
DWIDTH 21 0
BBX 23 27 -1 -4
BITMAP
7FFFFFFFFFF4
6ABEAAAABAA4
00B400007400
00E000007400
01E000007400
01E000007400
01E000007400
01E0003FF000
00E0002AF400
00B800003C00
001FF4002D00
003EA0001D00
00B400001D00
00E000001D00
01E000001D00
01E000001D00
01E000001D00
01E000002D00
00F000003C00
00B90001B400
002FFFFFE000
0005AFF90000
00007CB40000
0000F43C0000
0002D01E0000
0007800B8000
000600018000
ENDCHAR
STARTCHAR uni091C094D0930
ENCODING -1
SWIDTH 547 0
DWIDTH 20 0
BBX 21 24 -1 -1
BITMAP
7FFFFFFFFFC0
6AAAAAAAEA80
00000001D000
00000001D000
00000001D000
00000001D000
00000001D000
01AAAAAAD000
01FFFFFFD000
0001F001D000
00007801D000
00003C01D000
00002C01D000
00002C01D000
00002C01D000
00002C01D000
00003C02D000
0000B80BD000
06ABF02ED000
0FFF80B9D000
000002E1D000
00000B81D000
00002E01D000
0000B8000000
ENDCHAR
STARTCHAR uni091D094D0930
ENCODING -1
SWIDTH 684 0
DWIDTH 25 0
BBX 26 24 -1 -1
BITMAP
7FFFFFFFFFFFF0
6AAAAAFAAABAA0
000000E0007400
000000E0007400
000000E0007400
001BFFE0007400
00BEAA90007400
00E00000007400
01D00000007400
01D00000007400
01E00000007400
00F40000007400
007FFFFFFFF400
0006AAFAAAB400
00000074007400
02C0003800B400
02C0003801F400
02D0003807F400
02E000781FB400
02F401B43D7400
02EFFFE0F47400
02C6A942E07400
02C0000B807400
02C0001E001000
ENDCHAR
STARTCHAR uni091E094D0930
ENCODING -1
SWIDTH 598 0
DWIDTH 22 0
BBX 23 24 -1 -1
BITMAP
7FFFFFFFFFFC
6AAAAAAAAEA8
000000001D00
000000001D00
000000001D00
000000001D00
02FF90001D00
01AAF4001D00
00003C001D00
00001D001D00
00001D001D00
00000D002D00
00000FFFFD00
00000EAAAD00
00000D001D00
00001D002D00
00002D00BD00
0000BC02ED00
07FFF00B5D00
06AA402D1D00
000000B41D00
000002D01D00
00000B401D00
000019000000
ENDCHAR
STARTCHAR uni091F094D0930
ENCODING -1
SWIDTH 485 0
DWIDTH 17 0
BBX 19 27 -1 -4
BITMAP
7FFFFFFFFC
6AAAAABEA8
0000003800
0000003800
0000003800
0000003800
0000003800
001BFFF800
007EAAA400
00F4000000
01D0000000
02D0000000
02C0000000
02C0000000
02C0000000
02C0000380
02D0000380
01D0000380
01E0000740
00B9002F00
002FFFFD00
0006FF9000
0001E7C000
0003C1E000
000B40B400
001E003C00
0038001E00
ENDCHAR
STARTCHAR uni0920094D0930
ENCODING -1
SWIDTH 512 0
DWIDTH 18 0
BBX 20 27 -1 -4
BITMAP
7FFFFFFFFF
6AAAAABEAA
0000002C00
0000002C00
0000002C00
0000002C00
000000B800
001BFFF000
007EAABD00
00F4001F00
01D0000740
02D0000380
02C0000380
02C0000380
02C0000380
02C0000380
02C0000380
02D0000780
01E0000B40
00B9002F00
002FFFFC00
0006FF9000
0001E3C000
0003C1E000
000B40B400
001E003C00
003C001E00
ENDCHAR
STARTCHAR uni0921094D0930
ENCODING -1
SWIDTH 475 0
DWIDTH 17 0
BBX 19 29 -1 -6
BITMAP
7FFFFFFFF8
6AAAAABEA4
0000003800
0000003800
0000003800
0000003800
001BFFF800
00BEAAA400
00E0000000
01D0000000
01D0000000
01E0000000
00F4000000
007FFFE400
0006AABD00
0000001E00
0000000F00
0000000F00
01D0000F00
01D0000E00
01E0001E00
00BEAABC00
002FFFE000
0001EB4000
0003C78000
000B42E000
001E00F400
003C007800
0074002D00
ENDCHAR
STARTCHAR uni0922094D0930
ENCODING -1
SWIDTH 485 0
DWIDTH 17 0
BBX 19 27 -1 -4
BITMAP
7FFFFFFFFC
6AAAAABEA8
0000003C00
0000003C00
0000003C00
0000003C00
0005AABC00
002FFFF800
00B9000000
00E0000000
01D0000000
01D0000000
02D006F900
02D00FAF40
02D01D0780
02D01D0380
01D01C0380
01D0000380
00E0000780
00B9001F40
002FFFFD00
0005FF9000
0001F7C000
0003D1E000
000B40B400
001E003D00
003C001E00
ENDCHAR
STARTCHAR uni0923094D0930
ENCODING -1
SWIDTH 681 0
DWIDTH 25 0
BBX 26 23 -1 0
BITMAP
7FFFFFFFFFFFF0
6AFAAABAAABAA0
00E00074007400
00E00074007400
00E00074007400
00E00074007400
00E00074007400
00E00074007400
00E00074007400
00E00074007400
00E00074007400
00E00074007400
00E000B400B400
00B000B002F400
007902E007F400
002FFF801E7400
0001A500787400
00000000F07400
00000003D07400
0000000B407400
0000002D007400
000000B8007400
000001E0007400
ENDCHAR
STARTCHAR uni0924094D0930
ENCODING -1
SWIDTH 493 0
DWIDTH 18 0
BBX 20 23 -1 0
BITMAP
7FFFFFFFFD
6AAAAAAEA8
0000001D00
0000001D00
0000001D00
0000001D00
0000001D00
001BFE5D00
00BEAAFD00
01E0007D00
02D0002D00
02C0001D00
02C0001D00
02C0001D00
0140002D00
000000BD00
000003FD00
00001F5D00
00007D1D00
0002E01D00
000B801D00
007D001D00
01F4001D00
ENDCHAR
STARTCHAR uni0925094D0930
ENCODING -1
SWIDTH 593 0
DWIDTH 21 0
BBX 20 25 2 -2
BITMAP
02FE000BFE
0FABC00BA9
2D01E00B00
2C00E00B00
2800F00B00
2800F00B00
0000E00B00
0000E00B00
0002D00B00
6AAF800B00
BFFE000B00
B000000B00
B000000B00
B000000B00
B000000F00
7400001F00
3D00007F00
1FAAAAEB00
02FFFF8B00
00002E0B00
0000B80B00
0007D00B00
001F400B00
00B8000000
0090000000
ENDCHAR
STARTCHAR uni0926094D0930
ENCODING -1
SWIDTH 489 0
DWIDTH 18 0
BBX 19 24 -1 -1
BITMAP
7FFFFFFFFC
6AAAAAAEA8
0000001D00
0000001D00
0000001D00
0000001D00
001BFFFD00
007EAAA800
00F4000000
01E0000000
01D0000000
02D0000000
02D0000000
02D0000000
02D0000B00
01D0000B00
01E0000F00
00F4001F00
007EAABF00
001BFFDB00
00000B4B00
00002D0B00
0000B40B00
0002D00000
ENDCHAR
STARTCHAR uni0927094D0930
ENCODING -1
SWIDTH 560 0
DWIDTH 20 0
BBX 22 24 -1 -1
BITMAP
7FFFD07FFFE0
6ABE806AFA90
00F00000F000
01E00000F000
01D00000F000
01D00000F000
01D00000F000
00E00000F000
00B80000F000
002FFC00F000
007EA800F000
00F00000F000
01E00000F000
01D00000F000
01D00000F000
01D00000F000
00E00002F000
00B9001BF000
002FFFFEF000
0005AAF8F000
000007D0F000
00001F40F000
0000B800A000
0002E0000000
ENDCHAR
STARTCHAR uni0928094D0930
ENCODING -1
SWIDTH 473 0
DWIDTH 17 0
BBX 19 23 -1 0
BITMAP
7FFFFFFFF4
6AAAAABEA4
0000003800
0000003800
0000003800
0000003800
0000003800
0000003800
0000003800
00BFFFF800
02EAAAB800
0780003800
074000B800
074002F800
038007B800
02801E3800
00007C3800
0000F43800
0002D03800
000B403800
002E003800
0078003800
00F0003800
ENDCHAR
STARTCHAR uni092A094D0930
ENCODING -1
SWIDTH 503 0
DWIDTH 18 0
BBX 20 24 -1 -1
BITMAP
7FFFFFFFFE
6AFAAAAFA9
00E0000E00
00E0000E00
00E0000E00
00E0000E00
00E0000E00
00E0000E00
00E0000E00
00E0000E00
00E0000E00
00E0000E00
00F0000E00
00B4001E00
007D00BE00
001FFFEE00
0001AB8E00
00000E0E00
0000380E00
0000F00E00
0003C00E00
000F400E00
003D000A00
0064000000
ENDCHAR
STARTCHAR uni092B094D0930
ENCODING -1
SWIDTH 741 0
DWIDTH 27 0
BBX 28 24 -1 -1
BITMAP
7FFFFFFFFFFFFF
6AFAAAAEAAAAAA
00E0001D000000
00E0001D000000
00E0001D000000
00E0001D1A9400
00E0001EFFFE00
00E0001F901B80
00E0001F0003C0
00E0001E0001D0
00E0001D0001D0
00E0001D0001D0
00F0002D0001D0
00B8007D0001D0
003FAAFD0001D0
000BFF9D0001D0
00000F1D0003C0
00003C1D001B80
0000B41D0BFE00
0002D01D069400
000B401D000000
002E001D000000
0078001D000000
00600000000000
ENDCHAR
STARTCHAR uni092C094D0930
ENCODING -1
SWIDTH 491 0
DWIDTH 18 0
BBX 19 25 -1 -2
BITMAP
7FFFFFFFFC
6AAAAAAEA8
0000001D00
0000001D00
0000001D00
001BFC1D00
007EA81D00
00F4001D00
01FD001D00
02CB001D00
02C2C01D00
02C0B01D00
02C02C1D00
02C00A1D00
02C0039D00
02C000FD00
01E0007D00
00F801BD00
003FFFED00
0006AF5D00
00002D1D00
0000F41D00
0003D01D00
000F400000
0019000000
ENDCHAR
STARTCHAR uni092D094D0930
ENCODING -1
SWIDTH 491 0
DWIDTH 18 0
BBX 19 23 -1 0
BITMAP
7E000FFFFC
6F800AAEA8
02D0001D00
01E0001D00
00E0001D00
00E0001D00
00E0001D00
00E0001D00
00E0001D00
00E0001D00
00FAAAAD00
00FFFFFD00
00E0002D00
00E000BD00
00E001FD00
00E0079D00
00500F1D00
00003C1D00
0000B41D00
0002D01D00
000B401D00
001E001D00
0078001D00
ENDCHAR
STARTCHAR uni092E094D0930
ENCODING -1
SWIDTH 490 0
DWIDTH 18 0
BBX 19 23 -1 0
BITMAP
7FFFFFFFFC
6AFAAAAEA8
00E0001D00
00E0001D00
00E0001D00
00E0001D00
00E0001D00
00E0001D00
00E0001D00
00E0001D00
00FAAAAD00
00FFFFFD00
00E0002D00
00E000BD00
00E002FD00
00E0079D00
00501E1D00
00007C1D00
0000F01D00
0003D01D00
000B401D00
002E001D00
0078001D00
ENDCHAR
STARTCHAR uni092F094D0930
ENCODING -1
SWIDTH 564 0
DWIDTH 20 0
BBX 22 24 -1 -1
BITMAP
7FFFFFFFFFE0
6AABEAAAFA90
0000B000B000
00007400B000
00007800B000
00007800B000
00007400B000
0000B400B000
01ABE000B000
02FE4000B000
02D00000B000
02D00000B000
02D00000B000
02D00000B000
01D00000F000
01E00001F000
00B40007F000
003FAAAFF000
000BFFF8B000
000002E0B000
00001F40B000
00007D00B000
0002F000A000
000B80000000
ENDCHAR
STARTCHAR uni0935094D0930
ENCODING -1
SWIDTH 484 0
DWIDTH 17 0
BBX 19 24 -1 -1
BITMAP
7FFFFFFFFC
6AAAAABEA4
0000002C00
0000002C00
0000002C00
0006A42C00
002FF82C00
00F8002C00
01E0002C00
02D0002C00
02C0002C00
02C0002C00
02C0002C00
02C0002C00
02C0002C00
02D0002C00
01E0007C00
00F801FC00
003FFFAC00
0006AE2C00
0000782C00
0001E02C00
000B801C00
002E000000
ENDCHAR
STARTCHAR uni0936094D0930
ENCODING -1
SWIDTH 558 0
DWIDTH 20 0
BBX 20 23 1 0
BITMAP
01BF800BFD
0BEAF40FA9
1E00780E00
2D002C0E00
2C002C0E00
2D002C0E00
1D003C0E00
0F00780E00
0781F00E00
02F7D00E00
007F400E00
01FFD00E00
0BD1F80E00
7E002F7E00
B40007FE00
00000B8E00
00007D0E00
0002F40E00
001F800E00
00BD000E00
0060000E00
0000000E00
0000000E00
ENDCHAR
STARTCHAR uni0938094D0930
ENCODING -1
SWIDTH 604 0
DWIDTH 22 0
BBX 24 23 -1 0
BITMAP
7FFFFFFFFFFD
6AAAEAAAAEA8
0001D0001D00
0001D0001D00
0001D0001D00
0001D0001D00
0001D0001D00
0001D0001D00
0001D0001D00
0002C0001D00
000B80001D00
0BFFFFFFFD00
0BAAAAAAFD00
07800002ED00
02D0000B5D00
00F0001E1D00
007800781D00
002C00F01D00
001E02D01D00
000B40001D00
000380001D00
0002D0001D00
0000F0001D00
ENDCHAR
STARTCHAR uni0939094D0930
ENCODING -1
SWIDTH 505 0
DWIDTH 18 0
BBX 20 26 -1 -3
BITMAP
7FFFFFFFFE
6AAAAAAFA9
0000000E00
0000000E00
0000000E00
0006AAAE00
007FFFFD00
00F4000000
01E0000000
01D0000000
01D0000000
01E0000000
00B4000000
002FFFFF80
007EAABFC0
00F0007AC0
01D001E2C0
02C007C2C0
02C00F02C0
02C02D02C0
02C07402C0
02C0000140
01D0000000
00F4000000
007EAAA800
001BFFFC00
ENDCHAR
STARTCHAR uni0915093C094D0930
ENCODING -1
SWIDTH 725 0
DWIDTH 26 0
BBX 28 27 -1 -4
BITMAP
7FFFFFFFFFFFFE
6AAAAABEAAAAA9
0000002C000000
0000002C000000
0000002C000000
0006A42C5A9000
003FF82DFFFD00
00F8002F401F00
01E0002D000780
02C0002C000380
02C0002C0003C0
02C0002C0002C0
02C0002C0002C0
02C0002C0002C0
02C0002C0003C0
02C0003C000380
01E0007C000780
00F801FC001F00
007FFFBC1FFD00
0006AE2C1A9000
0000782C000000
0001E02C000000
0007802C000000
001E0000000000
00180000000000
00007800000000
00006400000000
ENDCHAR
STARTCHAR uni0916093C094D0930
ENCODING -1
SWIDTH 698 0
DWIDTH 25 0
BBX 27 27 -1 -4
BITMAP
7FFFFFFFFFFFF8
6AAABAAAAABEA4
0000B400003800
0000B400003800
0000B400003800
0000B400003800
0000B406F43800
0000B41FA43800
0000B03D003800
0000F078003800
0002E074003800
0BFF8074003800
0BA90074003800
03C00074003800
01E00078007800
00B4003D00B800
007C001FABF800
002E0006FF7800
000B40001D3800
00078000783800
0002D000F03800
0000F002D03800
0000780B403800
0000001E000000
00000028000000
00000000740000
00000000640000
ENDCHAR
STARTCHAR uni0917093C094D0930
ENCODING -1
SWIDTH 494 0
DWIDTH 18 0
BBX 20 27 -1 -4
BITMAP
7FFFFFFFFD
6AAFAAAEA8
001E001D00
001E001D00
001E001D00
001E001D00
001E001D00
001E001D00
001E001D00
001E001D00
001E001D00
001D001D00
003C002D00
0AF400BD00
1F9001ED00
0000079D00
00000E1D00
00003C1D00
0000B41D00
0002D01D00
0007801D00
001E001D00
003C001D00
0050000400
0000000000
0000740000
0000640000
ENDCHAR
STARTCHAR uni091C093C094D0930
ENCODING -1
SWIDTH 547 0
DWIDTH 20 0
BBX 21 25 -1 -2
BITMAP
7FFFFFFFFFC0
6AAAAAAAEA80
00000001D000
00000001D000
00000001D000
00000001D000
00000001D000
01AAAAAAD000
01FFFFFFD000
0001F001D000
00007801D000
00003C01D000
00002C01D000
00002C01D000
00002C01D000
00002C01D000
00003C03D000
0000B80FD000
06ABF03ED000
0FFF80B5D000
000002D1D000
00000B41D000
00002D01D000
0F00B4000000
090000000000
ENDCHAR
STARTCHAR uni0921093C094D0930
ENCODING -1
SWIDTH 475 0
DWIDTH 17 0
BBX 19 29 -1 -6
BITMAP
7FFFFFFFF8
6AAAAABEA4
0000003800
0000003800
0000003800
0000003800
001BFFF800
00BEAAA400
00E0000000
01D0000000
01D0000000
01E0000000
00F4000000
007FFFE400
0006AABD00
0000001E00
0000000F00
0000000F00
01D0000F00
01D0000E00
01E0001E00
00BEAABC00
002FFFE000
0001EF4000
2D03C78000
180B42E000
001E00F400
003C007800
00B4002D00
ENDCHAR
STARTCHAR uni0922093C094D0930
ENCODING -1
SWIDTH 485 0
DWIDTH 17 0
BBX 19 27 -1 -4
BITMAP
7FFFFFFFFC
6AAAAABEA8
0000003C00
0000003C00
0000003C00
0000003C00
0005AABC00
002FFFF800
00B9000000
00E0000000
01D0000000
01D0000000
02D006F900
02D00FAF40
02D01D0780
02D01D0380
01D01C0380
01D0000380
00E0000780
00B9001F40
002FFFFD00
0005FF9000
2C01F7C000
1803D1E000
000B40B400
001E003D00
003C001E00
ENDCHAR
STARTCHAR uni0928093C094D0930
ENCODING -1
SWIDTH 473 0
DWIDTH 17 0
BBX 19 27 -1 -4
BITMAP
7FFFFFFFF4
6AAAAABEA4
0000003800
0000003800
0000003800
0000003800
0000003800
0000003800
0000003800
00BFFFF800
02EAAAB800
0780003800
074000B800
074002F800
038007B800
02801E3800
00003C3800
0000B43800
0002D03800
000B803800
001E003800
007C003800
00F4003800
0040001400
0000000000
0003C00000
0001800000
ENDCHAR
STARTCHAR uni092B093C094D0930
ENCODING -1
SWIDTH 741 0
DWIDTH 27 0
BBX 28 26 -1 -3
BITMAP
7FFFFFFFFFFFFF
6AFAAAAEAAAAAA
00E0001D000000
00E0001D000000
00E0001D000000
00E0001D1A9400
00E0001EFFFE00
00E0001F901B80
00E0001F0003C0
00E0001E0001D0
00E0001D0001D0
00E0001D0001D0
00F0002D0001D0
00B8007D0001D0
003FAAFD0001D0
000BFF9D0001D0
00000E1D0003C0
00003C1D001B80
0000F01D0BFE00
0003D01D069400
000B401D000000
002D001D000000
00B40009000000
00000000000000
0000B400000000
00006000000000
ENDCHAR
STARTCHAR uni092F093C094D0930
ENCODING -1
SWIDTH 564 0
DWIDTH 20 0
BBX 22 27 -1 -4
BITMAP
7FFFFFFFFFE0
6AABEAAAFA90
0000B000B000
00007400B000
00007800B000
00007800B000
00007400B000
0000B400B000
01ABE000B000
02FE4000B000
02D00000B000
02D00000B000
02D00000B000
02D00000B000
01D00000F000
01E00001F000
00B40007F000
003FAAAFF000
000BFFFCB000
000002E0B000
00000B80B000
00003E00B000
0000F800B000
0003E0005000
000A40000000
000003800000
000002400000
ENDCHAR
STARTCHAR uni0915094D0930094D
ENCODING -1
SWIDTH 518 0
DWIDTH 19 0
BBX 25 25 -1 -2
BITMAP
7FFFFFFFFFFF40
6AAAAABEAAAA00
0000002C000000
0000002C000000
0000002C000000
0006A42C5A9000
003FF82DFFFD00
00F8002F401F00
01E0002D000700
02C0002C000000
02C0002C000000
02C0002C000000
02C0002C000000
02C0002C000000
02C0002C000000
02C0003C000000
01E0007C000000
00F801FC000000
007FFFBC000000
0006AE2C000000
0000782C000000
0001E02C000000
0007802C000000
001E0000000000
00140000000000
ENDCHAR
STARTCHAR uni0916094D0930094D
ENCODING -1
SWIDTH 469 0
DWIDTH 17 0
BBX 22 25 -1 -2
BITMAP
7FFFFFFFFFE0
6AAABAAAAA90
0000B4000000
0000B4000000
0000B4000000
0000B4000000
0000B406F400
0000B41FA400
0000B03D0000
0000F0780000
0002E0740000
0BFF80740000
0BA900740000
03C000740000
01E000780020
00B4003D01F0
003C001FABD0
001E0006FF40
000B40001E00
000780007800
0002D000F000
0000F402D000
0000780B4000
0000002E0000
000000240000
ENDCHAR
STARTCHAR uni0917094D0930094D
ENCODING -1
SWIDTH 264 0
DWIDTH 10 0
BBX 15 23 -1 0
BITMAP
7FFFFC00
6AAFA800
001E0000
001E0000
001E0000
001E0000
001E0000
001E0000
001E0000
001E0000
001E0000
001D0004
003C002C
0AF400B4
1F9002D0
00000780
00001E00
00007C00
0000F000
0002D000
000B4000
002E0000
00780000
ENDCHAR
STARTCHAR uni0918094D0930094D
ENCODING -1
SWIDTH 319 0
DWIDTH 11 0
BBX 17 25 -1 -2
BITMAP
7FFFFFFF40
6ABEAAAA00
00F0000000
01D0000000
01D0000000
01D0000000
01D0000000
00E0000000
00B4000000
002FFC0000
007EA40000
00F0000000
01D0000000
01D0000000
01D0000000
01D0000000
01E00002C0
00B8001B80
002FFFFD00
0005AAF400
000007D000
00001E0000
0000B80000
0007D00000
0006400000
ENDCHAR
STARTCHAR uni091A094D0930094D
ENCODING -1
SWIDTH 331 0
DWIDTH 12 0
BBX 18 24 -1 -1
BITMAP
7FFFFFFE00
6AAAAAA900
0000000000
0000000000
0000000000
0000000000
0000000000
1FFFFF8000
0AAFEA4000
001E000000
003C000000
0038000000
0078000000
0078000000
0038000000
003C000080
002E0002D0
000FEAAF40
0002FFFD00
000001F400
00000BC000
00002E0000
0001F80000
0003D00000
ENDCHAR
STARTCHAR uni091C094D0930094D
ENCODING -1
SWIDTH 312 0
DWIDTH 11 0
BBX 17 24 -1 -1
BITMAP
7FFFFFFF00
6AAAAAAA00
0000000000
0000000000
0000000000
0000000000
0000000000
01AAAAAA00
01FFFFFF00
0001F00000
0000780000
00003C0000
00002C0000
00002C0000
00002C0000
00002C0040
00003C02C0
0000B80B40
06ABF02D00
0FFF80B400
000002E000
00000B8000
00002E0000
0000B80000
ENDCHAR
STARTCHAR uni091D094D0930094D
ENCODING -1
SWIDTH 441 0
DWIDTH 16 0
BBX 22 24 -1 -1
BITMAP
7FFFFFFFFF80
6AAAAAFAAA40
000000E00000
000000E00000
000000E00000
001BFFE00000
00BEAA900000
00E000000000
01D000000000
01D000000000
01E000000000
00F400000000
007FFFFFFFD0
0006AAFAAAD0
0000007401D0
02C0003801D0
02C0003801D0
02D000380780
02E000781F00
02F401B43C00
02EFFFE0F400
02C6A942D000
02C0000B4000
02C0001E0000
ENDCHAR
ENDFONT
